<svg xmlns="http://www.w3.org/2000/svg" viewBox="5727.553 8992.999 60 25.733">
  <defs>
    <style>
      .cls-1 {
        fill: #fff;
      }
    </style>
  </defs>
  <g id="_1498043697_arrow_pencil_left-small" data-name="1498043697_arrow_pencil_left-small" transform="translate(5727.553 8992.999)">
    <path id="Path_496" data-name="Path 496" class="cls-1" d="M37.59,212.686a1.112,1.112,0,0,1-1.111-1.07,1.043,1.043,0,0,1,.013-.218l-3.747-.022a1.112,1.112,0,0,1-.187-2.208l6.494-1.145a.947.947,0,0,1,.238-.016l.191.008-1.92-4.616a1.112,1.112,0,0,1,1.192-1.527l41.8,6.214,9.312-.514a1.086,1.086,0,0,1,1.172,1.049,1.111,1.111,0,0,1-1.048,1.171l-1.936.107a1.181,1.181,0,0,1,.028.186,1.112,1.112,0,0,1-.792,1.145l-2.535.755a.98.98,0,0,1-.362.046l-5.407-.215-41.367.87Zm4.341-4.573L64.08,209l5.44-.3-29.147-4.334Z" transform="translate(-31.639 -196.232)"/>
    <path id="Path_497" data-name="Path 497" class="cls-1" d="M296.474,185.147a1.112,1.112,0,0,1-.6-2.051L312.091,172.8c-9.832-4.487-16.326-7.419-17.343-7.83a1.175,1.175,0,0,1-.561-.307,1.115,1.115,0,0,1-.269-.43c-.2-.312-1.062-1.591-1.835-2.721a1.112,1.112,0,0,1,1.4-1.628l22.616,11a6.34,6.34,0,0,0,.986,2.433,1.112,1.112,0,0,1-.577,1.016L297.007,185.01A1.1,1.1,0,0,1,296.474,185.147Z" transform="translate(-257.09 -159.773)"/>
    <path id="Path_498" data-name="Path 498" class="cls-1" d="M294.346,194.631a1.112,1.112,0,0,1-.518-2.1l20.631-10.821-19.811-9.286a1.112,1.112,0,1,1,.945-2.014l21.84,10.237a1.112,1.112,0,0,1,.045,1.992L294.862,194.5A1.118,1.118,0,0,1,294.346,194.631Z" transform="translate(-258.254 -168.897)"/>
  </g>
</svg>
