<svg xmlns="http://www.w3.org/2000/svg" viewBox="-2559 10274.3 1287 90">
  <defs>
    <style>
      .cls-1 {
        fill: #fff;
      }
    </style>
  </defs>
  <g id="borde" transform="translate(-1272 10365.529) rotate(180)">
    <path id="Path_312" data-name="Path 312" class="cls-1" d="M119.422,63.342c3.061.146,4.49.9,4.3-1.394,2,.15.832,2.029,2.567,2.326-.007,2.009-6.205.662-6.86,2.324-1.5-.113-1.951-.8-1.711-1.863C120.869,65.839,117.354,64.158,119.422,63.342Z" transform="translate(156.607 -4.423)"/>
    <path id="Path_313" data-name="Path 313" class="cls-1" d="M124.734,62.446c2.326-.331-.615,2.2,1.713,1.863C125.135,65.769,122.746,62.94,124.734,62.446Z" transform="translate(165.022 -4.457)"/>
    <path id="Path_314" data-name="Path 314" class="cls-1" d="M119.19,58.328a9.785,9.785,0,0,1-5.147,1.858c-1.935-1,.711-1.585,0-3.255C116.6,56.94,116.969,58.142,119.19,58.328Z" transform="translate(150.842 -4.058)"/>
    <path id="Path_315" data-name="Path 315" class="cls-1" d="M20.2,59.8c.354-.9,3.326-.367,2.581-1.863C26.953,58.5,21.836,61.021,20.2,59.8Z" transform="translate(26.894 -4.131)"/>
    <path id="Path_316" data-name="Path 316" class="cls-1" d="M13.5,56.825c-2.636-.346-1.648,1.279-4.282.931C6.232,56.043,13.479,54.1,13.5,56.825Z" transform="translate(11.31 -3.951)"/>
    <path id="Path_317" data-name="Path 317" class="cls-1" d="M129.877,50.412c2.961-.328,3.065,1.626,1.713,2.321C129.85,52.4,128.087,51.337,129.877,50.412Z" transform="translate(171.884 -3.58)"/>
    <path id="Path_318" data-name="Path 318" class="cls-1" d="M129.321,50.908c-.249.949-2.308.911-2.569,1.86-1.065-.2-1.765-.592-1.716-1.394A9.552,9.552,0,0,1,129.321,50.908Z" transform="translate(166.433 -3.616)"/>
    <path id="Path_319" data-name="Path 319" class="cls-1" d="M75.391,52.838c-1.387.132-1.485-.439-2.574-.465C72.468,51.47,76.715,51.7,75.391,52.838Z" transform="translate(96.901 -3.685)"/>
    <path id="Path_320" data-name="Path 320" class="cls-1" d="M72.507,46.4c2.326.757,4.984,1.326,6.849,2.323C77.638,52.21,69.183,49.553,72.507,46.4Z" transform="translate(95.493 -3.29)"/>
    <path id="Path_321" data-name="Path 321" class="cls-1" d="M82.371,47.9c-.373.729-2.7.4-1.716,1.859-1.168-.145-.72-1.163-.863-1.859Z" transform="translate(106.213 -3.4)"/>
    <path id="Path_322" data-name="Path 322" class="cls-1" d="M18.737,46.4c2.4.09,3.648.81,3.42,2.323A3.5,3.5,0,0,1,18.737,46.4Z" transform="translate(24.941 -3.29)"/>
    <path id="Path_323" data-name="Path 323" class="cls-1" d="M92.178,45.395c.825,1.845-2.48,1.443-4.294,1.861C88.047,45.947,89.381,45.274,92.178,45.395Z" transform="translate(116.983 -3.216)"/>
    <path id="Path_324" data-name="Path 324" class="cls-1" d="M418.306,39.227c5.2,2.514-3.944,7.808-8.567,5.117-.317-1.41,2.795-.966,4.294-1.4,1.023-1.3.937-3.208.851-5.117l1.571.234,1-.7C419.485,36.985,421.555,39.609,418.306,39.227Z" transform="translate(545.375 -2.63)"/>
    <path id="Path_325" data-name="Path 325" class="cls-1" d="M509.552,45.281c-2.138-.19-.049-1.8,1.725-1.4C510.972,44.5,509.764,44.617,509.552,45.281Z" transform="translate(677.061 -3.102)"/>
    <path id="Path_326" data-name="Path 326" class="cls-1" d="M64.711,44.822H62.14v-.931h2.571Z" transform="translate(82.715 -3.108)"/>
    <path id="Path_327" data-name="Path 327" class="cls-1" d="M11.745,44.278c-.867-.3-.893-1.069-2.574-.932.669-1.068,5.308-.451,4.292.932C12.7,43.99,11.929,43.715,11.745,44.278Z" transform="translate(12.208 -3.029)"/>
    <path id="Path_328" data-name="Path 328" class="cls-1" d="M123.441,42.887c-.737.69-2.156,1-4.292.93Q120.236,42.781,123.441,42.887Z" transform="translate(158.6 -3.034)"/>
    <path id="Path_329" data-name="Path 329" class="cls-1" d="M515.965,42.205c-1.753-.338-3.506-1.4-1.716-2.329.832.017.66.571.851.932.832-.013.662-.569.865-.932a6.478,6.478,0,0,0,2.569.467C519.28,41.835,515.7,40.979,515.965,42.205Z" transform="translate(683.52 -2.815)"/>
    <path id="Path_330" data-name="Path 330" class="cls-1" d="M61.4,40.288a4.053,4.053,0,0,1,5.142-.467C66.441,40.848,62.916,40.022,61.4,40.288Z" transform="translate(81.731 -2.76)"/>
    <path id="Path_331" data-name="Path 331" class="cls-1" d="M407.883,35.428l-1-.7-1.56.235c-.24-2.3,2.49-2.985,2.56-5.117,5.289.409,1.846,2.694,3.431,5.117C409.781,34.9,409.508,35.532,407.883,35.428Z" transform="translate(539.508 -2.085)"/>
    <path id="Path_332" data-name="Path 332" class="cls-1" d="M163.816,39.157c-3.639.426-3.657-1.114-3.42-2.789C162.334,36.863,163.5,37.778,163.816,39.157Z" transform="translate(213.391 -2.56)"/>
    <path id="Path_333" data-name="Path 333" class="cls-1" d="M124.062,38.755c-2.534-.669,1.014-1.871,3.431-1.394C127.712,39.287,124.167,37.977,124.062,38.755Z" transform="translate(163.976 -2.624)"/>
    <path id="Path_334" data-name="Path 334" class="cls-1" d="M546.739,38.22c-2.082-.29-.464-2.348,1.711-1.858C550.042,38.281,547.8,37.744,546.739,38.22Z" transform="translate(726.482 -2.554)"/>
    <path id="Path_335" data-name="Path 335" class="cls-1" d="M269.336,36.368c.7.087.853.465,1.718.463-.163.376-.865.464-.855.93-.7-.088-.863-.466-1.713-.465C268.648,36.921,269.336,36.833,269.336,36.368Z" transform="translate(357.381 -2.56)"/>
    <path id="Path_336" data-name="Path 336" class="cls-1" d="M139.6,36.746c-1.667.184-1.254-2.116.853-1.393v.93C139.725,36.2,139.648,36.465,139.6,36.746Z" transform="translate(184.452 -2.476)"/>
    <path id="Path_337" data-name="Path 337" class="cls-1" d="M160.462,35.155l.434-.851-1.287-.545c1.7-2.18,5.933-.9,10.292-.93V35.62C166.756,34.206,162.782,37.287,160.462,35.155Z" transform="translate(212.456 -2.277)"/>
    <path id="Path_338" data-name="Path 338" class="cls-1" d="M139.618,35.333c-.72.689-2.156,1-4.285.93A3.412,3.412,0,0,1,139.618,35.333Z" transform="translate(180.142 -2.455)"/>
    <path id="Path_339" data-name="Path 339" class="cls-1" d="M273.76,33.325c-1.921.522-3.147,2.814-6.012,1.394C267.769,32.782,271.086,32.628,273.76,33.325Z" transform="translate(356.4 -2.31)"/>
    <path id="Path_340" data-name="Path 340" class="cls-1" d="M219.038,34.215c-1.226-.04-2.436-.076-2.576.461-2-.118-.49-2.04,0-2.323C217.716,32.759,219.788,32.724,219.038,34.215Z" transform="translate(286.789 -2.267)"/>
    <path id="Path_341" data-name="Path 341" class="cls-1" d="M43.748,33.859h2.569v.926H43.748Z" transform="translate(58.233 -2.377)"/>
    <path id="Path_342" data-name="Path 342" class="cls-1" d="M423.385,27.328c1.562,2.523-2.671,5.588-6.851,6.511C415.049,31.606,418.893,26.315,423.385,27.328Z" transform="translate(554.018 -1.892)"/>
    <path id="Path_343" data-name="Path 343" class="cls-1" d="M217.726,33.311c1.2-1.351,4.226.135,5.147.467C221.722,35.1,219.057,33.419,217.726,33.311Z" transform="translate(289.816 -2.296)"/>
    <path id="Path_344" data-name="Path 344" class="cls-1" d="M149.546,31.822a10.386,10.386,0,0,1-9.432,1.862V31.822C142.9,31.189,145.357,31.444,149.546,31.822Z" transform="translate(186.506 -2.2)"/>
    <path id="Path_345" data-name="Path 345" class="cls-1" d="M72.668,33.82c-.212,1.089-3.758.266-4.273,0C69.113,32.455,70.54,34.426,72.668,33.82Z" transform="translate(91.041 -2.338)"/>
    <path id="Path_346" data-name="Path 346" class="cls-1" d="M502.8,33.64c-1.084-.807-2.9-1.221-2.571-2.792C502.358,31.144,503.913,32.982,502.8,33.64Z" transform="translate(665.807 -2.158)"/>
    <path id="Path_347" data-name="Path 347" class="cls-1" d="M267.012,33.282v-.929h1.716v.929Z" transform="translate(355.421 -2.267)"/>
    <path id="Path_348" data-name="Path 348" class="cls-1" d="M180.943,33.209c-.119-1.46,2.2-1.6,4.292-1.858C184.937,32.586,182.986,32.918,180.943,33.209Z" transform="translate(240.849 -2.194)"/>
    <path id="Path_349" data-name="Path 349" class="cls-1" d="M503.522,31.816c.718.085.8-.182.844-.464,1.016.074.73.848.86,1.4C503.771,32.916,503.61,32.382,503.522,31.816Z" transform="translate(670.24 -2.194)"/>
    <path id="Path_350" data-name="Path 350" class="cls-1" d="M410.06,31.343v1.4C407.561,33.42,407.561,30.655,410.06,31.343Z" transform="translate(543.338 -2.186)"/>
    <path id="Path_351" data-name="Path 351" class="cls-1" d="M222.8,32.317c.24.739-4.639.653-2.571-.465C219.89,32.033,222.8,32.35,222.8,32.317Z" transform="translate(292.461 -2.231)"/>
    <path id="Path_352" data-name="Path 352" class="cls-1" d="M149.043,31.828c-4.343,1.647-4.714-1.2,0,0Z" transform="translate(193.869 -2.207)"/>
    <path id="Path_353" data-name="Path 353" class="cls-1" d="M185.029,31.773c-.69-1.767,4.051-.591,6-.93C190.906,32.173,187.453,31.693,185.029,31.773Z" transform="translate(246.202 -2.152)"/>
    <path id="Path_354" data-name="Path 354" class="cls-1" d="M504.068,28.34c-.086,1.738-.97,1.327,0,2.793C501.345,30.922,500.821,28.631,504.068,28.34Z" transform="translate(667.981 -1.975)"/>
    <path id="Path_355" data-name="Path 355" class="cls-1" d="M73.3,28.645l.431-.851-1.3-.542c4.035-.89,12.525-1.725,15.439-.465C86.109,29.086,79.344,28.67,73.3,28.645Z" transform="translate(96.419 -1.815)"/>
    <path id="Path_356" data-name="Path 356" class="cls-1" d="M496.889,28.658c-3.352.522-4.082,1.391-7.714.467q.465-2.538,5.135-2.792C494.313,27.575,497.024,27.346,496.889,28.658Z" transform="translate(651.143 -1.829)"/>
    <path id="Path_357" data-name="Path 357" class="cls-1" d="M492.116,25.646V23.784a9.6,9.6,0,0,1,4.292-.463,1.819,1.819,0,0,1,.851,1.859l-1.284-.233-.431.7Z" transform="translate(655.057 -1.606)"/>
    <path id="Path_358" data-name="Path 358" class="cls-1" d="M550.947,25.832c2.4-.069,2.464,1.139,2.569,2.325C551.579,27.846,549.208,26.763,550.947,25.832Z" transform="translate(732.563 -1.792)"/>
    <path id="Path_359" data-name="Path 359" class="cls-1" d="M507.563,27.3c2.6-1.72,2.9,1.41,0,0Z" transform="translate(675.619 -1.86)"/>
    <path id="Path_360" data-name="Path 360" class="cls-1" d="M509.052,25.828c2.242-.128,4.294-.156,3.431,1.4C510.241,27.354,508.793,27.054,509.052,25.828Z" transform="translate(677.561 -1.788)"/>
    <path id="Path_361" data-name="Path 361" class="cls-1" d="M96.715,25.7,98,25.469l-.431-.7c1.993-.5,8.175-1.117,9.429-.468l-1.284.468,1.284.463C104.7,26.5,98.61,28.09,96.715,25.7Z" transform="translate(128.738 -1.661)"/>
    <path id="Path_362" data-name="Path 362" class="cls-1" d="M50.245,26.707c-1.051-.2-1.762-.6-1.713-1.4a9.608,9.608,0,0,1,4.292,0C52.718,26.191,49.979,25.635,50.245,26.707Z" transform="translate(64.597 -1.737)"/>
    <path id="Path_363" data-name="Path 363" class="cls-1" d="M279.384,23.324c.413,1.464-1.217,1.818-1.7,2.79-1.9.256-1.226-.886-2.576-.931C275.265,23.876,276.6,23.2,279.384,23.324Z" transform="translate(366.192 -1.608)"/>
    <path id="Path_364" data-name="Path 364" class="cls-1" d="M193.815,25.79c2.6-1.717,2.9,1.412,0,0Z" transform="translate(257.988 -1.751)"/>
    <path id="Path_365" data-name="Path 365" class="cls-1" d="M286.137,24.266c.73-1.657,2.117-.057,5.156-.465C289.8,25.108,289.042,24.237,286.137,24.266Z" transform="translate(380.878 -1.622)"/>
    <path id="Path_366" data-name="Path 366" class="cls-1" d="M222.5,24.179c-2.1-.973-1.832-.664-5.145-.465.86-1.08,2.949-1.5,6.007-1.394C223.468,23.153,222.31,23.3,222.5,24.179Z" transform="translate(289.323 -1.535)"/>
    <path id="Path_367" data-name="Path 367" class="cls-1" d="M183.747,24.248c-3.518-.507,3.056-1.943,1.723,0C184.7,23.965,183.931,23.691,183.747,24.248Z" transform="translate(243.19 -1.605)"/>
    <path id="Path_368" data-name="Path 368" class="cls-1" d="M417.084,21.136c.816-.955,1.065-2.214,3.434-2.323l.424.692,1.282.235c.366.886,1.851,1.17,1.716,2.324C421.637,23.178,419.373,21.443,417.084,21.136Z" transform="translate(555.182 -1.281)"/>
    <path id="Path_369" data-name="Path 369" class="cls-1" d="M417.451,17.624c.5-.968,1.8-1.506,2.576-2.325a6.4,6.4,0,0,0,2.56.466c.124,1.147.142,2.243-.853,2.793l-.862-.236-.842-.232C418.638,18.222,418.544,17.651,417.451,17.624Z" transform="translate(555.671 -1.025)"/>
    <path id="Path_370" data-name="Path 370" class="cls-1" d="M414.436,22.711c-.583-.923-5.107.29-4.282-1.394C412.6,21.225,414.833,21.256,414.436,22.711Z" transform="translate(545.824 -1.461)"/>
    <path id="Path_371" data-name="Path 371" class="cls-1" d="M445.4,19.813c1.266.242,2.154.691,3.424.928-2.168.371-3.254,1.339-5.991,1.4C443.6,21.317,444.9,20.782,445.4,19.813Z" transform="translate(589.457 -1.354)"/>
    <path id="Path_372" data-name="Path 372" class="cls-1" d="M344.254,20.316c3.161-.012,5.9.209,6,1.858C347.091,22.187,344.352,21.967,344.254,20.316Z" transform="translate(458.238 -1.39)"/>
    <path id="Path_373" data-name="Path 373" class="cls-1" d="M403.842,21.712a3.8,3.8,0,0,1,3.436-1.4C407.525,21.538,406.089,21.843,403.842,21.712Z" transform="translate(537.556 -1.39)"/>
    <path id="Path_374" data-name="Path 374" class="cls-1" d="M490.647,20.316h3.424v.93h-3.424Z" transform="translate(653.102 -1.39)"/>
    <path id="Path_375" data-name="Path 375" class="cls-1" d="M298.632,16.3c-.534,2.035-4.387,2.27-5.145,4.184-2.625-.746-4.676-1.8-5.138-3.719C291.965,15.986,293.659,16.657,298.632,16.3Z" transform="translate(383.822 -1.098)"/>
    <path id="Path_376" data-name="Path 376" class="cls-1" d="M325.126,17.3c2.667-.044,4.767.212,6.012.933C330.975,20.224,324.984,18.464,325.126,17.3Z" transform="translate(432.774 -1.171)"/>
    <path id="Path_377" data-name="Path 377" class="cls-1" d="M537.481,17.3H539.2v1.4a6.425,6.425,0,0,0-2.576-.468C536.782,17.858,537.481,17.773,537.481,17.3Z" transform="translate(714.298 -1.171)"/>
    <path id="Path_378" data-name="Path 378" class="cls-1" d="M464.664,17.807a7.98,7.98,0,0,0,3.427.465C468.364,19.095,463.3,19.1,464.664,17.807Z" transform="translate(618.204 -1.208)"/>
    <path id="Path_379" data-name="Path 379" class="cls-1" d="M437.06,18.228c-1.054-.826-1.669-1.888-3.424-2.329-.019-2.484,1.284-4.259,4.285-5.114C442.435,12.293,440.258,16.95,437.06,18.228Z" transform="translate(577.213 -0.696)"/>
    <path id="Path_380" data-name="Path 380" class="cls-1" d="M433.02,18.694c.147-.544-.191-.83-.86-.934.86-1.306,3.965-.048,4.294.465C436.186,18.859,434.309,18.614,433.02,18.694Z" transform="translate(575.25 -1.162)"/>
    <path id="Path_381" data-name="Path 381" class="cls-1" d="M371.231,15.148l-.431-.465-.434-.468c1.858-.387,2.933-1.2,6.01-.928C377.681,15.292,371.709,18.487,371.231,15.148Z" transform="translate(492.996 -0.874)"/>
    <path id="Path_382" data-name="Path 382" class="cls-1" d="M342.27,17.784c-3.888,1.551-5.655-1.152,0,0Z" transform="translate(450.793 -1.184)"/>
    <path id="Path_383" data-name="Path 383" class="cls-1" d="M467.107,17.654V15.8c2.963-.369,3.611.515,5.135.929C471.462,17.536,469.557,17.747,467.107,17.654Z" transform="translate(621.768 -1.055)"/>
    <path id="Path_384" data-name="Path 384" class="cls-1" d="M415.117,17.551c-2.809.124-1.821-1.8-4.285-1.859.3-.611,1.494-.732,1.716-1.4.977.169,2.163.821.851.933C414.483,15.921,416.9,16.627,415.117,17.551Z" transform="translate(546.86 -0.952)"/>
    <path id="Path_385" data-name="Path 385" class="cls-1" d="M334.322,16.729c.212-1.913,7.485-.605,6.86.93C338.185,17.738,335.693,17.534,334.322,16.729Z" transform="translate(445.017 -1.06)"/>
    <path id="Path_386" data-name="Path 386" class="cls-1" d="M299.619,15.795v1.392a5.318,5.318,0,0,1-4.285,0C295.849,16.228,296.663,15.426,299.619,15.795Z" transform="translate(393.12 -1.054)"/>
    <path id="Path_387" data-name="Path 387" class="cls-1" d="M417.572,16.639c-1-.694-3.555-.548-3.434-1.86a9.486,9.486,0,0,1,4.294,0C418.54,15.612,417.39,15.759,417.572,16.639Z" transform="translate(551.255 -0.969)"/>
    <path id="Path_388" data-name="Path 388" class="cls-1" d="M458.265,15.363h-2.573c-3.275-3.041.473-4.8,3.434-5.583C460.757,11.88,459.853,13.741,458.265,15.363Z" transform="translate(604.881 -0.623)"/>
    <path id="Path_389" data-name="Path 389" class="cls-1" d="M390.633,15.273c-3.769,1.709-3.252-1.288,0,0Z" transform="translate(516.463 -0.999)"/>
    <path id="Path_390" data-name="Path 390" class="cls-1" d="M254.329,15.037c.625-1.42-1.485-1.368-.86-2.791,1.765-.72,7.676-.72,9.429,0C261.553,14.646,258.707,13.9,254.329,15.037Z" transform="translate(337.237 -0.763)"/>
    <path id="Path_391" data-name="Path 391" class="cls-1" d="M427.369,11.922l-.422-.7-1.284.231c.622-1.421-.872-1.694-.853-2.79,2.012-.146,1.578-1.614,4.273-1.394,1.681.649,3.606,2.563,1.716,3.718l-1.284-.229.434.7C430.541,13,428.173,12.206,427.369,11.922Z" transform="translate(565.465 -0.439)"/>
    <path id="Path_392" data-name="Path 392" class="cls-1" d="M368.533,13.182v-1.4c1.124.17,1.333.82,2.564.928C370.969,13.264,369.531,13.111,368.533,13.182Z" transform="translate(490.556 -0.769)"/>
    <path id="Path_393" data-name="Path 393" class="cls-1" d="M432.139,4.756v1.4C429.626,6.836,429.626,4.072,432.139,4.756Z" transform="translate(572.713 -0.249)"/>
    <path id="Path_394" data-name="Path 394" class="cls-1" d="M461.019,1.253c-.813.949-1.755,1.839-2.573,2.792C456.161,3.216,458.443.976,461.019,1.253Z" transform="translate(608.988 0)"/>
    <path id="Path_395" data-name="Path 395" class="cls-1" d="M11.1,30.665c2.168,2.337-.48,4.63-.863,6.974-5.212.274-5.644,3.139-7.716,5.119,2.054,2.761,7.007,3.952,10.294,6.046l-1.3-.234-.422.7c-4.2.957-8.539-2.169-9.432,0l-1.294-.23c1.618,1.649.853,3.328,1.294,5.116l.853.232A2.1,2.1,0,0,1,4.24,56.246c.825-.017.653-.57.842-.932,2.657.517,2.31,2.649,6.01,1.394,1.121,2.184,2.03,4.479,5.145,5.581,5.55.224,4.121-3.341,9.429-3.252,1.009-.08.72-.848.853-1.4,2.07-.192,1.87.85,4.3.466l.429.7,1.287-.233c.977,1.826.173,1.731.851,3.721,3.392-1.717,7.3-1.1,12-1.4,1.9-.362-.163-2.875,3.431-2.324.511,1.585,2.368,2.444,2.576,4.187,2.34.34,1.725-.922,3.431-.929-1-3.785-1.753-7.8,4.285-8.835V50.667c1.872-.086,2.732.379,2.571,1.393,2.56-1.1,5.289-2.1,6.863-3.722,1.511,1.2,5.975.792,8.574,1.394-1,.692-1,1.176,0,1.862,1.245.251,4.427-.541,4.285.465,2.846-.166,1.352-2.683,1.716-4.187,1.359.039,3.275-.223,3.429.465l-.431.7,1.3.23c.152.4-.34.44-.865.465-.49,2.8,2.993,3.019,5.147,3.259,2.963-.411.767-3.618,5.147-3.259-3.478-3.649,3.6-6.663.853-9.763l.431-.7-1.284-.236c-.021-1.094,1.476-1.369.853-2.79a45.634,45.634,0,0,0,8.578,2.79c-.233.959-3.8.113-3.424,1.4,3.317,1.952,12.094-.343,12-3.256,1.986-1.249,5.886-1.459,6.853-3.253,4.063-.188,5.9.828,10.3.465l-.441.852,1.3.541c-1.056.665-3.278,1.059-4.294.465-1.016,2.1,2,2.015,4.294,2.326l-.431.7,4.282-.933-.431-.7c2.382-1.1,4.016.733,6.007.467,1.235,2.069-.289,2.882.853,4.652-3.1-2.173-7.581.547-12,1.394,4.686,1.445,10.4,1.091,12.861,2.79,3.459.073,7.112-1.384,7.718.931l-.434.7,2.576.154-.431-.853h.851c1.086-1.9,1.793-3.994,6-4.185,2.079,2.989,2.117,8.139,5.147,11.163,3.159.161,2.595-1.695,3.429-2.792,2.9.137,2.49,2.061,5.156,2.325,3.086.128,2.322-1.839,5.135-1.862l.434.7a16.324,16.324,0,0,1,.853-1.862l-1.287-.23c1.657-3.545-3.1-6.921.853-8.835,5.9.677,2.981,6.13,6.007,8.373l-1.532-.171,1.1,1.33,1.3.233h.855l-.434.7,1.294.236c-.326.79.662.877,1.7.928l-.422.7,1.284-.23c.727-.086.807.182.855.466,2.739.4,2.653-.732,4.28-.932,9.21,1.5,16.332-1.164,10.292-6.977,4.257-.614,7.383.607,10.294,0,1.448,1.611-1.59,4.279,4.282,4.187-1.991,1.462-1.091,2.085-1.711,3.723-1.706.775-1.086-.045-3.424,0,.289.933-.182,1.455-1.725,1.4l-1.282.23a2.093,2.093,0,0,1,.86,1.862l1.287.23.422.7,2.455.594-.305-.83c1.392-.135,1.478.438,2.578.462,2.692-.084,1.093-2.505,4.285-2.323-3.385-2.883,1.408-4.631-.851-7.909a9.552,9.552,0,0,0,4.282-.462c-.527-.416-1.035-.832,0-.933a7.82,7.82,0,0,0-2.569-.931l.422-.7-1.284-.234c-1.312-1.092,7.3-3.953,1.713-6.042V39.5h-.851c-.163-.4.324-.443.851-.468-.611-1.02-4.026-1.543-1.713-2.79h-3.434c-.478,2.066-3.133,2.948-5.135,4.187.354-5.969-13.52-.842-16.3-3.723l.434-.7-.434-.7c.1-1.337,3.66-.806,3.431-2.328,10.091.352,21.616-2.374,27.444.936,2.291-.185,4.2-1.64,5.989-1.862.844-.106,1.6.866,2.576.926,1.977.129,2.83-1.384,3.434-1.394,1.245-.013,2.012,1.264,3.429,1.394,3.347.319,5.965-1.872,10.294-.926a10.354,10.354,0,0,0,3.429-2.792l.434-.7-.434-.7c2.963.865,4.564-.22,7.718-.467.191-.821-.863-2.324,1.716-1.859v.932h1.713v.927c4.329,2.455,11.021-1.608,15.427.467,2.886-2.75,17.565,1.215,22.292-2.326l1.3-.465-1.3-.465c3.352-1.389,6.154,1.037,10.294,0-.364,1.662-2.159,2.553-4.287,3.257v.465l-1.294.233.431.7c-2.252,2.032-10.415.86-12.861,2.792-.832-.012-.669-.57-.851-.93-3.9.576,1.473,1.356-.865,2.326L297.9,33.22l-.431.7c-6.832.369-11.311.335-16.292,2.323-1.282-.539-2.1-1.345-4.28-1.4-2.9-.177-1.352,2.057-5.147,1.4l.431-.7-1.284-.234c-1.263-.883-5.618-.056-3.431.93l-1.3.235.434.7c-.375.57-1.093.955-2.571.931.231,1.178,3.681,2.634,0,3.255.767.823,3.48.6,2.571,2.325-1.891,1.258-2.846.128-5.147.932l-.988-.7a3.55,3.55,0,0,1-2.865,1.556l1.287.538c-2.371.579-2.716,2.25-4.285,3.256,10.772.04,23.439-1.95,31.717-.929.844,1.693-4.175.215-2.569,2.329-4.11.149-7.352-1.291-8.576.927-7.881-2.5-10.763,1.114-17.145,2.325v2.79c-1.284.543-3.506.579-4.294,1.4l-1.284-.233a21.506,21.506,0,0,0,1.716,1.4l-.434-.7c3.807-.047,6.422.555,6.863,2.324,3.476-.593,8.693-.245,12.005-.928-.145.541.182.827.853.928-2.4,1.512-4.7,1.565-7.723,1.863,1.091.677,4.273,1.36,6.87,1.394,4.075.058,9.73-1.936,12,0l-.434.7a8.82,8.82,0,0,1,3.009.7l1.839.018,6.3.061-1.282-.541c.266-1.1,2.977-.867,2.574-2.327,2.732-.4,2.657.733,4.285.932,2.385-.257,2.406-1.8,3.434-2.794l.429-.694-.429-.7a6.458,6.458,0,0,1,2.569-.462c-2.6-1.852-1.585-5.719,1.713-6.978,1.87.99,3.191,1.731.863,2.792,1.119-.168,1.35-.822,2.569-.932-.317-.791.671-.876,1.713-.928-1.352-1.512.056-1.721-.851-2.794-.69-.809-5.138-1.725-5.145-2.325,0,.289,5.56-3.028,10.28-3.721,4.282-.625,10.2-.541,12.863.467a11.272,11.272,0,0,0,2.576-1.861c-2.681-1.838-1.226-4.342-.853-6.978,4.478,1.341,8.686,1.717,12.008-.465,8.282,1.275,12.576.09,19.714.93,2.574.153,1.007,2.556,3.431,2.79.793-.494,3.161-.144,2.567-1.4,8.212,2.165,12.334.195,15.441-3.252,4.665.089,5.089,2.3,4.282,4.184,4.35-1.279,4.793.516,7.718-.932l1.291.236,1.284-.236c3.156.777,5.52,3.017,6.851,0l.431-.464-.431-.466c1.746-.763,3.422-1.554,3.431-3.252,4.257.6,4.217-1.126,7.725-.931.1.833-1.056.978-.862,1.861,6.879.468,9.676.312,14.574-.93l-.431.7c1.331-.862,3.364-.9,5.205-1.1l2.518-.528a6.828,6.828,0,0,1,.2-1.06,8.3,8.3,0,0,1,4.658-1.035,2.529,2.529,0,0,1,1.065-.6,41.721,41.721,0,0,0,4.359.134l-1.287-.23c8.261-.393,16.341-2.081,24.868-.932.988.689.988,1.172,0,1.861h4.287l-.434.851a94.169,94.169,0,0,1,10.082-.385,4.066,4.066,0,0,1,.641,1.162l.853.234c2.28,0,5.049-.261,5.142.931L492.52,34l.431.851c-3.424-.4-6.669.514-4.294,1.86l-.434.7.434.7c-6.942.4-11.483,2.861-17.145.928-3.105.336-2.455,2.7-6.007,2.794.786,1.272,3.009-.83,4.294.465.145,1.285-1.322,1.6-2.578.928l-.422-.463a2.323,2.323,0,0,1-.431,1.394h.851c6.851-1.225,15.182.363,21.439-.465.709-1.315-1.21-1.2-.853-2.325,6.345-.173,11.012-.39,17.143.466,1.935-.972,2.452-2.7,4.3-3.722l1.282.232-.434-.7c1.541.06,1.811-.568,3.431-.464-.911-4.645,13.562-6.319,19.724-6.045l-.436.7,1.289-.235c11.707.835,14.278.2,22.3-.929.842-1.855-2.569-1.4-1.713-3.257.965-1.025,3.762-1.051,6-1.394a1.827,1.827,0,0,1,.853,1.861c11.53-1.587,14.182,5.492,23.153,2.324,1.62,1.616,8.914,2.108,10.292,0,.226-1.518-1.014-2.238-3.431-2.324,5.438-1.856,6.191-6.026,2.571-9.3,1.455.172,1.618-.361,1.713-.93,5.415.32,4.254,4.208,10.294,4.186.019,2.492-6.4,1.489-6.01,4.186.364,1.045,4.553.011,5.145.929-.641,1.826-5.825,1.177-6,3.256.643,1.05,4.811.181,6.863.465-1.669,2.477,4.86,2.917,6.86,1.862l1.284.23.422-.7c2.021.146,3.219.735,6.007.465.259,1.226-1.189,1.526-3.431,1.4,2.751.834,8,.307,6.86,3.253,6-.743,9.056-.032,14.579.464.17-1.954-3.259-1.952-3.434-3.717a18.506,18.506,0,0,1,9.439-.465l1.275.231,1.294-.231c1.1.889,4.084.153,4.285,0l1.287-.546c-.814-.258-1.618-.433-2.436-.614l-1.849-.469.422,1.159h-1.706l-1.294-.231-1.275.231a2.051,2.051,0,0,1,1.706-1.856c-.564-.627-1.83-.869-3.429-.932l.429-.7-1.282-.232c-.147-1.318-1.573-1.937-1.718-3.255,3.853,1.165,9.3,1.466,12,3.255l-1.284.541a20.522,20.522,0,0,0,2.664.172,22.944,22.944,0,0,1,3.333.217l-.422-.464c.7-.087.851-.469,1.706-.466l.431.7,1.3.234c2.061.193,1.858-.849,4.282-.464a2.045,2.045,0,0,0,.853,2.325l-.424.7,1.287.231c-3,.39-3.634,2.067-5.147,3.258,3.135.685-.832,2.526,3.431,2.79-1.119,1.669.9,3.549-2.569,2.327,2.877,2,7.338-.472,5.135-3.255a74.063,74.063,0,0,1,11.147,2.79l-.422.7,2.569.466-.434-.7c2.243-.491,1.8-2.438,4.294-2.791,5.117.605,2.989-2.716,3.431-4.649l1.284.231.422-.7c2.035.139,1.6,1.611,4.294,1.393-3.66,1.94-1.023,6.685,0,8.837-.042-.073-1.552.058-1.713,0,1.054,1.413,2.953-.505,5.147,0a22.865,22.865,0,0,0,6.86-9.3c.063-1.591-5.224-.271-5.147-1.861,1.217-2.144,10.693-2.244,7.716-5.119.814-.53,6.888-.45,9.427-1.394l1.287.231a2.164,2.164,0,0,1,.546-1.535c2.1-.554,6.189-.731,6.315,1.073l1.294.232c1.629.2,1.543,1.329,4.285.929-4.016-1.17-.03-2.919,1.716-3.722,2.508.638,2.9,1.263,5.135,0l1.3.233L736.027,22.3l.424.463c-2.723.9-7.867-.184-10.282-.928,1.522-2.349-1.035-3.616,0-5.119-1.373-1.2-5.359-.708-7.716-2.323-12.812,1.839-33.216-.179-42.876-1.864,3.8-4.254,22.083-1.564,28.3,0,2.5.123,2.634-1.05,5.133-.928,12.124,1.775,26.038,2.426,36.866,3.723l-1.282.541c1.7.356,4.2.192,5.194,1.16a1,1,0,0,1-.1.388l11.2,3.417-.422-.859c5.348.427,8.655-.267,10.292-1.855,15.124,1.763,30.209,5.034,43.729,5.111l.986.7,1.585-.23c7.963,1.67,15.789,4.185,24.868,3.253.734.845,2.2,1.284,2.576,2.326,2.243-3.175-8.816-7.032.851-9.3-2.089-3.1,2.089-6.3,1.706-8.836l1.294.235-.434-.7c.268-.633,2.149-.386,3.434-.466,1.876,3.793-1.263,8.363,4.282,10.7.375.969-.58,1.226-.851,1.856,3.056,1.058,4.35.343,7.716,1.4a9.032,9.032,0,0,0,1.713,6.046c2.578-.651,6.229-.678,6.863.932l-1.289.54,10.026-.185,3.077-.058,3.182,3.19.441-.7c1.494-.428,2.967-.869,2.557-2.329,1.214-.038,2.443-.073,2.576.467l-1.152.465,1.152.461c-.546,1.692,1.774,1.83,4.285,1.863l-.431.857a13.736,13.736,0,0,0,1.534-.24,18.057,18.057,0,0,1,4.476-.693l-.424-.851c1.611-.056.592-1.538,2.569-1.4l.431.7,1.275-.235c1.284.206-.333.6,0,1.4,3.7.6,2.711-1.318,4.3-1.861l1.284.461,1.284-.461c1.839.7-.615,1.139.86,2.323,2.807-.027,3.275-1.323,6.851-.927.305.607,1.513.729,1.713,1.393.776,1.5-2.788.654-3.429,1.394-.17,2.3,2.424,4.725-.844,6.048-2.643-.855-3.86.418-6.007-.465-.681-1.606.795-2.046,2.569-2.324-1.485-.832-3.837-2.082-5.145-.465l-1-.7-1.573.23c.154-.394-.336-.441-.863-.464l.431-.7-2.569,1.4,1.284-.236c-.438,2.551-3.956,3.432-4.28,6.047l-1.289-.232.424.7c-1.119,2.88,1.217,4.741-3.431,5.581.212.82,1.478,1.06,3.431.931.72,2.605-1.38,4.4,0,6.046,3.967-1.057,2.788-3.156,6-6.046,4.082.824,4.2-.458,7.723-.931.107.834-1.056.984-.86,1.863.536-.645,3.305-.074,3.443-.932l1.27.234.3-.935-1.569.236c.937-2.218-1.107-2.816-2.581-3.722l1.284-.541a22.189,22.189,0,0,1-2.145-.855v.935c-2.138.069-2.655-.735-4.285-.935.182-.77,6.371-1.865,6,0,2.338.042,1.727-.774,3.441,0,.958-.416-.054-1.038,1.7-1.857,2.916.371,5.208,1.079,3.434,2.793l-.429.7,1.282-.235v1.86c.594.623,2.291-.229,4.294.465,2.347-1.054,3.212-2.91,5.147-4.187-3.41-1.693-11.537-.432-12-4.649,2-.148,3.21-.735,5.989-.465.606-1.721-3.66-.8-4.285-1.862.107-1.4,4.86-1.488,6.01-.928,3.937-2.108,3.879-4.715,6.853-6.512a13.473,13.473,0,0,0,6.858,2.329c-1.408,2.029-3.814,3.51-7.723,4.184.075,1.736.972,1.324,0,2.79,4.044-.49,9.793,1.144,15.437,0,.746,1.8-3.741.76-2.574,2.791.918,1.52,3.965,1.877,5.145,3.254,1-1.322,5.658-.657,6.01-2.323,2.191.045,1.371,1.73,2.569,2.323,4.245.286,5.492-1.051,8.576-1.394-.392-1.181-3.7-.782-4.294-1.861,1.669-.961,5.236-.887,7.725-1.394a2.038,2.038,0,0,0,.86,2.326c.923-.116.573-.924,1.716-.932l1.275.23.287-1.391-1.562.232V40.9l1.275.232c-.9-.3-1.657-.384-2.308-.593-.536-.369-.529-.748-.259-1.264L973.1,39.5c-1.284-1.945,4.417-4.362,5.135-.932,1.133-.56,1.352-.18,2.578,0-.634-1.36-2.072-2.286-3.434-3.256,1.429-1.485,2.636-.6,3.434-1.858,1-1.586-1.842-3.178-1.716-4.188.326-2.616,2.184-3.632,4.282-6.047.319-.789-.66-.876-1.711-.928,1.1-.8,1.781-1.829,4.294-1.86,1.634.815,3.072,1.74,3.42,3.256-1.117-.559-1.34-.182-2.56,0,.641,1.205,2.643,3.074.851,4.185,2.089-.728,5.091-.963,6.851-1.861-.037-1.524-2.434-1.781-1.713-3.721,2.681-1.623,13.693-4.153,16.29-.465,3.786-1.12,2.128-1.9,2.578-3.256,3.879-.984,5.338,1.7,6,.932.643,2.993-9.208,4.307-6.86,9.765,2.2-.353,2.981-1.483,2.571-3.255,2.128-.77,3.923,1.441,4.292-1.4,4.037.174,4.315.589,5.991-.928-.851-1.552-4.452-1.613-5.135-3.256,3.257.935,4.2-2.841,5.135-4.652,5.709-.935,4.879-5.413,10.289-6.513,2.781-.57.653,1.509,3.434.934.4,3.163-3.807,3.827-6.851,5.117,1.734,3.152-4.525,9.323,7.709,9.3v1.863c1.876.294,2.741-1.319,2.576.463,2.567-.308-.825-.992,0-1.86h2.578v.931a13.4,13.4,0,0,1,2.124-.579,12.136,12.136,0,0,0,1.305-.351h-1.723c1.089-1.891,6.266-1.563,6-4.183-4.026-1.355-6.4,1.637-9.422,2.322-2.471-3.983,2.082-6.08,7.718-6.974-.709,1.314,1.208,1.206.853,2.325,1.543.058,1.811-.57,3.429-.462v2.323c4.075-.218.963.578,2.576,1.394.578-3.248,4.872-4.486,7.718-6.51,1.83-.219,1.629.664,1.706,1.392l-1.287.546.431.855c-1.138,2.714-1.839,7.351-7.714,6.042.077,1.51,5.117.328,4.285,2.328-1.641.2-3.693.167-3.42,1.394l-1.289-.235a2.863,2.863,0,0,1-.469,1.59c-.354.078-.72.157-1.254.271l1.291.235c.154.394-.34.438-.86.464l-1.065-.582a6.533,6.533,0,0,1-1.079.815l1.294.233v2.323c7.686-1.254,7.159-6.962,11.136-10.23,1.926.2,2.741,1,4.292,1.4,4.383-1.344,8.4-2.883,10.28-5.581,6.711.353,7.264,1.266,13.726,1.862-1.047,2.741,3.373,2.516,5.145,3.719h-.851v.465c-2.837,1.569-8.709,1.482-11.145,3.257,7.466,1.355,10.889-3.667,19.714-2.326l.431.7,1.287-.231a1.846,1.846,0,0,1,.86,1.861c-1.476.9-3.7,1.41-4.292,2.79l-1.277.542c.855.294,1.611.656,2.562,1.086l-.422-.7c1.07-.115.86-.922,0-.929,1.443-.923,4.914-.742,6-1.861-.075.819,2.287,1.845,4.292,2.79-3.219,1.3.557,2.272.853,4.186,7.072,1.4,6.842-1.619,12-3.253,2.021.143,1.6,1.614,4.294,1.4,5.28-.527,3.4-1.927,6.86-4.653,1.59.379,3.457.6,4.294,1.4-.385,1.344-1.823,2.119-4.294,2.323.937,1.2,4.6.915,7.714.935,1.611.821-1.023,1.355.851,2.323,4.7-.524,4.767,1.447,7.728,1.862.881,1.56-2.674.723-4.3.928,1.58,2.241,5.7,1.025,8.578,1.862-2.089,3.107-2.156,4.95-3.431,7.908a46.842,46.842,0,0,0-7.718,0c.727,1.623,5.762,2.946.855,3.718.737,1.366,2.758-.277,4.292,0a2.045,2.045,0,0,0-.86,2.328c-3.019-.661-5.483,1.3-3.431,1.858-.862,1.135-3.457-1.905-5.147-.462-.469,1.62,5.76,1.982,6.01.462,1.877.07,1.837,1.172,1.713,2.329,2.762-.516,2.951-2.433,6.007-2.791-.884-2.419-.613-3.949,2.56-5.119l1.007.7.69-1.123,1.315-2.132-1.3.234c-.137-1.474,2.289-1.557,1.716-3.257-.259-.631-2.149-.388-3.434-.465a20.3,20.3,0,0,1,7.723-3.721c-.977-4.248,4.235-5.148,3.422-9.3,2.627.019,2.693-.877,6.01-1.4.564-1.7-1.86-1.784-1.718-3.257a20.9,20.9,0,0,1,10.287.467c-1.825,3.658,2.73,2.428,5.145,4.186-1.863,1.156-5.5,1.356-6.851,2.789.086,1.194,3.191.75,4.282,1.4.606,2.058-2.184,3.262.853,4.187-1.967.453-3.233-.634-6.851-.464l-.434-.7-.851,1.394,1.284-.233c.34,3.083-2.683,3.168-1.716,5.579-3.947-.432-3.538,1.491-5.147,2.327a18.93,18.93,0,0,1,9.432,0l1.294.234,1.275-.234c2.415.552.462,3.474,4.3,3.256-1.555.711-2.627,1.675-6.007,1.4-1.9.422-1.69,3.208-4.287,1.86-.135,1.155,1.352,1.441,1.727,2.325,3.944-2.194,11.054-2.684,14.574-5.117-.45-2.167-1.685-4.148.851-5.582l1.287.235c-1.5-1.535-.585-3.094,1.713-4.184l-1.285.232c-.8-1.817,4.448-3.993,6.849-5.582-.133-.545-1.55-.394-2.567-.466.746-.68.688-1.8,3.431-1.394l-.433.7,1.282-.234c1.163,1.878,6.662.158,5.159,1.86,3.746-1.5,10.264.711,12.863-1.86,5.156,1.152,9.506,3.354,7.7,6.978l-1.285-.232.431.694c-7.56.383-7.229-3.524-12.861-4.186-1.312,3.023,4.534,4.372,1.716,8.837,3.469,1.419,9.861,2.456,12.858.933-1.9-.949-2.2-2.8-.86-4.653l1.294.232-.433-.7a17.3,17.3,0,0,0,6.863-1.394l.431.7a3.438,3.438,0,0,1,.433-1.861l-.863.234c-1.391.133-1.478-.44-2.569-.465,4.7-2.365-1.044-4.7-1.725-6.973,2.723-.08,2.865,1.233,6.007.927a2.048,2.048,0,0,1,1.706-2.323c2.508-.057,3.539,2.718.862,2.789a2.023,2.023,0,0,1-.862,2.324c6.229-1.112,12.036.945,17.152-.93,6.373.134,6.87,2.546,11.147,2.794,2.212,1.2-4.469,1.921,0,3.255-2.3,1.9-8.961,2.152-8.578,4.183-2.795.03-3.266,1.322-6.863.931.534.415,1.044.831,0,.933-4.007-.058.939-.681,0-1.864-.2-1.2-1.464.638-3.422,0l.424-.851a60.578,60.578,0,0,1-7.714,1.241l1.285.541c.825,1.159-3.052,2.807.86,2.794-4.571,1.082-8.231,2.666-10.282,5.115l-1.294.231,3.431.465-.422-.7c3.352.189,5.443-1.207,6.849.465.928-.119.588-.927,1.716-.932-.233-.96-3.8-.112-3.431-1.4-.7-1.775,1.83-1.8,3.431-2.325l.431.7,1.287-.234c3.823.306,1.553,2.889,2.574,3.723,1.471-1.634,3.415-2.3,3.436-5.583,1.513-.883,4.257-1.1,5.991-1.86,3.725,1.082,2.252,4.981,5.145,6.512-2.851,1.243-5.762,2.454-6,5.114.308.612,1.506.731,1.716,1.4,1.879-.069,1.841-1.17,1.716-2.323,5.194.639,5.175-1.536,5.147-3.723,3.091-.643,7.8-1.3,6-3.256,2.874-.231,5.149-.783,7.786-1.139V91.808H0V34.859C6.32,36.6,4.9,30.485,11.1,30.665Z" transform="translate(0 -0.578)"/>
    <path id="Path_396" data-name="Path 396" class="cls-1" d="M14.988,58.436c2.464-.1,4.352.116,5.135.931l-1.284.231.431.7c-.73.693-2.76.675-4.282.93l-.434-.7-1.282.233C12.629,59.331,15.62,59.867,14.988,58.436Z" transform="translate(17.545 -4.166)"/>
    <path id="Path_397" data-name="Path 397" class="cls-1" d="M44.109,40.943l-.424.7,1.287.236c-.737.372-.508,1.273-1.713,1.394l-.863-.811-.853.811c-1.009-.7-2.476-1.139-2.578-2.327l1.294.236c-1.867-1.962.881-4.514,3.644-5.8a8.258,8.258,0,0,1,1.515.044c.275.057.552.114.842.171l-5.3,4.923C42.4,40.457,44.225,40.172,44.109,40.943Z" transform="translate(51.865 -2.487)"/>
    <path id="Path_398" data-name="Path 398" class="cls-1" d="M43.37,46.673c-2.62.336-2.522-.8-5.138-.465V43.883c2.415-.385,2.212.655,4.285.466l-.434.7,1.287.232Z" transform="translate(50.891 -3.101)"/>
    <path id="Path_399" data-name="Path 399" class="cls-1" d="M112.848,38.591c-9.047.212-16.052,4-25.712,2.325-5.709,1.622-19.213,3.891-23.162,0,2.923-.429,5.031-1.3,9.439-.928v-.467l-.422-.221c-1.119-.326-3.669.121-3.007-1.174,1.263.243,2.163.687,3.429.931l-.434.234a1.215,1.215,0,0,1,.865.465l.434-.236h.842c2.613-2.224,6.59-1.954,13.733-2.324,3.739-.509,7.972-3.112,12.861-1.858a6.833,6.833,0,0,1,.856.93c1.541.031,2.375-1.024,3.429-.93.394.034.881.812,1.706.93,1.944.264,5.693-.6,6.01.928l-1.289.546Z" transform="translate(85.156 -2.46)"/>
    <path id="Path_400" data-name="Path 400" class="cls-1" d="M116.819,37.87l.434.7,1.284.23v.93c-1.392.133-1.48-.439-2.569-.464l.422-.7-1.287-.235C115.122,37.885,116.157,37.977,116.819,37.87Z" transform="translate(153.214 -2.669)"/>
    <path id="Path_401" data-name="Path 401" class="cls-1" d="M132.509,63.843l.431.466.434.462c-1.245.686-5.616.686-6.87,0,2-.617,1.657-2.516,5.156-2.324l-.434.7,1.284.229C132.509,63.535,132.509,63.687,132.509,63.843Z" transform="translate(168.39 -4.458)"/>
    <path id="Path_402" data-name="Path 402" class="cls-1" d="M172.938,37.841c1.965-.924.937.119,2.569.465l-.434.465.434.466Q172.157,39.654,172.938,37.841Z" transform="translate(230.003 -2.64)"/>
    <path id="Path_403" data-name="Path 403" class="cls-1" d="M220.422,39.266a31.81,31.81,0,0,1-6.007,2.327c-1.247-.406-2.711-.7-2.571-1.864l.436-.7-.436-.7c3.914.722,3.627-.365,7.718-.465l-.424.853Z" transform="translate(281.973 -2.669)"/>
    <path id="Path_404" data-name="Path 404" class="cls-1" d="M230.035,30.311c4.243-.337,5.49-.192,8.567-.464-.818.95-1.744,1.84-2.569,2.791h-6l.42-.7-1.282.233C228.809,31.2,229.767,30.937,230.035,30.311Z" transform="translate(304.944 -2.085)"/>
    <path id="Path_405" data-name="Path 405" class="cls-1" d="M270.56,31.792c-.862,1.082-2.951,1.5-5.986,1.394l-.434-.7-.441-.7C266.169,31.114,268.754,30.494,270.56,31.792Z" transform="translate(351.012 -2.171)"/>
    <path id="Path_406" data-name="Path 406" class="cls-1" d="M271.053,27.841c-.212,1.586-1.83,2.415-5.147,2.323v-1.4l.863-.465.853-.463Z" transform="translate(353.948 -1.939)"/>
    <path id="Path_407" data-name="Path 407" class="cls-1" d="M288.679,30.849c1.359.967,6.814-.282,6.007,1.862l-.429.463.429.467c-2.569.305.818.993,0,1.862-3.1-.872-2.154-1.509-6.86-.935l.434-.694-1.294-.232C286.285,32.029,287.926,31.673,288.679,30.849Z" transform="translate(381.765 -2.158)"/>
    <path id="Path_408" data-name="Path 408" class="cls-1" d="M293.977,40.169v-1.83l-4.711-.728c1.8-.377,3.634.246,5.49.255.154.189.3.385.51.676l.429-.7a8.048,8.048,0,0,0,3.434.465,1.829,1.829,0,0,0-.863,1.862C296.637,41.042,296.117,40.22,293.977,40.169Z" transform="translate(385.043 -2.641)"/>
    <path id="Path_409" data-name="Path 409" class="cls-1" d="M393.641,21.3c.019,2.027-2.744,2.547-3.434,4.184l-1.284-.232-.434.7C386.643,23.663,387.737,20.108,393.641,21.3Z" transform="translate(516.03 -1.445)"/>
    <path id="Path_410" data-name="Path 410" class="cls-1" d="M391.009,30.347c1.534-.057,1.8.569,3.429.465.345,1.123-1.571,1.013-.86,2.324L392,32.9l-.993.7C388.452,32.89,390.121,31.537,391.009,30.347Z" transform="translate(518.662 -2.121)"/>
    <path id="Path_411" data-name="Path 411" class="cls-1" d="M467.708,17.72c-.5,1.279-2.126,1.941-2.571,3.257h-4.282c-.375-.889-2.455-.84-1.713-2.323l-.436-.7-.429-.7C462.045,16.491,465.8,16.145,467.708,17.72Z" transform="translate(610.013 -1.12)"/>
    <path id="Path_412" data-name="Path 412" class="cls-1" d="M478.642,23.325c1,.7,2.473,1.139,2.571,2.324-1.79.269-2.445,1.153-5.145.931l.431-.7-1.282-.235C474.856,24.057,477.782,24.253,478.642,23.325Z" transform="translate(632.523 -1.61)"/>
    <path id="Path_413" data-name="Path 413" class="cls-1" d="M558.567,48.592c-3.189,2.124-7.7.46-11.152,1.4-1-2.039,1.571-5.053,4.282-6.51-.366-.573-1.082-.955-2.569-.93.891-1.226,3.4-1.565,4.292-2.793l.855.235.86-.235c1.667-.234,1.553-1.437,3.492-1.526v9.829c-.163-.055-.333-.1-.49-.163Z" transform="translate(728.373 -2.695)"/>
    <path id="Path_414" data-name="Path 414" class="cls-1" d="M267.748,25.811c3.163-1.159,4.709,1.994,0,0Z" transform="translate(356.4 -1.771)"/>
    <path id="Path_415" data-name="Path 415" class="cls-1" d="M396.493,33.6a2.922,2.922,0,0,1-2.585-2.325c1.14-.166,1.364-.82,2.585-.932,1.315.245.049.487-.872.465.023.923,2.35.592,1.713,1.862C396.5,32.684,396.677,33.243,396.493,33.6Z" transform="translate(524.332 -2.121)"/>
    <path id="Path_416" data-name="Path 416" class="cls-1" d="M163.273,32.443c-2.415-1.083-3.373-.542-7.723-.932-1.716-.947.382-.91.862-1.859-2.273-.787-8.124.377-8.569-1.4l.853-.463.853-.466a37.2,37.2,0,0,1,15.437,1.861l-.431.851,1.284.543C166.1,31.8,162.515,30.947,163.273,32.443Z" transform="translate(196.794 -1.891)"/>
    <path id="Path_417" data-name="Path 417" class="cls-1" d="M407.837,23.994l.434.7c1.7.628,1.828,2.758.849,4.185l-1.566-.235-1,.7c-1.387-.957-1.3-2.706-3.438-3.257-.305-1.887,4.093-4.532,6-2.327l1.289-.231C410.291,24.229,409.149,24.2,407.837,23.994Z" transform="translate(536.563 -1.58)"/>
    <path id="Path_418" data-name="Path 418" class="cls-1" d="M164.819,26.76c-1.112,1.435-1.119-1.337.86-.931C167.311,26.23,164.761,26.108,164.819,26.76Z" transform="translate(218.391 -1.789)"/>
    <path id="Path_419" data-name="Path 419" class="cls-1" d="M482.3,20.7c-2.48-.255,1.312-.724.863-1.394C486,19.767,482.2,20.232,482.3,20.7Z" transform="translate(640.863 -1.317)"/>
    <path id="Path_420" data-name="Path 420" class="cls-1" d="M428,19.987v-.466l.851-.465a2.761,2.761,0,0,1-2.574-1.627l1.758,1.11a7.842,7.842,0,0,0,1.678-2.737c3.208.038,2.445.52,5.147,0C434.744,18.373,431.079,19.027,428,19.987Z" transform="translate(567.416 -1.061)"/>
    <path id="Path_421" data-name="Path 421" class="cls-1" d="M229.441,29.582a40.613,40.613,0,0,1-12.863,0c-.191-1.705-1.177-1.787,0-3.257a87.566,87.566,0,0,1,14.576.465C228.8,27.923,227.063,28,229.441,29.582Z" transform="translate(287.531 -1.82)"/>
    <path id="Path_422" data-name="Path 422" class="cls-1" d="M412.677,34.908c1.571.782.844,1.99,1.562,2.959l-2.856-3.257C411.8,34.755,412.236,34.8,412.677,34.908Z" transform="translate(547.593 -2.432)"/>
    <path id="Path_423" data-name="Path 423" class="cls-1" d="M406.655,35.111,405.518,37.9A3.122,3.122,0,0,1,406.655,35.111Z" transform="translate(539.736 -2.468)"/>
    <path id="Path_424" data-name="Path 424" class="cls-1" d="M134.837,35.867a28.706,28.706,0,0,1-3,.076Z" transform="translate(175.491 -2.523)"/>
    <path id="Path_425" data-name="Path 425" class="cls-1" d="M168.554,31.352l-.851,1.16A2.061,2.061,0,0,1,168.554,31.352Z" transform="translate(223.23 -2.194)"/>
    <path id="Path_426" data-name="Path 426" class="cls-1" d="M180.817,31.832l-3-.234A12.946,12.946,0,0,1,180.817,31.832Z" transform="translate(236.693 -2.211)"/>
    <path id="Path_427" data-name="Path 427" class="cls-1" d="M84.745,27.923l-20.586,1.55C70.791,28.008,77.873,28.382,84.745,27.923Z" transform="translate(85.402 -1.944)"/>
    <path id="Path_428" data-name="Path 428" class="cls-1" d="M61.456,29.345l-4.285.465C58.607,29.537,60.034,29.5,61.456,29.345Z" transform="translate(76.101 -2.048)"/>
    <path id="Path_429" data-name="Path 429" class="cls-1" d="M301.475,28.595a20.765,20.765,0,0,1-2.1-.754Z" transform="translate(398.505 -1.939)"/>
    <path id="Path_430" data-name="Path 430" class="cls-1" d="M497.222,27.946c-1.713-.19-2.107-1.063-2.818-1.824Z" transform="translate(658.103 -1.813)"/>
    <path id="Path_431" data-name="Path 431" class="cls-1" d="M495.247,26.046l-1.476-.967A3.075,3.075,0,0,1,495.247,26.046Z" transform="translate(657.26 -1.737)"/>
    <path id="Path_432" data-name="Path 432" class="cls-1" d="M110.486,25.559l-23.153.466C95.145,25.682,102.8,24.829,110.486,25.559Z" transform="translate(116.249 -1.751)"/>
    <path id="Path_433" data-name="Path 433" class="cls-1" d="M114.72,25.272l-14.145-.463C105.272,24.027,110.053,25.141,114.72,25.272Z" transform="translate(133.876 -1.698)"/>
    <path id="Path_434" data-name="Path 434" class="cls-1" d="M80.345,26.3l8.143-.465C86.017,26.526,83.093,26.286,80.345,26.3Z" transform="translate(106.948 -1.792)"/>
    <path id="Path_435" data-name="Path 435" class="cls-1" d="M205.035,24.308l6-.23C209.233,24.69,207.028,24.205,205.035,24.308Z" transform="translate(272.923 -1.664)"/>
    <path id="Path_436" data-name="Path 436" class="cls-1" d="M191.431,23.824l-2.581.934A20.366,20.366,0,0,1,191.431,23.824Z" transform="translate(251.379 -1.646)"/>
    <path id="Path_437" data-name="Path 437" class="cls-1" d="M200.13,22.32l-1.718.7C198.976,22.67,199.142,22.291,200.13,22.32Z" transform="translate(264.107 -1.536)"/>
    <path id="Path_438" data-name="Path 438" class="cls-1" d="M418.738,19.487l.42-.928A1.845,1.845,0,0,1,418.738,19.487Z" transform="translate(557.384 -1.262)"/>
    <path id="Path_439" data-name="Path 439" class="cls-1" d="M372.752,14.8,368.9,17.121C369.675,16.178,371.44,15.494,372.752,14.8Z" transform="translate(491.045 -0.988)"/>
    <path id="Path_440" data-name="Path 440" class="cls-1" d="M424.99,12.934l1.716-1.4C426.494,12.177,426.034,12.518,424.99,12.934Z" transform="translate(565.706 -0.751)"/>
    <path id="Path_441" data-name="Path 441" class="cls-1" d="M426.828,11.037l4.655,1.08A19.1,19.1,0,0,1,426.828,11.037Z" transform="translate(568.152 -0.714)"/>
    <path id="Path_442" data-name="Path 442" class="cls-1" d="M6.656,54.453,4.94,51.666A3.2,3.2,0,0,1,6.656,54.453Z" transform="translate(6.576 -3.674)"/>
    <path id="Path_443" data-name="Path 443" class="cls-1" d="M19.392,60.637l-3.41-.744C17.642,60.021,20.458,59.569,19.392,60.637Z" transform="translate(21.274 -4.273)"/>
    <path id="Path_444" data-name="Path 444" class="cls-1" d="M13.4,62.553l.853-1.858A14.84,14.84,0,0,1,13.4,62.553Z" transform="translate(17.842 -4.332)"/>
    <path id="Path_445" data-name="Path 445" class="cls-1" d="M40.371,52.153H36.94A7.562,7.562,0,0,1,40.371,52.153Z" transform="translate(49.171 -3.696)"/>
    <path id="Path_446" data-name="Path 446" class="cls-1" d="M39.884,44.991l1.287-1.976C41.381,43.69,40.6,44.492,39.884,44.991Z" transform="translate(53.09 -3.044)"/>
    <path id="Path_447" data-name="Path 447" class="cls-1" d="M65.875,38.05l-9.441-.774C59.714,36.807,62.847,37.582,65.875,38.05Z" transform="translate(75.12 -2.615)"/>
    <path id="Path_448" data-name="Path 448" class="cls-1" d="M80.345,55.887l4.28-3.719C83.909,53.534,83.767,55.85,80.345,55.887Z" transform="translate(106.948 -3.711)"/>
    <path id="Path_449" data-name="Path 449" class="cls-1" d="M81.45,58.111a9.565,9.565,0,0,1,1.7-.927Z" transform="translate(108.418 -4.076)"/>
    <path id="Path_450" data-name="Path 450" class="cls-1" d="M98.855,49.156a14.106,14.106,0,0,1-3.431,1.863Z" transform="translate(127.019 -3.491)"/>
    <path id="Path_451" data-name="Path 451" class="cls-1" d="M114.309,30.1l-4.723.231A26.4,26.4,0,0,1,114.309,30.1Z" transform="translate(145.87 -2.102)"/>
    <path id="Path_452" data-name="Path 452" class="cls-1" d="M117.619,24.97c3.1.375,5.483-.958,8.569-.648l-10.714,3.259C116.343,26.772,116.171,25.57,117.619,24.97Z" transform="translate(153.708 -1.679)"/>
    <path id="Path_453" data-name="Path 453" class="cls-1" d="M144.7,26.272l-20.586-.7A158.875,158.875,0,0,1,144.7,26.272Z" transform="translate(165.209 -1.767)"/>
    <path id="Path_454" data-name="Path 454" class="cls-1" d="M114.182,38.625h3.434A9.776,9.776,0,0,1,114.182,38.625Z" transform="translate(151.988 -2.724)"/>
    <path id="Path_455" data-name="Path 455" class="cls-1" d="M128.529,63.132a8.714,8.714,0,0,1,1.713-.932Z" transform="translate(171.085 -4.441)"/>
    <path id="Path_456" data-name="Path 456" class="cls-1" d="M213.489,29.734c2.5-.647,5.229.441,7.711-.145l-11.565,2.672C211.321,31.66,212.079,30.528,213.489,29.734Z" transform="translate(279.047 -2.061)"/>
    <path id="Path_457" data-name="Path 457" class="cls-1" d="M217.508,38.462l-2.541.3A6.7,6.7,0,0,1,217.508,38.462Z" transform="translate(286.143 -2.712)"/>
    <path id="Path_458" data-name="Path 458" class="cls-1" d="M216.057,38.437l2.6-.315A6.434,6.434,0,0,1,216.057,38.437Z" transform="translate(287.594 -2.687)"/>
    <path id="Path_459" data-name="Path 459" class="cls-1" d="M215.03,39.106l-5.264.406C211.549,39.28,213.141,38.455,215.03,39.106Z" transform="translate(279.22 -2.741)"/>
    <path id="Path_460" data-name="Path 460" class="cls-1" d="M219.991,40.594l-1.713-.464A7.168,7.168,0,0,1,219.991,40.594Z" transform="translate(290.551 -2.834)"/>
    <path id="Path_461" data-name="Path 461" class="cls-1" d="M228.573,33.5a10.321,10.321,0,0,1,2.571-1.4Z" transform="translate(304.254 -2.249)"/>
    <path id="Path_462" data-name="Path 462" class="cls-1" d="M264.381,32.6l-.862,1.861A2.789,2.789,0,0,1,264.381,32.6Z" transform="translate(350.771 -2.285)"/>
    <path id="Path_463" data-name="Path 463" class="cls-1" d="M275.174,31.354a9.312,9.312,0,0,1,2.807-.256l-3.429,1.861C274.757,32.65,274.6,31.909,275.174,31.354Z" transform="translate(365.457 -2.175)"/>
    <path id="Path_464" data-name="Path 464" class="cls-1" d="M311.966,21.443l-1.284-.232c.937.775.73,1.55,0,2.324V21.681c-6.94-3.592-15.973.072-22.724-2.563-2.366,1.356-4.145.922-6.86,1.4,1.716.515,3.182.208,6,.928.89,2.191-1.977,2.341-3.431,3.256-3.965-1.327-10.054-1.674-13.716,0l-1.284-.232-.431.7A8.081,8.081,0,0,0,264.8,24.7c5.693-3.266-.737-13.109,8.578-14.416.469,6.736,15.087,5.428,24.859,5.117l-.42.7,1.28-.232c3.086,1.608,7.275.089,12.863.928.93,1.458-.988,3.316,3.434,2.328C315.761,20.71,312.828,20.517,311.966,21.443Z" transform="translate(352.48 -0.66)"/>
    <path id="Path_465" data-name="Path 465" class="cls-1" d="M266.354,27.03l.249-1.448A2.449,2.449,0,0,1,266.354,27.03Z" transform="translate(354.545 -1.774)"/>
    <path id="Path_466" data-name="Path 466" class="cls-1" d="M267.988,28.339l-3,.235A9.76,9.76,0,0,1,267.988,28.339Z" transform="translate(352.729 -1.974)"/>
    <path id="Path_467" data-name="Path 467" class="cls-1" d="M278.969,16.461c1.357-.561,2.154-.885,3-1.162Z" transform="translate(371.337 -1.025)"/>
    <path id="Path_468" data-name="Path 468" class="cls-1" d="M284.484,24.541l1.713-.463A7.037,7.037,0,0,1,284.484,24.541Z" transform="translate(378.678 -1.664)"/>
    <path id="Path_469" data-name="Path 469" class="cls-1" d="M286.563,24.577l-3.641,5.533C283.614,28.13,281.61,25.7,286.563,24.577Z" transform="translate(376.598 -1.701)"/>
    <path id="Path_470" data-name="Path 470" class="cls-1" d="M285.22,34.592a9.685,9.685,0,0,1,2.445-.218Z" transform="translate(379.657 -2.414)"/>
    <path id="Path_471" data-name="Path 471" class="cls-1" d="M286.269,34.355l2.7-.246A10.14,10.14,0,0,1,286.269,34.355Z" transform="translate(381.054 -2.395)"/>
    <path id="Path_472" data-name="Path 472" class="cls-1" d="M290,33.319l6.429-.463A23.53,23.53,0,0,1,290,33.319Z" transform="translate(386.023 -2.304)"/>
    <path id="Path_473" data-name="Path 473" class="cls-1" d="M294.846,34.109l1.487,1.608C295.681,35.186,294.338,34.915,294.846,34.109Z" transform="translate(392.321 -2.395)"/>
    <path id="Path_474" data-name="Path 474" class="cls-1" d="M351.084,23.337c1.872-.295,3.711.5,5.485.439l-6.742,1.172C350.2,24.366,350.392,23.682,351.084,23.337Z" transform="translate(465.657 -1.606)"/>
    <path id="Path_475" data-name="Path 475" class="cls-1" d="M364.911,11.5l-1.711-.465A7.051,7.051,0,0,1,364.911,11.5Z" transform="translate(483.457 -0.714)"/>
    <path id="Path_476" data-name="Path 476" class="cls-1" d="M378.75,33.1l.613-1A1.085,1.085,0,0,1,378.75,33.1Z" transform="translate(504.155 -2.249)"/>
    <path id="Path_477" data-name="Path 477" class="cls-1" d="M387.843,34.417l.853-8.835C388.456,28.472,389.041,31.558,387.843,34.417Z" transform="translate(516.259 -1.774)"/>
    <path id="Path_478" data-name="Path 478" class="cls-1" d="M390.949,34.73l-.291-1.625A5.335,5.335,0,0,1,390.949,34.73Z" transform="translate(520.006 -2.322)"/>
    <path id="Path_479" data-name="Path 479" class="cls-1" d="M385.635,47.653l3.578.812A12.033,12.033,0,0,1,385.635,47.653Z" transform="translate(513.32 -3.382)"/>
    <path id="Path_480" data-name="Path 480" class="cls-1" d="M397.873,50.472c-.653.215-1.392.3-2.308.6l2.478-1.211A1.625,1.625,0,0,0,397.873,50.472Z" transform="translate(526.538 -3.543)"/>
    <path id="Path_481" data-name="Path 481" class="cls-1" d="M398.439,48.9l-1.811.885A1.973,1.973,0,0,1,398.439,48.9Z" transform="translate(527.953 -3.473)"/>
    <path id="Path_482" data-name="Path 482" class="cls-1" d="M456.62,17.892l4.292.158A33.391,33.391,0,0,1,456.62,17.892Z" transform="translate(607.809 -1.214)"/>
    <path id="Path_483" data-name="Path 483" class="cls-1" d="M471.152,25.33l3.863.234A15.773,15.773,0,0,1,471.152,25.33Z" transform="translate(627.152 -1.756)"/>
    <path id="Path_484" data-name="Path 484" class="cls-1" d="M475.013,27.478a7.676,7.676,0,0,1,1.716-1.393Z" transform="translate(632.292 -1.811)"/>
    <path id="Path_485" data-name="Path 485" class="cls-1" d="M518.782,38.049l.863-.93A2.578,2.578,0,0,1,518.782,38.049Z" transform="translate(690.553 -2.614)"/>
    <path id="Path_486" data-name="Path 486" class="cls-1" d="M529.816,45.146a14.369,14.369,0,0,1,2.054,1.481Z" transform="translate(705.24 -3.199)"/>
    <path id="Path_487" data-name="Path 487" class="cls-1" d="M537.175,55.607a10.931,10.931,0,0,1,.853-.935Z" transform="translate(715.036 -3.893)"/>
    <path id="Path_488" data-name="Path 488" class="cls-1" d="M550.26,39.244l.366-3.128C551.008,37.173,550.451,38.2,550.26,39.244Z" transform="translate(732.453 -2.541)"/>
    <path id="Path_489" data-name="Path 489" class="cls-1" d="M546.736,26.585c3.452,1.041,4.844,3.1,3.434,5.116Z" transform="translate(727.762 -1.847)"/>
    <path id="Path_490" data-name="Path 490" class="cls-1" d="M159.3,30.333l-4.282-.078A17.246,17.246,0,0,1,159.3,30.333Z" transform="translate(206.338 -2.107)"/>
    <path id="Path_491" data-name="Path 491" class="cls-1" d="M145.941,28.158c-.277-.083-.338-.5-.518-.986a3.065,3.065,0,0,0-.343-.64,26.092,26.092,0,0,1,7.245-.606c.534.367.4,1.16.047,1.771l-2.769.2A14.974,14.974,0,0,1,145.941,28.158Z" transform="translate(193.118 -1.793)"/>
    <path id="Path_492" data-name="Path 492" class="cls-1" d="M140.849,30.2l10.728-1.861c-.086.211-.182.421-.268.63C148.278,30.259,144.234,29.791,140.849,30.2Z" transform="translate(187.485 -1.975)"/>
    <path id="Path_493" data-name="Path 493" class="cls-1" d="M149.487,26.547l-7.716-.464C144.328,26.209,147.214,25.736,149.487,26.547Z" transform="translate(188.712 -1.809)"/>
  </g>
</svg>
