<?xml version="1.0" encoding="iso-8859-1"?>
<!-- Generator: Adobe Illustrator 19.0.0, SVG Export Plug-In . SVG Version: 6.00 Build 0)  -->
<svg xmlns="http://www.w3.org/2000/svg" xmlns:xlink="http://www.w3.org/1999/xlink" version="1.1" id="Capa_1" x="0px" y="0px" viewBox="0 0 56 56" style="enable-background:new 0 0 56 56;" xml:space="preserve" width="512px" height="512px">
<g>
	<g>
	</g>
	<g>
		<path d="M51,30h-0.54c0.954-1.063,1.54-2.462,1.54-4c0-3.309-2.691-6-6-6s-6,2.691-6,6c0,1.538,0.586,2.937,1.54,4H41    c-1.13,0-2.162,0.391-3,1.026V28c0-2.757-2.243-5-5-5h-0.54c0.954-1.063,1.54-2.462,1.54-4c0-0.023-0.003-0.044-0.003-0.067    c0.132-0.048,0.258-0.12,0.364-0.226c3.509-3.509,3.509-9.219,0-12.728c-1.5-1.5-3.401-2.353-5.36-2.571V3c0-1.654-1.346-3-3-3H0    v2h26c0.552,0,1,0.448,1,1v0.408c-1.962,0.217-3.866,1.071-5.367,2.572c-3.509,3.509-3.509,9.219,0,12.728    c0.108,0.108,0.236,0.179,0.37,0.227C22.003,18.957,22,18.978,22,19c0,1.538,0.586,2.937,1.54,4H23c-2.757,0-5,2.243-5,5v3.026    C17.162,30.391,16.13,30,15,30h-0.54c0.954-1.063,1.54-2.462,1.54-4c0-3.309-2.691-6-6-6s-6,2.691-6,6c0,1.538,0.586,2.937,1.54,4    H5c-2.757,0-5,2.243-5,5v7c0,0.553,0.447,1,1,1h3v12c0,0.553,0.447,1,1,1h5h5c0.553,0,1-0.447,1-1V43h3c0.553,0,1-0.447,1-1v-6h2    v12c0,0.553,0.447,1,1,1h5h5c0.553,0,1-0.447,1-1V36h2v6c0,0.553,0.447,1,1,1h3v12c0,0.553,0.447,1,1,1h5h5c0.553,0,1-0.447,1-1    V43h3c0.553,0,1-0.447,1-1v-7C56,32.243,53.757,30,51,30z M42,26c0-2.206,1.794-4,4-4s4,1.794,4,4s-1.794,4-4,4S42,28.206,42,26z     M29.234,25L28,27.057L26.766,25H29.234z M28,13c-0.963,0-1.871,0.234-2.679,0.639c-0.546-1.122-0.364-2.499,0.554-3.417    c1.17-1.17,3.072-1.17,4.242,0c0.917,0.917,1.1,2.293,0.555,3.414C29.866,13.233,28.961,13,28,13z M22.391,16.535    c-2.052-2.739-1.833-6.652,0.656-9.142c1.319-1.319,3.077-2.047,4.95-2.047c1.872,0,3.63,0.728,4.949,2.047    c2.489,2.489,2.708,6.402,0.656,9.143l-0.267-0.268c-0.271-0.527-0.616-1.009-1.024-1.431c1.115-1.921,0.842-4.407-0.78-6.029    c-1.949-1.949-5.121-1.949-7.07,0c-1.624,1.624-1.896,4.113-0.777,6.035c-0.402,0.418-0.744,0.893-1.013,1.412L22.391,16.535z     M24,19c0-0.62,0.154-1.201,0.407-1.725c0.003-0.006,0.009-0.01,0.012-0.017c0.138-0.283,0.311-0.548,0.511-0.79    c0.005-0.006,0.01-0.013,0.016-0.019c0.201-0.241,0.429-0.46,0.68-0.647c0.003-0.002,0.004-0.006,0.008-0.009    C26.297,15.301,27.111,15,28,15c0.888,0,1.702,0.301,2.366,0.792c0.002,0.002,0.003,0.005,0.006,0.007    c0.252,0.187,0.48,0.406,0.681,0.648c0.008,0.01,0.017,0.02,0.025,0.03c0.199,0.244,0.372,0.51,0.51,0.795    c0.004,0.008,0.011,0.013,0.014,0.02C31.85,17.812,32,18.387,32,19c0,2.206-1.794,4-4,4S24,21.206,24,19z M6,26    c0-2.206,1.794-4,4-4s4,1.794,4,4s-1.794,4-4,4S6,28.206,6,26z M18,41h-2v-6h-2v19h-3V43H9v11H6V35H4v6H2v-6c0-1.654,1.346-3,3-3    h10c1.654,0,3,1.346,3,3V41z M32,28v19h-3V36h-2v11h-3V28h-2v6h-2v-6c0-1.654,1.346-3,3-3h1.434l2.709,4.515    C27.323,29.815,27.648,30,28,30c0.352,0,0.677-0.185,0.857-0.485L31.566,25H33c1.654,0,3,1.346,3,3v6h-2v-6H32z M54,41h-2v-6h-2    v19h-3V43h-2v11h-3V35h-2v6h-2v-6c0-1.654,1.346-3,3-3h10c1.654,0,3,1.346,3,3V41z" fill="#8c9eab"/>
		<rect x="17" y="4" width="2" height="2" fill="#8c9eab"/>
		<rect x="13" y="4" width="2" height="2" fill="#8c9eab"/>
		<rect x="9" y="4" width="2" height="2" fill="#8c9eab"/>
	</g>
</g>
<g>
</g>
<g>
</g>
<g>
</g>
<g>
</g>
<g>
</g>
<g>
</g>
<g>
</g>
<g>
</g>
<g>
</g>
<g>
</g>
<g>
</g>
<g>
</g>
<g>
</g>
<g>
</g>
<g>
</g>
</svg>
