<svg xmlns="http://www.w3.org/2000/svg" viewBox="-2562 8504.3 1287 109.7">
  <defs>
    <style>
      .cls-1 {
        fill: #fff;
      }

      .cls-2 {
        fill: #fafafa;
      }
    </style>
  </defs>
  <g id="borde" transform="translate(-2562 8503.07)">
    <path id="Path_312" data-name="Path 312" class="cls-1" d="M119.422,63.648c3.061.177,4.49,1.1,4.3-1.7,2,.183.832,2.473,2.567,2.835-.007,2.449-6.205.807-6.86,2.833-1.5-.138-1.951-.971-1.711-2.27C120.869,66.691,117.354,64.642,119.422,63.648Z" transform="translate(156.607 7.899)"/>
    <path id="Path_313" data-name="Path 313" class="cls-1" d="M124.734,62.452c2.326-.4-.615,2.677,1.713,2.27C125.135,66.5,122.746,63.055,124.734,62.452Z" transform="translate(165.022 7.96)"/>
    <path id="Path_314" data-name="Path 314" class="cls-1" d="M119.19,58.634a8.809,8.809,0,0,1-5.147,2.265c-1.935-1.223.711-1.932,0-3.968C116.6,56.942,116.969,58.407,119.19,58.634Z" transform="translate(150.842 7.247)"/>
    <path id="Path_315" data-name="Path 315" class="cls-1" d="M20.2,60.205c.354-1.093,3.326-.448,2.581-2.27C26.953,58.623,21.836,61.7,20.2,60.205Z" transform="translate(26.894 7.377)"/>
    <path id="Path_316" data-name="Path 316" class="cls-1" d="M13.5,57.122c-2.636-.422-1.648,1.56-4.282,1.135C6.232,56.168,13.479,53.8,13.5,57.122Z" transform="translate(11.31 7.056)"/>
    <path id="Path_317" data-name="Path 317" class="cls-1" d="M129.877,50.42c2.961-.4,3.065,1.982,1.713,2.829C129.85,52.837,128.087,51.548,129.877,50.42Z" transform="translate(171.884 6.394)"/>
    <path id="Path_318" data-name="Path 318" class="cls-1" d="M129.321,50.918c-.249,1.157-2.308,1.111-2.569,2.267-1.065-.249-1.765-.722-1.716-1.7A7.967,7.967,0,0,1,129.321,50.918Z" transform="translate(166.433 6.457)"/>
    <path id="Path_319" data-name="Path 319" class="cls-1" d="M75.391,53.061c-1.387.16-1.485-.536-2.574-.567C72.468,51.394,76.715,51.671,75.391,53.061Z" transform="translate(96.901 6.581)"/>
    <path id="Path_320" data-name="Path 320" class="cls-1" d="M72.507,46.4c2.326.922,4.984,1.616,6.849,2.832C77.638,53.483,69.183,50.244,72.507,46.4Z" transform="translate(95.493 5.876)"/>
    <path id="Path_321" data-name="Path 321" class="cls-1" d="M82.371,47.9c-.373.888-2.7.485-1.716,2.266-1.168-.176-.72-1.417-.863-2.266Z" transform="translate(106.213 6.072)"/>
    <path id="Path_322" data-name="Path 322" class="cls-1" d="M18.737,46.4c2.4.11,3.648.988,3.42,2.832C19.886,49.039,19.273,47.745,18.737,46.4Z" transform="translate(24.941 5.876)"/>
    <path id="Path_323" data-name="Path 323" class="cls-1" d="M92.178,45.4c.825,2.249-2.48,1.758-4.294,2.268C88.047,46.07,89.381,45.251,92.178,45.4Z" transform="translate(116.983 5.744)"/>
    <path id="Path_324" data-name="Path 324" class="cls-1" d="M418.306,39.642c5.2,3.064-3.944,9.518-8.567,6.237-.317-1.719,2.795-1.178,4.294-1.7,1.023-1.588.937-3.91.851-6.237l1.571.285,1-.851C419.485,36.91,421.555,40.108,418.306,39.642Z" transform="translate(545.375 4.696)"/>
    <path id="Path_325" data-name="Path 325" class="cls-1" d="M509.552,45.6c-2.138-.232-.049-2.2,1.725-1.7C510.972,44.644,509.764,44.792,509.552,45.6Z" transform="translate(677.061 5.541)"/>
    <path id="Path_326" data-name="Path 326" class="cls-1" d="M64.711,45.026H62.14V43.891h2.571Z" transform="translate(82.715 5.55)"/>
    <path id="Path_327" data-name="Path 327" class="cls-1" d="M11.745,44.6c-.867-.368-.893-1.3-2.574-1.136.669-1.3,5.308-.549,4.292,1.136C12.7,44.249,11.929,43.914,11.745,44.6Z" transform="translate(12.208 5.409)"/>
    <path id="Path_328" data-name="Path 328" class="cls-1" d="M123.441,42.889c-.737.841-2.156,1.218-4.292,1.133Q120.236,42.76,123.441,42.889Z" transform="translate(158.6 5.418)"/>
    <path id="Path_329" data-name="Path 329" class="cls-1" d="M515.965,42.715c-1.753-.412-3.506-1.71-1.716-2.839.832.02.66.7.851,1.136.832-.016.662-.694.865-1.136a5.475,5.475,0,0,0,2.569.57C519.28,42.264,515.7,41.221,515.965,42.715Z" transform="translate(683.52 5.028)"/>
    <path id="Path_330" data-name="Path 330" class="cls-1" d="M61.4,40.544a3.528,3.528,0,0,1,5.142-.57C66.441,41.226,62.916,40.219,61.4,40.544Z" transform="translate(81.731 4.93)"/>
    <path id="Path_331" data-name="Path 331" class="cls-1" d="M407.883,36.65l-1-.854-1.56.287c-.24-2.8,2.49-3.638,2.56-6.237,5.289.5,1.846,3.284,3.431,6.237C409.781,36.008,409.508,36.777,407.883,36.65Z" transform="translate(539.508 3.723)"/>
    <path id="Path_332" data-name="Path 332" class="cls-1" d="M163.816,39.767c-3.639.519-3.657-1.358-3.42-3.4A4.4,4.4,0,0,1,163.816,39.767Z" transform="translate(213.391 4.571)"/>
    <path id="Path_333" data-name="Path 333" class="cls-1" d="M124.062,39.084c-2.534-.816,1.014-2.281,3.431-1.7C127.712,39.733,124.167,38.136,124.062,39.084Z" transform="translate(163.976 4.686)"/>
    <path id="Path_334" data-name="Path 334" class="cls-1" d="M546.739,38.643c-2.082-.354-.464-2.861,1.711-2.265C550.042,38.718,547.8,38.062,546.739,38.643Z" transform="translate(726.482 4.561)"/>
    <path id="Path_335" data-name="Path 335" class="cls-1" d="M269.336,36.368c.7.106.853.567,1.718.564-.163.459-.865.565-.855,1.133-.7-.107-.863-.568-1.713-.566C268.648,37.042,269.336,36.935,269.336,36.368Z" transform="translate(357.381 4.571)"/>
    <path id="Path_336" data-name="Path 336" class="cls-1" d="M139.6,37.082c-1.667.224-1.254-2.579.853-1.7v1.133C139.725,36.413,139.648,36.739,139.6,37.082Z" transform="translate(184.452 4.421)"/>
    <path id="Path_337" data-name="Path 337" class="cls-1" d="M160.462,35.74,160.9,34.7l-1.287-.664c1.7-2.657,5.933-1.1,10.292-1.133v3.4C166.756,34.583,162.782,38.339,160.462,35.74Z" transform="translate(212.456 4.066)"/>
    <path id="Path_338" data-name="Path 338" class="cls-1" d="M139.618,35.422c-.72.84-2.156,1.216-4.285,1.133A3.047,3.047,0,0,1,139.618,35.422Z" transform="translate(180.142 4.384)"/>
    <path id="Path_339" data-name="Path 339" class="cls-1" d="M273.76,33.408c-1.921.636-3.147,3.43-6.012,1.7C267.769,32.746,271.086,32.558,273.76,33.408Z" transform="translate(356.4 4.126)"/>
    <path id="Path_340" data-name="Path 340" class="cls-1" d="M219.038,34.622c-1.226-.049-2.436-.093-2.576.562-2-.144-.49-2.486,0-2.831C217.716,32.848,219.788,32.805,219.038,34.622Z" transform="translate(286.789 4.049)"/>
    <path id="Path_341" data-name="Path 341" class="cls-1" d="M43.748,33.859h2.569v1.129H43.748Z" transform="translate(58.233 4.245)"/>
    <path id="Path_342" data-name="Path 342" class="cls-1" d="M423.385,27.356c1.562,3.075-2.671,6.811-6.851,7.937C415.049,32.57,418.893,26.121,423.385,27.356Z" transform="translate(554.018 3.379)"/>
    <path id="Path_343" data-name="Path 343" class="cls-1" d="M217.726,33.433c1.2-1.647,4.226.165,5.147.57C221.722,35.617,219.057,33.564,217.726,33.433Z" transform="translate(289.816 4.101)"/>
    <path id="Path_344" data-name="Path 344" class="cls-1" d="M149.546,31.906c-1.487,1.684-5.683,3.884-9.432,2.269V31.906C142.9,31.134,145.357,31.446,149.546,31.906Z" transform="translate(186.506 3.93)"/>
    <path id="Path_345" data-name="Path 345" class="cls-1" d="M72.668,33.928c-.212,1.328-3.758.324-4.273,0C69.113,32.264,70.54,34.666,72.668,33.928Z" transform="translate(91.041 4.176)"/>
    <path id="Path_346" data-name="Path 346" class="cls-1" d="M502.8,34.251c-1.084-.983-2.9-1.488-2.571-3.4C502.358,31.208,503.913,33.449,502.8,34.251Z" transform="translate(665.807 3.853)"/>
    <path id="Path_347" data-name="Path 347" class="cls-1" d="M267.012,33.485V32.353h1.716v1.132Z" transform="translate(355.421 4.049)"/>
    <path id="Path_348" data-name="Path 348" class="cls-1" d="M180.943,33.616c-.119-1.78,2.2-1.946,4.292-2.265C184.937,32.856,182.986,33.261,180.943,33.616Z" transform="translate(240.849 3.919)"/>
    <path id="Path_349" data-name="Path 349" class="cls-1" d="M503.522,31.917c.718.1.8-.221.844-.565,1.016.09.73,1.034.86,1.7C503.771,33.258,503.61,32.608,503.522,31.917Z" transform="translate(670.24 3.919)"/>
    <path id="Path_350" data-name="Path 350" class="cls-1" d="M410.06,31.368v1.7C407.561,33.9,407.561,30.529,410.06,31.368Z" transform="translate(543.338 3.903)"/>
    <path id="Path_351" data-name="Path 351" class="cls-1" d="M222.8,32.419c.24.9-4.639.8-2.571-.567C219.89,32.072,222.8,32.459,222.8,32.419Z" transform="translate(292.461 3.984)"/>
    <path id="Path_352" data-name="Path 352" class="cls-1" d="M149.043,31.895c-4.343,2.007-4.714-1.465,0,0Z" transform="translate(193.869 3.941)"/>
    <path id="Path_353" data-name="Path 353" class="cls-1" d="M185.029,31.993c-.69-2.154,4.051-.72,6-1.133C190.906,32.48,187.453,31.9,185.029,31.993Z" transform="translate(246.202 3.843)"/>
    <path id="Path_354" data-name="Path 354" class="cls-1" d="M504.068,28.34c-.086,2.119-.97,1.617,0,3.4C501.345,31.487,500.821,28.695,504.068,28.34Z" transform="translate(667.981 3.527)"/>
    <path id="Path_355" data-name="Path 355" class="cls-1" d="M73.3,29.192l.431-1.037-1.3-.661c4.035-1.085,12.525-2.1,15.439-.567C86.109,29.73,79.344,29.222,73.3,29.192Z" transform="translate(96.419 3.241)"/>
    <path id="Path_356" data-name="Path 356" class="cls-1" d="M496.889,29.167c-3.352.636-4.082,1.7-7.714.57q.465-3.094,5.135-3.4C494.313,27.847,497.024,27.567,496.889,29.167Z" transform="translate(651.143 3.266)"/>
    <path id="Path_357" data-name="Path 357" class="cls-1" d="M492.116,26.165V23.9a8,8,0,0,1,4.292-.564,2.417,2.417,0,0,1,.851,2.266l-1.284-.284-.431.851Z" transform="translate(655.057 2.868)"/>
    <path id="Path_358" data-name="Path 358" class="cls-1" d="M550.947,25.832c2.4-.084,2.464,1.389,2.569,2.834C551.579,28.288,549.208,26.967,550.947,25.832Z" transform="translate(732.563 3.2)"/>
    <path id="Path_359" data-name="Path 359" class="cls-1" d="M507.563,27.413c2.6-2.1,2.9,1.719,0,0Z" transform="translate(675.619 3.322)"/>
    <path id="Path_360" data-name="Path 360" class="cls-1" d="M509.052,25.84c2.242-.156,4.294-.19,3.431,1.7C510.241,27.7,508.793,27.335,509.052,25.84Z" transform="translate(677.561 3.193)"/>
    <path id="Path_361" data-name="Path 361" class="cls-1" d="M96.715,26.067,98,25.785l-.431-.849c1.993-.606,8.175-1.362,9.429-.571l-1.284.571L107,25.5C104.7,27.039,98.61,28.979,96.715,26.067Z" transform="translate(128.738 2.966)"/>
    <path id="Path_362" data-name="Path 362" class="cls-1" d="M50.245,27.066c-1.051-.247-1.762-.726-1.713-1.7,2.636-.394,1.648-.394,4.292,0C52.718,26.437,49.979,25.758,50.245,27.066Z" transform="translate(64.597 3.101)"/>
    <path id="Path_363" data-name="Path 363" class="cls-1" d="M279.384,23.327c.413,1.784-1.217,2.216-1.7,3.4-1.9.312-1.226-1.08-2.576-1.135C275.265,24,276.6,23.18,279.384,23.327Z" transform="translate(366.192 2.873)"/>
    <path id="Path_364" data-name="Path 364" class="cls-1" d="M193.815,25.906c2.6-2.093,2.9,1.721,0,0Z" transform="translate(257.988 3.126)"/>
    <path id="Path_365" data-name="Path 365" class="cls-1" d="M286.137,24.434c.73-2.019,2.117-.069,5.156-.567C289.8,25.461,289.042,24.4,286.137,24.434Z" transform="translate(380.878 2.897)"/>
    <path id="Path_366" data-name="Path 366" class="cls-1" d="M222.5,24.589c-2.1-1.185-1.832-.809-5.145-.567.86-1.317,2.949-1.825,6.007-1.7C223.468,23.339,222.31,23.521,222.5,24.589Z" transform="translate(289.323 2.742)"/>
    <path id="Path_367" data-name="Path 367" class="cls-1" d="M183.747,24.465c-3.518-.618,3.056-2.369,1.723,0C184.7,24.119,183.931,23.785,183.747,24.465Z" transform="translate(243.19 2.866)"/>
    <path id="Path_368" data-name="Path 368" class="cls-1" d="M417.084,21.645c.816-1.164,1.065-2.7,3.434-2.832l.424.843,1.282.287c.366,1.08,1.851,1.426,1.716,2.833C421.637,24.133,419.373,22.019,417.084,21.645Z" transform="translate(555.182 2.288)"/>
    <path id="Path_369" data-name="Path 369" class="cls-1" d="M417.451,18.133c.5-1.18,1.8-1.835,2.576-2.834a5.407,5.407,0,0,0,2.56.568c.124,1.4.142,2.734-.853,3.4l-.862-.288-.842-.283C418.638,18.862,418.544,18.166,417.451,18.133Z" transform="translate(555.671 1.83)"/>
    <path id="Path_370" data-name="Path 370" class="cls-1" d="M414.436,23.023c-.583-1.124-5.107.354-4.282-1.7C412.6,21.211,414.833,21.25,414.436,23.023Z" transform="translate(545.824 2.609)"/>
    <path id="Path_371" data-name="Path 371" class="cls-1" d="M445.4,19.813c1.266.295,2.154.842,3.424,1.131-2.168.452-3.254,1.632-5.991,1.7C443.6,21.646,444.9,20.994,445.4,19.813Z" transform="translate(589.457 2.418)"/>
    <path id="Path_372" data-name="Path 372" class="cls-1" d="M344.254,20.316c3.161-.015,5.9.254,6,2.265C347.091,22.6,344.352,22.329,344.254,20.316Z" transform="translate(458.238 2.483)"/>
    <path id="Path_373" data-name="Path 373" class="cls-1" d="M403.842,22.019c.741-.834,1.287-1.8,3.436-1.7C407.525,21.807,406.089,22.178,403.842,22.019Z" transform="translate(537.556 2.482)"/>
    <path id="Path_374" data-name="Path 374" class="cls-1" d="M490.647,20.316h3.424v1.133h-3.424Z" transform="translate(653.102 2.483)"/>
    <path id="Path_375" data-name="Path 375" class="cls-1" d="M298.632,16.3c-.534,2.481-4.387,2.766-5.145,5.1-2.625-.91-4.676-2.2-5.138-4.533C291.965,15.917,293.659,16.735,298.632,16.3Z" transform="translate(383.822 1.961)"/>
    <path id="Path_376" data-name="Path 376" class="cls-1" d="M325.126,17.3c2.667-.053,4.767.259,6.012,1.137C330.975,20.865,324.984,18.72,325.126,17.3Z" transform="translate(432.774 2.09)"/>
    <path id="Path_377" data-name="Path 377" class="cls-1" d="M537.481,17.3H539.2v1.708a5.431,5.431,0,0,0-2.576-.571C536.782,17.98,537.481,17.876,537.481,17.3Z" transform="translate(714.298 2.091)"/>
    <path id="Path_378" data-name="Path 378" class="cls-1" d="M464.664,17.807a6.683,6.683,0,0,0,3.427.567C468.364,19.377,463.3,19.388,464.664,17.807Z" transform="translate(618.204 2.157)"/>
    <path id="Path_379" data-name="Path 379" class="cls-1" d="M437.06,19.857c-1.054-1.007-1.669-2.3-3.424-2.839a5.957,5.957,0,0,1,4.285-6.234C442.435,12.624,440.258,18.3,437.06,19.857Z" transform="translate(577.213 1.243)"/>
    <path id="Path_380" data-name="Path 380" class="cls-1" d="M433.02,19.025c.147-.663-.191-1.011-.86-1.138.86-1.592,3.965-.059,4.294.567C436.186,19.225,434.309,18.926,433.02,19.025Z" transform="translate(575.25 2.076)"/>
    <path id="Path_381" data-name="Path 381" class="cls-1" d="M371.231,15.568,370.8,15l-.434-.571c1.858-.471,2.933-1.466,6.01-1.131C377.681,15.743,371.709,19.637,371.231,15.568Z" transform="translate(492.996 1.562)"/>
    <path id="Path_382" data-name="Path 382" class="cls-1" d="M342.27,17.848c-3.888,1.891-5.655-1.4,0,0Z" transform="translate(450.793 2.115)"/>
    <path id="Path_383" data-name="Path 383" class="cls-1" d="M467.107,18.08V15.814c2.963-.45,3.611.628,5.135,1.132C471.462,17.937,469.557,18.193,467.107,18.08Z" transform="translate(621.768 1.883)"/>
    <path id="Path_384" data-name="Path 384" class="cls-1" d="M415.117,18.264c-2.809.151-1.821-2.2-4.285-2.266.3-.745,1.494-.893,1.716-1.705.977.206,2.163,1,.851,1.137C414.483,16.277,416.9,17.137,415.117,18.264Z" transform="translate(546.86 1.7)"/>
    <path id="Path_385" data-name="Path 385" class="cls-1" d="M334.322,16.938c.212-2.331,7.485-.738,6.86,1.133C338.185,18.167,335.693,17.919,334.322,16.938Z" transform="translate(445.017 1.892)"/>
    <path id="Path_386" data-name="Path 386" class="cls-1" d="M299.619,15.815v1.7a4.453,4.453,0,0,1-4.285,0C295.849,16.343,296.663,15.365,299.619,15.815Z" transform="translate(393.12 1.883)"/>
    <path id="Path_387" data-name="Path 387" class="cls-1" d="M417.572,17.1c-1-.845-3.555-.668-3.434-2.267,2.648-.4,1.65-.4,4.294,0C418.54,15.848,417.39,16.027,417.572,17.1Z" transform="translate(551.255 1.731)"/>
    <path id="Path_388" data-name="Path 388" class="cls-1" d="M458.265,16.585h-2.573c-3.275-3.707.473-5.851,3.434-6.805C460.757,12.34,459.853,14.608,458.265,16.585Z" transform="translate(604.881 1.112)"/>
    <path id="Path_389" data-name="Path 389" class="cls-1" d="M390.633,15.346c-3.769,2.083-3.252-1.57,0,0Z" transform="translate(516.463 1.784)"/>
    <path id="Path_390" data-name="Path 390" class="cls-1" d="M254.329,15.766c.625-1.731-1.485-1.667-.86-3.4,1.765-.878,7.676-.878,9.429,0C261.553,15.29,258.707,14.382,254.329,15.766Z" transform="translate(337.237 1.363)"/>
    <path id="Path_391" data-name="Path 391" class="cls-1" d="M427.369,12.945l-.422-.849-1.284.281c.622-1.732-.872-2.065-.853-3.4,2.012-.177,1.578-1.968,4.273-1.7,1.681.791,3.606,3.124,1.716,4.532l-1.284-.279.434.848C430.541,14.263,428.173,13.29,427.369,12.945Z" transform="translate(565.465 0.783)"/>
    <path id="Path_392" data-name="Path 392" class="cls-1" d="M368.533,13.488v-1.7c1.124.207,1.333,1,2.564,1.131C370.969,13.587,369.531,13.4,368.533,13.488Z" transform="translate(490.556 1.373)"/>
    <path id="Path_393" data-name="Path 393" class="cls-1" d="M432.139,4.78v1.7C429.626,7.315,429.626,3.946,432.139,4.78Z" transform="translate(572.713 0.445)"/>
    <path id="Path_394" data-name="Path 394" class="cls-1" d="M461.019,1.258c-.813,1.157-1.755,2.242-2.573,3.4C456.161,3.651,458.443.92,461.019,1.258Z" transform="translate(608.988 0)"/>
    <path id="Path_395" data-name="Path 395" class="cls-2" d="M11.1,35.37c2.168,2.849-.48,5.644-.863,8.5C5.021,44.206,4.59,47.7,2.518,50.11c2.054,3.365,7.007,4.816,10.294,7.369l-1.3-.285-.422.848c-4.2,1.166-8.539-2.643-9.432,0l-1.294-.28c1.618,2.01.853,4.057,1.294,6.236l.853.283a2.431,2.431,0,0,1,1.725,2.27c.825-.02.653-.7.842-1.136,2.657.631,2.31,3.229,6.01,1.7,1.121,2.663,2.03,5.46,5.145,6.8,5.55.273,4.121-4.073,9.429-3.963,1.009-.1.72-1.034.853-1.705,2.07-.234,1.87,1.036,4.3.568l.429.849,1.287-.284c.977,2.226.173,2.11.851,4.535,3.392-2.093,7.3-1.343,12-1.7,1.9-.441-.163-3.5,3.431-2.833.511,1.932,2.368,2.979,2.576,5.1,2.34.415,1.725-1.123,3.431-1.132-1-4.613-1.753-9.5,4.285-10.769V59.75c1.872-.105,2.732.462,2.571,1.7,2.56-1.338,5.289-2.556,6.863-4.536,1.511,1.461,5.975.965,8.574,1.7-1,.843-1,1.433,0,2.269,1.245.306,4.427-.659,4.285.567,2.846-.2,1.352-3.271,1.716-5.1,1.359.047,3.275-.271,3.429.567l-.431.852,1.3.28c.152.485-.34.537-.865.567-.49,3.414,2.993,3.68,5.147,3.972,2.963-.5.767-4.41,5.147-3.972-3.478-4.448,3.6-8.122.853-11.9l.431-.85-1.284-.288c-.021-1.334,1.476-1.669.853-3.4a40.136,40.136,0,0,0,8.578,3.4c-.233,1.169-3.8.138-3.424,1.7,3.317,2.379,12.094-.418,12-3.969,1.986-1.522,5.886-1.779,6.853-3.966,4.063-.229,5.9,1.009,10.3.566l-.441,1.039,1.3.659c-1.056.81-3.278,1.291-4.294.567-1.016,2.561,2,2.456,4.294,2.835l-.431.853,4.282-1.137-.431-.852c2.382-1.339,4.016.894,6.007.57,1.235,2.522-.289,3.512.853,5.67-3.1-2.649-7.581.667-12,1.7,4.686,1.762,10.4,1.33,12.861,3.4,3.459.089,7.112-1.687,7.718,1.135l-.434.852,2.576.188-.431-1.04h.851c1.086-2.312,1.793-4.868,6-5.1,2.079,3.643,2.117,9.92,5.147,13.606,3.159.2,2.595-2.066,3.429-3.4,2.9.167,2.49,2.512,5.156,2.834,3.086.156,2.322-2.242,5.135-2.269l.434.85a22.215,22.215,0,0,1,.853-2.269l-1.287-.28c1.657-4.32-3.1-8.436.853-10.769,5.9.825,2.981,7.472,6.007,10.206l-1.532-.208,1.1,1.622,1.3.284h.855l-.434.849,1.294.287c-.326.963.662,1.069,1.7,1.131l-.422.848,1.284-.28c.727-.105.807.221.855.568,2.739.485,2.653-.893,4.28-1.136,9.21,1.823,16.332-1.418,10.292-8.5,4.257-.748,7.383.74,10.294,0,1.448,1.964-1.59,5.215,4.282,5.1-1.991,1.782-1.091,2.542-1.711,4.537-1.706.945-1.086-.054-3.424,0,.289,1.137-.182,1.773-1.725,1.7l-1.282.28a2.807,2.807,0,0,1,.86,2.269l1.287.28.422.855,2.455.724-.305-1.011c1.392-.165,1.478.533,2.578.563,2.692-.1,1.093-3.054,4.285-2.832-3.385-3.513,1.408-5.645-.851-9.64a7.965,7.965,0,0,0,4.282-.563c-.527-.507-1.035-1.014,0-1.137a7,7,0,0,0-2.569-1.135l.422-.85-1.284-.285c-1.312-1.331,7.3-4.819,1.713-7.365v-.567h-.851c-.163-.484.324-.54.851-.571-.611-1.243-4.026-1.88-1.713-3.4h-3.434c-.478,2.518-3.133,3.594-5.135,5.1.354-7.276-13.52-1.026-16.3-4.537l.434-.849-.434-.851c.1-1.63,3.66-.982,3.431-2.838,10.091.429,21.616-2.893,27.444,1.14,2.291-.225,4.2-2,5.989-2.269.844-.129,1.6,1.056,2.576,1.129,1.977.157,2.83-1.687,3.434-1.7,1.245-.016,2.012,1.54,3.429,1.7,3.347.389,5.965-2.282,10.294-1.129a11.055,11.055,0,0,0,3.429-3.4l.434-.849-.434-.851c2.963,1.054,4.564-.268,7.718-.57.191-1-.863-2.833,1.716-2.266v1.136h1.713V31.4c4.329,2.992,11.021-1.96,15.427.57,2.886-3.352,17.565,1.48,22.292-2.835l1.3-.567-1.3-.567c3.352-1.693,6.154,1.263,10.294,0-.364,2.026-2.159,3.112-4.287,3.97v.567l-1.294.284.431.849c-2.252,2.477-10.415,1.049-12.861,3.4-.832-.015-.669-.7-.851-1.133-3.9.7,1.473,1.652-.865,2.835l-1.284-.287-.431.854c-6.832.45-11.311.408-16.292,2.831-1.282-.657-2.1-1.64-4.28-1.7-2.9-.216-1.352,2.508-5.147,1.7l.431-.849-1.284-.285c-1.263-1.076-5.618-.068-3.431,1.133l-1.3.286.434.849c-.375.7-1.093,1.164-2.571,1.135.231,1.436,3.681,3.211,0,3.968.767,1,3.48.726,2.571,2.834-1.891,1.534-2.846.156-5.147,1.136l-.988-.855a3.48,3.48,0,0,1-2.865,1.9l1.287.655c-2.371.706-2.716,2.743-4.285,3.969,10.772.049,23.439-2.377,31.717-1.132.844,2.064-4.175.262-2.569,2.839-4.11.182-7.352-1.573-8.576,1.13-7.881-3.044-10.763,1.357-17.145,2.834v3.4c-1.284.662-3.506.706-4.294,1.7l-1.284-.284a23.023,23.023,0,0,0,1.716,1.7l-.434-.855c3.807-.058,6.422.677,6.863,2.833,3.476-.723,8.693-.3,12.005-1.131-.145.659.182,1.008.853,1.131-2.4,1.843-4.7,1.908-7.723,2.27,1.091.825,4.273,1.658,6.87,1.7,4.075.071,9.73-2.36,12,0l-.434.851a7.546,7.546,0,0,1,3.009.851l1.839.021,6.3.075-1.282-.66c.266-1.338,2.977-1.057,2.574-2.837,2.732-.485,2.657.894,4.285,1.136,2.385-.313,2.406-2.194,3.434-3.406l.429-.846-.429-.852a5.455,5.455,0,0,1,2.569-.563c-2.6-2.257-1.585-6.97,1.713-8.505,1.87,1.207,3.191,2.11.863,3.4,1.119-.2,1.35-1,2.569-1.136-.317-.964.671-1.068,1.713-1.131-1.352-1.843.056-2.1-.851-3.4-.69-.987-5.138-2.1-5.145-2.834,0,.353,5.56-3.691,10.28-4.535,4.282-.762,10.2-.66,12.863.57,1.159-.559,1.711-1.517,2.576-2.268-2.681-2.24-1.226-5.292-.853-8.505,4.478,1.634,8.686,2.093,12.008-.566,8.282,1.554,12.576.11,19.714,1.133,2.574.186,1.007,3.116,3.431,3.4.793-.6,3.161-.175,2.567-1.7,8.212,2.639,12.334.237,15.441-3.964,4.665.108,5.089,2.8,4.282,5.1,4.35-1.56,4.793.629,7.718-1.136l1.291.287,1.284-.287c3.156.947,5.52,3.677,6.851,0l.431-.565-.431-.568c1.746-.93,3.422-1.894,3.431-3.964,4.257.731,4.217-1.373,7.725-1.135.1,1.015-1.056,1.192-.862,2.268,6.879.571,9.676.381,14.574-1.133l-.431.849c1.331-1.051,3.364-1.1,5.205-1.34l2.518-.643a9.965,9.965,0,0,1,.2-1.292,7.121,7.121,0,0,1,4.658-1.261,2.457,2.457,0,0,1,1.065-.731,34.264,34.264,0,0,0,4.359.164l-1.287-.28c8.261-.479,16.341-2.536,24.868-1.136.988.84.988,1.428,0,2.268h4.287l-.434,1.037c3.348-.553,6.681-.354,10.082-.469a5.366,5.366,0,0,1,.641,1.416l.853.285c2.28.006,5.049-.318,5.142,1.135l-1.28.66.431,1.037c-3.424-.488-6.669.626-4.294,2.267l-.434.853.434.85c-6.942.488-11.483,3.487-17.145,1.131-3.105.409-2.455,3.293-6.007,3.4.786,1.55,3.009-1.011,4.294.566.145,1.566-1.322,1.945-2.578,1.131l-.422-.564a3.272,3.272,0,0,1-.431,1.7h.851c6.851-1.493,15.182.443,21.439-.566.709-1.6-1.21-1.468-.853-2.834,6.345-.211,11.012-.476,17.143.568,1.935-1.184,2.452-3.294,4.3-4.536l1.282.283-.434-.852c1.541.073,1.811-.693,3.431-.565-.911-5.662,13.562-7.7,19.724-7.368l-.436.85L534.1,36.5c11.707,1.018,14.278.246,22.3-1.132.842-2.261-2.569-1.709-1.713-3.97.965-1.249,3.762-1.282,6-1.7a2.428,2.428,0,0,1,.853,2.268c11.53-1.935,14.182,6.694,23.153,2.833,1.62,1.97,8.914,2.57,10.292,0,.226-1.85-1.014-2.728-3.431-2.833,5.438-2.262,6.191-7.345,2.571-11.338,1.455.21,1.618-.44,1.713-1.133,5.415.39,4.254,5.13,10.294,5.1.019,3.038-6.4,1.815-6.01,5.1.364,1.274,4.553.014,5.145,1.132-.641,2.225-5.825,1.434-6,3.969.643,1.28,4.811.22,6.863.567-1.669,3.02,4.86,3.555,6.86,2.269l1.284.28.422-.848c2.021.179,3.219.9,6.007.567.259,1.494-1.189,1.86-3.431,1.7,2.751,1.016,8,.374,6.86,3.966,6-.905,9.056-.04,14.579.565.17-2.382-3.259-2.379-3.434-4.531a15.337,15.337,0,0,1,9.439-.567l1.275.281,1.294-.281c1.1,1.084,4.084.186,4.285,0l1.287-.666a23.793,23.793,0,0,0-2.436-.748l-1.849-.572.422,1.413h-1.706l-1.294-.281-1.275.281a2.384,2.384,0,0,1,1.706-2.262c-.564-.764-1.83-1.059-3.429-1.136l.429-.851-1.282-.283c-.147-1.607-1.573-2.361-1.718-3.968,3.853,1.421,9.3,1.787,12,3.968l-1.284.659a16.9,16.9,0,0,0,2.664.21,18.894,18.894,0,0,1,3.333.264l-.422-.565c.7-.106.851-.572,1.706-.568l.431.849,1.3.285c2.061.235,1.858-1.035,4.282-.565a2.773,2.773,0,0,0,.853,2.834l-.424.848,1.287.281c-3,.476-3.634,2.519-5.147,3.971,3.135.835-.832,3.08,3.431,3.4-1.119,2.034.9,4.326-2.569,2.837,2.877,2.438,7.338-.575,5.135-3.968a63.452,63.452,0,0,1,11.147,3.4l-.422.851,2.569.568-.434-.852c2.243-.6,1.8-2.972,4.294-3.4,5.117.738,2.989-3.31,3.431-5.666l1.284.281.422-.849c2.035.17,1.6,1.964,4.294,1.7-3.66,2.364-1.023,8.148,0,10.771-.042-.089-1.552.071-1.713,0,1.054,1.722,2.953-.616,5.147,0a28.215,28.215,0,0,0,6.86-11.335c.063-1.939-5.224-.33-5.147-2.268,1.217-2.613,10.693-2.735,7.716-6.239.814-.646,6.888-.548,9.427-1.7l1.287.281a3,3,0,0,1,.546-1.871c2.1-.676,6.189-.891,6.315,1.308l1.294.283c1.629.242,1.543,1.619,4.285,1.132-4.016-1.426-.03-3.558,1.716-4.536,2.508.778,2.9,1.539,5.135,0l1.3.284-1.718-1.415.424.564c-2.723,1.1-7.867-.224-10.282-1.131,1.522-2.864-1.035-4.407,0-6.239-1.373-1.457-5.359-.863-7.716-2.831-12.812,2.242-33.216-.218-42.876-2.271,3.8-5.185,22.083-1.906,28.3,0,2.5.15,2.634-1.279,5.133-1.131,12.124,2.164,26.038,2.957,36.866,4.537l-1.282.66c1.7.434,4.2.234,5.194,1.414a1.432,1.432,0,0,1-.1.474l11.2,4.164-.422-1.046c5.348.521,8.655-.325,10.292-2.261,15.124,2.149,30.209,6.136,43.729,6.23l.986.851,1.585-.28c7.963,2.035,15.789,5.1,24.868,3.966.734,1.03,2.2,1.565,2.576,2.835,2.243-3.869-8.816-8.571.851-11.339-2.089-3.776,2.089-7.685,1.706-10.77l1.294.287-.434-.85c.268-.772,2.149-.47,3.434-.568,1.876,4.623-1.263,10.193,4.282,13.04.375,1.181-.58,1.494-.851,2.262,3.056,1.289,4.35.418,7.716,1.7a12.8,12.8,0,0,0,1.713,7.369c2.578-.793,6.229-.826,6.863,1.136l-1.289.658,10.026-.225,3.077-.071,3.182,3.889.441-.849c1.494-.522,2.967-1.059,2.557-2.839,1.214-.046,2.443-.089,2.576.57l-1.152.567,1.152.562c-.546,2.062,1.774,2.231,4.285,2.27l-.431,1.044a11.472,11.472,0,0,0,1.534-.293,15.1,15.1,0,0,1,4.476-.844l-.424-1.037c1.611-.068.592-1.875,2.569-1.7l.431.848,1.275-.286c1.284.251-.333.73,0,1.706,3.7.737,2.711-1.607,4.3-2.268l1.284.562,1.284-.562c1.839.848-.615,1.388.86,2.832,2.807-.033,3.275-1.613,6.851-1.13.305.74,1.513.888,1.713,1.7.776,1.832-2.788.8-3.429,1.7-.17,2.8,2.424,5.759-.844,7.372-2.643-1.042-3.86.51-6.007-.567-.681-1.957.795-2.494,2.569-2.833-1.485-1.014-3.837-2.538-5.145-.567l-1-.851-1.573.28c.154-.48-.336-.538-.863-.565l.431-.849-2.569,1.7,1.284-.288c-.438,3.109-3.956,4.184-4.28,7.37l-1.289-.283.424.85c-1.119,3.51,1.217,5.778-3.431,6.8.212,1,1.478,1.292,3.431,1.135.72,3.176-1.38,5.367,0,7.369,3.967-1.288,2.788-3.847,6-7.369,4.082,1,4.2-.558,7.723-1.135.107,1.016-1.056,1.2-.86,2.27.536-.787,3.305-.09,3.443-1.136l1.27.285.3-1.139-1.569.287c.937-2.7-1.107-3.432-2.581-4.536l1.284-.66a20.07,20.07,0,0,1-2.145-1.042v1.14c-2.138.084-2.655-.9-4.285-1.14.182-.939,6.371-2.274,6,0,2.338.051,1.727-.944,3.441,0,.958-.507-.054-1.266,1.7-2.264,2.916.452,5.208,1.315,3.434,3.4l-.429.848,1.282-.286v2.267c.594.759,2.291-.279,4.294.567,2.347-1.285,3.212-3.547,5.147-5.1-3.41-2.064-11.537-.527-12-5.666,2-.181,3.21-.9,5.989-.567.606-2.1-3.66-.975-4.285-2.269.107-1.7,4.86-1.814,6.01-1.131,3.937-2.57,3.879-5.747,6.853-7.938a12.024,12.024,0,0,0,6.858,2.839c-1.408,2.473-3.814,4.279-7.723,5.1.075,2.116.972,1.614,0,3.4,4.044-.6,9.793,1.395,15.437,0,.746,2.195-3.741.927-2.574,3.4.918,1.852,3.965,2.287,5.145,3.967,1-1.612,5.658-.8,6.01-2.831,2.191.055,1.371,2.109,2.569,2.831,4.245.348,5.492-1.282,8.576-1.7-.392-1.44-3.7-.953-4.294-2.268,1.669-1.171,5.236-1.082,7.725-1.7a2.76,2.76,0,0,0,.86,2.835c.923-.141.573-1.127,1.716-1.136l1.275.28.287-1.7-1.562.283V47.842l1.275.283c-.9-.366-1.657-.468-2.308-.723a1.14,1.14,0,0,1-.259-1.54l-1.284.283c-1.284-2.371,4.417-5.317,5.135-1.136,1.133-.683,1.352-.219,2.578,0-.634-1.658-2.072-2.787-3.434-3.969,1.429-1.81,2.636-.73,3.434-2.265,1-1.934-1.842-3.874-1.716-5.1.326-3.189,2.184-4.427,4.282-7.37.319-.962-.66-1.068-1.711-1.131,1.1-.972,1.781-2.23,4.294-2.267,1.634.993,3.072,2.121,3.42,3.969-1.117-.681-1.34-.221-2.56,0,.641,1.469,2.643,3.746.851,5.1,2.089-.887,5.091-1.174,6.851-2.268-.037-1.858-2.434-2.171-1.713-4.535,2.681-1.979,13.693-5.062,16.29-.567,3.786-1.365,2.128-2.311,2.578-3.969,3.879-1.2,5.338,2.077,6,1.136.643,3.648-9.208,5.249-6.86,11.9,2.2-.431,2.981-1.808,2.571-3.968,2.128-.938,3.923,1.756,4.292-1.7,4.037.212,4.315.718,5.991-1.131-.851-1.892-4.452-1.966-5.135-3.969,3.257,1.139,4.2-3.463,5.135-5.671,5.709-1.139,4.879-6.6,10.289-7.939,2.781-.7.653,1.84,3.434,1.138.4,3.856-3.807,4.665-6.851,6.237,1.734,3.842-4.525,11.363,7.709,11.335v2.27c1.876.358,2.741-1.608,2.576.564,2.567-.375-.825-1.209,0-2.267h2.578V29.7a11.571,11.571,0,0,1,2.124-.706,10.456,10.456,0,0,0,1.305-.428h-1.723c1.089-2.305,6.266-1.905,6-5.1-4.026-1.652-6.4,2-9.422,2.83-2.471-4.855,2.082-7.411,7.718-8.5-.709,1.6,1.208,1.47.853,2.834,1.543.071,1.811-.7,3.429-.563V22.9c4.075-.266.963.7,2.576,1.7.578-3.959,4.872-5.467,7.718-7.934,1.83-.267,1.629.809,1.706,1.7l-1.287.666.431,1.042c-1.138,3.308-1.839,8.961-7.714,7.365.077,1.841,5.117.4,4.285,2.838-1.641.238-3.693.2-3.42,1.7l-1.289-.286a4.066,4.066,0,0,1-.469,1.938c-.354.095-.72.191-1.254.33l1.291.286c.154.48-.34.533-.86.565l-1.065-.71a6.854,6.854,0,0,1-1.079.993l1.294.284V38.2c7.686-1.528,7.159-8.486,11.136-12.469,1.926.243,2.741,1.221,4.292,1.7,4.383-1.639,8.4-3.515,10.28-6.8,6.711.431,7.264,1.543,13.726,2.269-1.047,3.341,3.373,3.067,5.145,4.533h-.851V28c-2.837,1.912-8.709,1.806-11.145,3.97,7.466,1.652,10.889-4.47,19.714-2.835l.431.849,1.287-.281a2.452,2.452,0,0,1,.86,2.268c-1.476,1.1-3.7,1.719-4.292,3.4l-1.277.661a26.967,26.967,0,0,1,2.562,1.323l-.422-.852c1.07-.14.86-1.123,0-1.132,1.443-1.126,4.914-.9,6-2.268-.075,1,2.287,2.249,4.292,3.4-3.219,1.589.557,2.769.853,5.1,7.072,1.712,6.842-1.973,12-3.966,2.021.174,1.6,1.967,4.294,1.7,5.28-.642,3.4-2.348,6.86-5.672,1.59.462,3.457.736,4.294,1.7-.385,1.639-1.823,2.583-4.294,2.831.937,1.457,4.6,1.115,7.714,1.14,1.611,1-1.023,1.651.851,2.831,4.7-.639,4.767,1.764,7.728,2.269.881,1.9-2.674.881-4.3,1.131,1.58,2.731,5.7,1.249,8.578,2.269-2.089,3.787-2.156,6.034-3.431,9.639a38.462,38.462,0,0,0-7.718,0c.727,1.978,5.762,3.591.855,4.532.737,1.665,2.758-.338,4.292,0a2.771,2.771,0,0,0-.86,2.838c-3.019-.806-5.483,1.588-3.431,2.265-.862,1.383-3.457-2.322-5.147-.563-.469,1.974,5.76,2.416,6.01.563,1.877.085,1.837,1.428,1.713,2.839,2.762-.629,2.951-2.965,6.007-3.4-.884-2.948-.613-4.813,2.56-6.239l1.007.851.69-1.369,1.315-2.6-1.3.285c-.137-1.8,2.289-1.9,1.716-3.97-.259-.77-2.149-.472-3.434-.567a19.087,19.087,0,0,1,7.723-4.535c-.977-5.178,4.235-6.274,3.422-11.336,2.627.023,2.693-1.069,6.01-1.7.564-2.074-1.86-2.174-1.718-3.97,3.8-.784,7.5-.677,10.287.57-1.825,4.458,2.73,2.96,5.145,5.1-1.863,1.409-5.5,1.653-6.851,3.4.086,1.456,3.191.914,4.282,1.7.606,2.509-2.184,3.976.853,5.1-1.967.553-3.233-.773-6.851-.565l-.434-.85-.851,1.7,1.284-.284c.34,3.758-2.683,3.862-1.716,6.8-3.947-.527-3.538,1.817-5.147,2.837a15.656,15.656,0,0,1,9.432,0l1.294.285,1.275-.285c2.415.672.462,4.234,4.3,3.969-1.555.867-2.627,2.042-6.007,1.7-1.9.514-1.69,3.91-4.287,2.267-.135,1.408,1.352,1.756,1.727,2.834,3.944-2.674,11.054-3.272,14.574-6.237-.45-2.641-1.685-5.056.851-6.8l1.287.286c-1.5-1.871-.585-3.771,1.713-5.1l-1.285.283c-.8-2.215,4.448-4.867,6.849-6.8-.133-.664-1.55-.48-2.567-.568.746-.828.688-2.194,3.431-1.7l-.433.851,1.282-.285c1.163,2.29,6.662.192,5.159,2.267,3.746-1.824,10.264.867,12.863-2.267,5.156,1.4,9.506,4.088,7.7,8.505l-1.285-.283.431.846c-7.56.467-7.229-4.3-12.861-5.1-1.312,3.684,4.534,5.328,1.716,10.771,3.469,1.73,9.861,2.994,12.858,1.137-1.9-1.157-2.2-3.411-.86-5.672l1.294.283-.433-.849a14.7,14.7,0,0,0,6.863-1.7l.431.849a4.943,4.943,0,0,1,.433-2.268l-.863.285c-1.391.162-1.478-.537-2.569-.567,4.7-2.883-1.044-5.727-1.725-8.5,2.723-.1,2.865,1.5,6.007,1.13a2.487,2.487,0,0,1,1.706-2.832c2.508-.07,3.539,3.313.862,3.4a2.738,2.738,0,0,1-.862,2.833c6.229-1.355,12.036,1.152,17.152-1.133,6.373.164,6.87,3.1,11.147,3.4,2.212,1.468-4.469,2.342,0,3.968-2.3,2.316-8.961,2.623-8.578,5.1-2.795.036-3.266,1.612-6.863,1.135.534.506,1.044,1.013,0,1.137-4.007-.071.939-.829,0-2.271-.2-1.459-1.464.778-3.422,0l.424-1.037a50.643,50.643,0,0,1-7.714,1.512l1.285.66c.825,1.413-3.052,3.422.86,3.406-4.571,1.319-8.231,3.249-10.282,6.235l-1.294.281,3.431.566-.422-.848c3.352.231,5.443-1.471,6.849.567.928-.145.588-1.13,1.716-1.136-.233-1.17-3.8-.137-3.431-1.7-.7-2.164,1.83-2.192,3.431-2.834l.431.852,1.287-.285c3.823.373,1.553,3.521,2.574,4.537,1.471-1.991,3.415-2.8,3.436-6.805,1.513-1.076,4.257-1.343,5.991-2.267,3.725,1.319,2.252,6.071,5.145,7.938-2.851,1.515-5.762,2.991-6,6.234.308.746,1.506.891,1.716,1.7,1.879-.084,1.841-1.426,1.716-2.832,5.194.779,5.175-1.873,5.147-4.537,3.091-.783,7.8-1.586,6-3.969,2.874-.281,5.149-.955,7.786-1.388V109.9H0V40.483C6.32,42.606,4.9,35.151,11.1,35.37Z" transform="translate(0 1.033)"/>
    <path id="Path_396" data-name="Path 396" class="cls-1" d="M14.988,58.441c2.464-.12,4.352.141,5.135,1.135l-1.284.281.431.849c-.73.844-2.76.823-4.282,1.133l-.434-.848-1.282.284C12.629,59.532,15.62,60.185,14.988,58.441Z" transform="translate(17.545 7.44)"/>
    <path id="Path_397" data-name="Path 397" class="cls-1" d="M44.109,42.163l-.424.85,1.287.288c-.737.453-.508,1.552-1.713,1.7l-.863-.989L41.542,45c-1.009-.85-2.476-1.389-2.578-2.837l1.294.288c-1.867-2.391.881-5.5,3.644-7.065a6.786,6.786,0,0,1,1.515.053c.275.07.552.139.842.208l-5.3,6C42.4,41.571,44.225,41.223,44.109,42.163Z" transform="translate(51.865 4.441)"/>
    <path id="Path_398" data-name="Path 398" class="cls-1" d="M43.37,47.3c-2.62.409-2.522-.978-5.138-.566V43.9c2.415-.469,2.212.8,4.285.568l-.434.851,1.287.283Z" transform="translate(50.891 5.538)"/>
    <path id="Path_399" data-name="Path 399" class="cls-1" d="M112.848,39.377c-9.047.259-16.052,4.875-25.712,2.834-5.709,1.977-19.213,4.743-23.162,0C66.9,41.688,69,40.624,73.413,41.08v-.57l-.422-.269c-1.119-.4-3.669.147-3.007-1.431,1.263.3,2.163.837,3.429,1.135l-.434.285a1.184,1.184,0,0,1,.865.567l.434-.287h.842c2.613-2.711,6.59-2.382,13.733-2.833,3.739-.62,7.972-3.793,12.861-2.265a7.965,7.965,0,0,1,.856,1.133c1.541.037,2.375-1.248,3.429-1.133.394.042.881.99,1.706,1.133,1.944.322,5.693-.73,6.01,1.131l-1.289.666Z" transform="translate(85.156 4.394)"/>
    <path id="Path_400" data-name="Path 400" class="cls-1" d="M116.819,37.87l.434.853,1.284.28v1.133c-1.392.162-1.48-.535-2.569-.565l.422-.849-1.287-.286C115.122,37.888,116.157,38,116.819,37.87Z" transform="translate(153.214 4.767)"/>
    <path id="Path_401" data-name="Path 401" class="cls-1" d="M132.509,64.152l.431.568.434.563c-1.245.836-5.616.836-6.87,0,2-.753,1.657-3.067,5.156-2.833l-.434.855,1.284.279C132.509,63.776,132.509,63.962,132.509,64.152Z" transform="translate(168.39 7.962)"/>
    <path id="Path_402" data-name="Path 402" class="cls-1" d="M172.938,37.922c1.965-1.127.937.145,2.569.567l-.434.566.434.568Q172.157,40.133,172.938,37.922Z" transform="translate(230.003 4.714)"/>
    <path id="Path_403" data-name="Path 403" class="cls-1" d="M220.422,39.572a28.657,28.657,0,0,1-6.007,2.837c-1.247-.495-2.711-.851-2.571-2.271l.436-.849-.436-.851c3.914.88,3.627-.445,7.718-.567l-.424,1.04Z" transform="translate(281.973 4.767)"/>
    <path id="Path_404" data-name="Path 404" class="cls-1" d="M230.035,30.412c4.243-.411,5.49-.234,8.567-.565-.818,1.158-1.744,2.243-2.569,3.4h-6l.42-.852-1.282.284C228.809,31.491,229.767,31.176,230.035,30.412Z" transform="translate(304.944 3.723)"/>
    <path id="Path_405" data-name="Path 405" class="cls-1" d="M270.56,31.958c-.862,1.319-2.951,1.83-5.986,1.7l-.434-.851-.441-.849C266.169,31.131,268.754,30.376,270.56,31.958Z" transform="translate(351.012 3.877)"/>
    <path id="Path_406" data-name="Path 406" class="cls-1" d="M271.053,27.841c-.212,1.934-1.83,2.944-5.147,2.832v-1.7l.863-.566.853-.564Z" transform="translate(353.948 3.462)"/>
    <path id="Path_407" data-name="Path 407" class="cls-1" d="M288.679,30.849c1.359,1.179,6.814-.344,6.007,2.269l-.429.564.429.57c-2.569.372.818,1.21,0,2.269-3.1-1.062-2.154-1.84-6.86-1.14l.434-.846-1.294-.283C286.285,32.288,287.926,31.854,288.679,30.849Z" transform="translate(381.765 3.853)"/>
    <path id="Path_408" data-name="Path 408" class="cls-1" d="M293.977,40.756V38.525l-4.711-.887c1.8-.46,3.634.3,5.49.311.154.231.3.469.51.824l.429-.853a6.739,6.739,0,0,0,3.434.567,2.427,2.427,0,0,0-.863,2.269C296.637,41.819,296.117,40.817,293.977,40.756Z" transform="translate(385.043 4.717)"/>
    <path id="Path_409" data-name="Path 409" class="cls-1" d="M393.641,21.352c.019,2.47-2.744,3.1-3.434,5.1l-1.284-.283-.434.85C386.643,24.232,387.737,19.9,393.641,21.352Z" transform="translate(516.03 2.58)"/>
    <path id="Path_410" data-name="Path 410" class="cls-1" d="M391.009,30.348c1.534-.07,1.8.694,3.429.567.345,1.369-1.571,1.235-.86,2.833L392,33.465l-.993.852C388.452,33.447,390.121,31.8,391.009,30.348Z" transform="translate(518.662 3.788)"/>
    <path id="Path_411" data-name="Path 411" class="cls-1" d="M467.708,17.963c-.5,1.56-2.126,2.366-2.571,3.97h-4.282c-.375-1.084-2.455-1.024-1.713-2.832l-.436-.85-.429-.858C462.045,16.465,465.8,16.044,467.708,17.963Z" transform="translate(610.013 2.001)"/>
    <path id="Path_412" data-name="Path 412" class="cls-1" d="M478.642,23.325c1,.851,2.473,1.388,2.571,2.833-1.79.328-2.445,1.406-5.145,1.135l.431-.849-1.282-.286C474.856,24.218,477.782,24.456,478.642,23.325Z" transform="translate(632.523 2.875)"/>
    <path id="Path_413" data-name="Path 413" class="cls-1" d="M558.567,50.86c-3.189,2.589-7.7.561-11.152,1.7-1-2.485,1.571-6.159,4.282-7.934-.366-.7-1.082-1.164-2.569-1.133.891-1.494,3.4-1.908,4.292-3.4l.855.287.86-.287c1.667-.285,1.553-1.752,3.492-1.86V50.21c-.163-.067-.333-.123-.49-.2Z" transform="translate(728.373 4.814)"/>
    <path id="Path_414" data-name="Path 414" class="cls-1" d="M267.748,25.869c3.163-1.413,4.709,2.431,0,0Z" transform="translate(356.4 3.164)"/>
    <path id="Path_415" data-name="Path 415" class="cls-1" d="M396.493,34.316a3.246,3.246,0,0,1-2.585-2.834c1.14-.2,1.364-1,2.585-1.136,1.315.3.049.593-.872.567.023,1.124,2.35.721,1.713,2.269C396.5,33.2,396.677,33.878,396.493,34.316Z" transform="translate(524.332 3.788)"/>
    <path id="Path_416" data-name="Path 416" class="cls-1" d="M163.273,33.593c-2.415-1.32-3.373-.661-7.723-1.136-1.716-1.154.382-1.11.862-2.266-2.273-.959-8.124.46-8.569-1.7l.853-.564.853-.568a31.02,31.02,0,0,1,15.437,2.268l-.431,1.037,1.284.662C166.1,32.815,162.515,31.769,163.273,33.593Z" transform="translate(196.794 3.377)"/>
    <path id="Path_417" data-name="Path 417" class="cls-1" d="M407.837,24.228l.434.851c1.7.765,1.828,3.362.849,5.1l-1.566-.286-1,.853c-1.387-1.166-1.3-3.3-3.438-3.97-.305-2.3,4.093-5.524,6-2.837l1.289-.281C410.291,24.515,409.149,24.478,407.837,24.228Z" transform="translate(536.563 2.822)"/>
    <path id="Path_418" data-name="Path 418" class="cls-1" d="M164.819,26.972c-1.112,1.749-1.119-1.63.86-1.135C167.311,26.327,164.761,26.178,164.819,26.972Z" transform="translate(218.391 3.195)"/>
    <path id="Path_419" data-name="Path 419" class="cls-1" d="M482.3,21.01c-2.48-.311,1.312-.883.863-1.7C486,19.867,482.2,20.433,482.3,21.01Z" transform="translate(640.863 2.352)"/>
    <path id="Path_420" data-name="Path 420" class="cls-1" d="M428,20.9v-.568l.851-.567a2.818,2.818,0,0,1-2.574-1.983l1.758,1.353a10.1,10.1,0,0,0,1.678-3.336c3.208.046,2.445.634,5.147,0C434.744,18.936,431.079,19.733,428,20.9Z" transform="translate(567.416 1.896)"/>
    <path id="Path_421" data-name="Path 421" class="cls-1" d="M229.441,30.32a33.422,33.422,0,0,1-12.863,0c-.191-2.078-1.177-2.178,0-3.97a71.95,71.95,0,0,1,14.576.567C228.8,28.3,227.063,28.4,229.441,30.32Z" transform="translate(287.531 3.25)"/>
    <path id="Path_422" data-name="Path 422" class="cls-1" d="M412.677,34.973c1.571.953.844,2.425,1.562,3.606l-2.856-3.97C411.8,34.786,412.236,34.836,412.677,34.973Z" transform="translate(547.593 4.343)"/>
    <path id="Path_423" data-name="Path 423" class="cls-1" d="M406.655,35.111l-1.138,3.4A4.26,4.26,0,0,1,406.655,35.111Z" transform="translate(539.736 4.408)"/>
    <path id="Path_424" data-name="Path 424" class="cls-1" d="M134.837,35.867a23.571,23.571,0,0,1-3,.093Z" transform="translate(175.491 4.506)"/>
    <path id="Path_425" data-name="Path 425" class="cls-1" d="M168.554,31.352l-.851,1.414A2.554,2.554,0,0,1,168.554,31.352Z" transform="translate(223.23 3.919)"/>
    <path id="Path_426" data-name="Path 426" class="cls-1" d="M180.817,31.887l-3-.285A10.69,10.69,0,0,1,180.817,31.887Z" transform="translate(236.693 3.949)"/>
    <path id="Path_427" data-name="Path 427" class="cls-1" d="M84.745,27.923l-20.586,1.89C70.791,28.027,77.873,28.482,84.745,27.923Z" transform="translate(85.402 3.473)"/>
    <path id="Path_428" data-name="Path 428" class="cls-1" d="M61.456,29.345l-4.285.567C58.607,29.579,60.034,29.536,61.456,29.345Z" transform="translate(76.101 3.658)"/>
    <path id="Path_429" data-name="Path 429" class="cls-1" d="M301.475,28.76a18.474,18.474,0,0,1-2.1-.919Z" transform="translate(398.505 3.462)"/>
    <path id="Path_430" data-name="Path 430" class="cls-1" d="M497.222,28.345c-1.713-.232-2.107-1.3-2.818-2.223Z" transform="translate(658.103 3.238)"/>
    <path id="Path_431" data-name="Path 431" class="cls-1" d="M495.247,26.258l-1.476-1.179A3.116,3.116,0,0,1,495.247,26.258Z" transform="translate(657.26 3.103)"/>
    <path id="Path_432" data-name="Path 432" class="cls-1" d="M110.486,25.622l-23.153.568C95.145,25.771,102.8,24.732,110.486,25.622Z" transform="translate(116.249 3.128)"/>
    <path id="Path_433" data-name="Path 433" class="cls-1" d="M114.72,25.434l-14.145-.564C105.272,23.916,110.053,25.274,114.72,25.434Z" transform="translate(133.876 3.032)"/>
    <path id="Path_434" data-name="Path 434" class="cls-1" d="M80.345,26.4l8.143-.567C86.017,26.678,83.093,26.386,80.345,26.4Z" transform="translate(106.948 3.201)"/>
    <path id="Path_435" data-name="Path 435" class="cls-1" d="M205.035,24.358l6-.28C209.233,24.824,207.028,24.233,205.035,24.358Z" transform="translate(272.923 2.973)"/>
    <path id="Path_436" data-name="Path 436" class="cls-1" d="M191.431,23.824l-2.581,1.138A18.185,18.185,0,0,1,191.431,23.824Z" transform="translate(251.379 2.939)"/>
    <path id="Path_437" data-name="Path 437" class="cls-1" d="M200.13,22.32l-1.718.851C198.976,22.747,199.142,22.285,200.13,22.32Z" transform="translate(264.107 2.744)"/>
    <path id="Path_438" data-name="Path 438" class="cls-1" d="M418.738,19.69l.42-1.131A2.5,2.5,0,0,1,418.738,19.69Z" transform="translate(557.384 2.255)"/>
    <path id="Path_439" data-name="Path 439" class="cls-1" d="M372.752,14.8,368.9,17.629C369.675,16.48,371.44,15.647,372.752,14.8Z" transform="translate(491.045 1.765)"/>
    <path id="Path_440" data-name="Path 440" class="cls-1" d="M424.99,13.24l1.716-1.7C426.494,12.317,426.034,12.733,424.99,13.24Z" transform="translate(565.706 1.341)"/>
    <path id="Path_441" data-name="Path 441" class="cls-1" d="M426.828,11.037l4.655,1.317A16.293,16.293,0,0,1,426.828,11.037Z" transform="translate(568.152 1.276)"/>
    <path id="Path_442" data-name="Path 442" class="cls-1" d="M6.656,55.063l-1.716-3.4A4.1,4.1,0,0,1,6.656,55.063Z" transform="translate(6.576 6.562)"/>
    <path id="Path_443" data-name="Path 443" class="cls-1" d="M19.392,60.8l-3.41-.906C17.642,60.049,20.458,59.5,19.392,60.8Z" transform="translate(21.274 7.632)"/>
    <path id="Path_444" data-name="Path 444" class="cls-1" d="M13.4,62.96l.853-2.265A20.188,20.188,0,0,1,13.4,62.96Z" transform="translate(17.842 7.736)"/>
    <path id="Path_445" data-name="Path 445" class="cls-1" d="M40.371,52.195H36.94A6.244,6.244,0,0,1,40.371,52.195Z" transform="translate(49.171 6.6)"/>
    <path id="Path_446" data-name="Path 446" class="cls-1" d="M39.884,45.423l1.287-2.408C41.381,43.838,40.6,44.815,39.884,45.423Z" transform="translate(53.09 5.436)"/>
    <path id="Path_447" data-name="Path 447" class="cls-1" d="M65.875,38.251l-9.441-.944C59.714,36.737,62.847,37.68,65.875,38.251Z" transform="translate(75.12 4.671)"/>
    <path id="Path_448" data-name="Path 448" class="cls-1" d="M80.345,56.7l4.28-4.533C83.909,53.833,83.767,56.656,80.345,56.7Z" transform="translate(106.948 6.627)"/>
    <path id="Path_449" data-name="Path 449" class="cls-1" d="M81.45,58.314a9.182,9.182,0,0,1,1.7-1.13Z" transform="translate(108.418 7.28)"/>
    <path id="Path_450" data-name="Path 450" class="cls-1" d="M98.855,49.156a13.57,13.57,0,0,1-3.431,2.27Z" transform="translate(127.019 6.235)"/>
    <path id="Path_451" data-name="Path 451" class="cls-1" d="M114.309,30.1l-4.723.281A21.718,21.718,0,0,1,114.309,30.1Z" transform="translate(145.87 3.754)"/>
    <path id="Path_452" data-name="Path 452" class="cls-1" d="M117.619,25.123c3.1.457,5.483-1.167,8.569-.79L115.474,28.3C116.343,27.318,116.171,25.854,117.619,25.123Z" transform="translate(153.708 2.998)"/>
    <path id="Path_453" data-name="Path 453" class="cls-1" d="M144.7,26.445l-20.586-.85A130.518,130.518,0,0,1,144.7,26.445Z" transform="translate(165.209 3.155)"/>
    <path id="Path_454" data-name="Path 454" class="cls-1" d="M114.182,38.625h3.434A8.051,8.051,0,0,1,114.182,38.625Z" transform="translate(151.988 4.865)"/>
    <path id="Path_455" data-name="Path 455" class="cls-1" d="M128.529,63.336a8.362,8.362,0,0,1,1.713-1.136Z" transform="translate(171.085 7.932)"/>
    <path id="Path_456" data-name="Path 456" class="cls-1" d="M213.489,29.781c2.5-.789,5.229.538,7.711-.176l-11.565,3.257C211.321,32.128,212.079,30.748,213.489,29.781Z" transform="translate(279.047 3.681)"/>
    <path id="Path_457" data-name="Path 457" class="cls-1" d="M217.508,38.462l-2.541.371A5.578,5.578,0,0,1,217.508,38.462Z" transform="translate(286.143 4.844)"/>
    <path id="Path_458" data-name="Path 458" class="cls-1" d="M216.057,38.506l2.6-.384A5.362,5.362,0,0,1,216.057,38.506Z" transform="translate(287.594 4.8)"/>
    <path id="Path_459" data-name="Path 459" class="cls-1" d="M215.03,39.159l-5.264.495C211.549,39.372,213.141,38.366,215.03,39.159Z" transform="translate(279.22 4.896)"/>
    <path id="Path_460" data-name="Path 460" class="cls-1" d="M219.991,40.7l-1.713-.565A6.182,6.182,0,0,1,219.991,40.7Z" transform="translate(290.551 5.061)"/>
    <path id="Path_461" data-name="Path 461" class="cls-1" d="M228.573,33.8a9.924,9.924,0,0,1,2.571-1.7Z" transform="translate(304.254 4.016)"/>
    <path id="Path_462" data-name="Path 462" class="cls-1" d="M264.381,32.6l-.862,2.268A3.783,3.783,0,0,1,264.381,32.6Z" transform="translate(350.771 4.082)"/>
    <path id="Path_463" data-name="Path 463" class="cls-1" d="M275.174,31.412a7.71,7.71,0,0,1,2.807-.312l-3.429,2.268C274.757,32.992,274.6,32.088,275.174,31.412Z" transform="translate(365.457 3.885)"/>
    <path id="Path_464" data-name="Path 464" class="cls-1" d="M311.966,23.886l-1.284-.283c.937.945.73,1.89,0,2.833v-2.26c-6.94-4.378-15.973.088-22.724-3.124-2.366,1.653-4.145,1.123-6.86,1.7,1.716.627,3.182.253,6,1.131.89,2.67-1.977,2.853-3.431,3.969-3.965-1.617-10.054-2.04-13.716,0l-1.284-.283-.431.85a6.767,6.767,0,0,0-3.431-.567c5.693-3.981-.737-15.978,8.578-17.572.469,8.21,15.087,6.616,24.859,6.237l-.42.848,1.28-.283c3.086,1.96,7.275.108,12.863,1.131.93,1.778-.988,4.041,3.434,2.838C315.761,22.992,312.828,22.757,311.966,23.886Z" transform="translate(352.48 1.178)"/>
    <path id="Path_465" data-name="Path 465" class="cls-1" d="M266.354,27.347l.249-1.765A3.562,3.562,0,0,1,266.354,27.347Z" transform="translate(354.545 3.168)"/>
    <path id="Path_466" data-name="Path 466" class="cls-1" d="M267.988,28.341l-3,.287A8.076,8.076,0,0,1,267.988,28.341Z" transform="translate(352.729 3.526)"/>
    <path id="Path_467" data-name="Path 467" class="cls-1" d="M278.969,16.715c1.357-.684,2.154-1.078,3-1.416Z" transform="translate(371.337 1.83)"/>
    <path id="Path_468" data-name="Path 468" class="cls-1" d="M284.484,24.642l1.713-.564A6.069,6.069,0,0,1,284.484,24.642Z" transform="translate(378.678 2.973)"/>
    <path id="Path_469" data-name="Path 469" class="cls-1" d="M286.563,24.577l-3.641,6.744C283.614,28.908,281.61,25.942,286.563,24.577Z" transform="translate(376.598 3.037)"/>
    <path id="Path_470" data-name="Path 470" class="cls-1" d="M285.22,34.64a8.007,8.007,0,0,1,2.445-.266Z" transform="translate(379.657 4.312)"/>
    <path id="Path_471" data-name="Path 471" class="cls-1" d="M286.269,34.408l2.7-.3A8.387,8.387,0,0,1,286.269,34.408Z" transform="translate(381.054 4.278)"/>
    <path id="Path_472" data-name="Path 472" class="cls-1" d="M290,33.42l6.429-.564A19.423,19.423,0,0,1,290,33.42Z" transform="translate(386.023 4.114)"/>
    <path id="Path_473" data-name="Path 473" class="cls-1" d="M294.846,34.109l1.487,1.96C295.681,35.422,294.338,35.091,294.846,34.109Z" transform="translate(392.321 4.278)"/>
    <path id="Path_474" data-name="Path 474" class="cls-1" d="M351.084,23.351c1.872-.359,3.711.608,5.485.536l-6.742,1.428C350.2,24.606,350.392,23.772,351.084,23.351Z" transform="translate(465.657 2.868)"/>
    <path id="Path_475" data-name="Path 475" class="cls-1" d="M364.911,11.6l-1.711-.566A6.084,6.084,0,0,1,364.911,11.6Z" transform="translate(483.457 1.276)"/>
    <path id="Path_476" data-name="Path 476" class="cls-1" d="M378.75,33.317l.613-1.214A1.383,1.383,0,0,1,378.75,33.317Z" transform="translate(504.155 4.017)"/>
    <path id="Path_477" data-name="Path 477" class="cls-1" d="M387.843,36.351l.853-10.769C388.456,29.1,389.041,32.867,387.843,36.351Z" transform="translate(516.259 3.168)"/>
    <path id="Path_478" data-name="Path 478" class="cls-1" d="M390.949,35.086l-.291-1.981A7.787,7.787,0,0,1,390.949,35.086Z" transform="translate(520.006 4.147)"/>
    <path id="Path_479" data-name="Path 479" class="cls-1" d="M385.635,47.653l3.578.99A10.257,10.257,0,0,1,385.635,47.653Z" transform="translate(513.32 6.04)"/>
    <path id="Path_480" data-name="Path 480" class="cls-1" d="M397.873,50.606c-.653.262-1.392.362-2.308.73l2.478-1.476A2.324,2.324,0,0,0,397.873,50.606Z" transform="translate(526.538 6.327)"/>
    <path id="Path_481" data-name="Path 481" class="cls-1" d="M398.439,48.9l-1.811,1.079A1.908,1.908,0,0,1,398.439,48.9Z" transform="translate(527.953 6.202)"/>
    <path id="Path_482" data-name="Path 482" class="cls-1" d="M456.62,17.892l4.292.192A27.436,27.436,0,0,1,456.62,17.892Z" transform="translate(607.809 2.168)"/>
    <path id="Path_483" data-name="Path 483" class="cls-1" d="M471.152,25.33l3.863.285A13,13,0,0,1,471.152,25.33Z" transform="translate(627.152 3.135)"/>
    <path id="Path_484" data-name="Path 484" class="cls-1" d="M475.013,27.782a8.2,8.2,0,0,1,1.716-1.7Z" transform="translate(632.292 3.234)"/>
    <path id="Path_485" data-name="Path 485" class="cls-1" d="M518.782,38.252l.863-1.133A3.005,3.005,0,0,1,518.782,38.252Z" transform="translate(690.553 4.669)"/>
    <path id="Path_486" data-name="Path 486" class="cls-1" d="M529.816,45.146a14.862,14.862,0,0,1,2.054,1.8Z" transform="translate(705.24 5.713)"/>
    <path id="Path_487" data-name="Path 487" class="cls-1" d="M537.175,55.811a12.745,12.745,0,0,1,.853-1.139Z" transform="translate(715.036 6.953)"/>
    <path id="Path_488" data-name="Path 488" class="cls-1" d="M550.26,39.929l.366-3.813C551.008,37.4,550.451,38.659,550.26,39.929Z" transform="translate(732.453 4.539)"/>
    <path id="Path_489" data-name="Path 489" class="cls-1" d="M546.736,26.585c3.452,1.269,4.844,3.773,3.434,6.236Z" transform="translate(727.762 3.299)"/>
    <path id="Path_490" data-name="Path 490" class="cls-1" d="M159.3,30.372l-4.282-.095A14.179,14.179,0,0,1,159.3,30.372Z" transform="translate(206.338 3.763)"/>
    <path id="Path_491" data-name="Path 491" class="cls-1" d="M145.941,28.665c-.277-.1-.338-.608-.518-1.2a4.064,4.064,0,0,0-.343-.78c2.317-.46,4.79-1.1,7.245-.739.534.448.4,1.414.047,2.158l-2.769.242A12.354,12.354,0,0,1,145.941,28.665Z" transform="translate(193.118 3.202)"/>
    <path id="Path_492" data-name="Path 492" class="cls-1" d="M140.849,30.608l10.728-2.268c-.086.258-.182.513-.268.767C148.278,30.679,144.234,30.109,140.849,30.608Z" transform="translate(187.485 3.527)"/>
    <path id="Path_493" data-name="Path 493" class="cls-1" d="M149.487,26.654l-7.716-.565C144.328,26.242,147.214,25.666,149.487,26.654Z" transform="translate(188.712 3.23)"/>
  </g>
</svg>
