<svg xmlns="http://www.w3.org/2000/svg" viewBox="-2566 8058.9 1287 139.1">
  <defs>
    <style>
      .cls-1 {
        fill: #fff;
      }
    </style>
  </defs>
  <g id="borde" transform="translate(-2566 8057.67)">
    <path id="Path_312" data-name="Path 312" class="cls-1" d="M119.422,64.1c3.061.225,4.49,1.4,4.3-2.155,2,.232.832,3.135,2.567,3.6-.007,3.105-6.205,1.023-6.86,3.592-1.5-.175-1.951-1.231-1.711-2.879C120.869,67.962,117.354,65.364,119.422,64.1Z" transform="translate(156.607 26.289)"/>
    <path id="Path_313" data-name="Path 313" class="cls-1" d="M124.734,62.462c2.326-.512-.615,3.395,1.713,2.879C125.135,67.6,122.746,63.226,124.734,62.462Z" transform="translate(165.022 26.491)"/>
    <path id="Path_314" data-name="Path 314" class="cls-1" d="M119.19,59.09a8.112,8.112,0,0,1-5.147,2.872c-1.935-1.55.711-2.45,0-5.031C116.6,56.945,116.969,58.8,119.19,59.09Z" transform="translate(150.842 24.117)"/>
    <path id="Path_315" data-name="Path 315" class="cls-1" d="M20.2,60.814c.354-1.386,3.326-.567,2.581-2.879C26.953,58.808,21.836,62.7,20.2,60.814Z" transform="translate(26.894 24.551)"/>
    <path id="Path_316" data-name="Path 316" class="cls-1" d="M13.5,57.565c-2.636-.534-1.648,1.977-4.282,1.439C6.232,56.356,13.479,53.357,13.5,57.565Z" transform="translate(11.31 23.484)"/>
    <path id="Path_317" data-name="Path 317" class="cls-1" d="M129.877,50.432c2.961-.507,3.065,2.513,1.713,3.587C129.85,53.5,128.087,51.862,129.877,50.432Z" transform="translate(171.884 21.278)"/>
    <path id="Path_318" data-name="Path 318" class="cls-1" d="M129.321,50.933c-.249,1.467-2.308,1.409-2.569,2.875a2.019,2.019,0,0,1-1.716-2.155A6.471,6.471,0,0,1,129.321,50.933Z" transform="translate(166.433 21.49)"/>
    <path id="Path_319" data-name="Path 319" class="cls-1" d="M75.391,53.395c-1.387.2-1.485-.679-2.574-.719C72.468,51.281,76.715,51.632,75.391,53.395Z" transform="translate(96.901 21.903)"/>
    <path id="Path_320" data-name="Path 320" class="cls-1" d="M72.507,46.4c2.326,1.169,4.984,2.049,6.849,3.591C77.638,55.381,69.183,51.274,72.507,46.4Z" transform="translate(95.493 19.556)"/>
    <path id="Path_321" data-name="Path 321" class="cls-1" d="M82.371,47.9c-.373,1.126-2.7.615-1.716,2.873-1.168-.224-.72-1.8-.863-2.873Z" transform="translate(106.213 20.208)"/>
    <path id="Path_322" data-name="Path 322" class="cls-1" d="M18.737,46.4c2.4.139,3.648,1.252,3.42,3.591C19.886,49.747,19.273,48.106,18.737,46.4Z" transform="translate(24.941 19.556)"/>
    <path id="Path_323" data-name="Path 323" class="cls-1" d="M92.178,45.4c.825,2.852-2.48,2.23-4.294,2.876C88.047,46.255,89.381,45.216,92.178,45.4Z" transform="translate(116.983 19.116)"/>
    <path id="Path_324" data-name="Path 324" class="cls-1" d="M418.306,40.263c5.2,3.885-3.944,12.068-8.567,7.909-.317-2.18,2.795-1.493,4.294-2.158,1.023-2.013.937-4.958.851-7.909l1.571.361,1-1.079C419.485,36.8,421.555,40.853,418.306,40.263Z" transform="translate(545.375 15.629)"/>
    <path id="Path_325" data-name="Path 325" class="cls-1" d="M509.552,46.079c-2.138-.294-.049-2.789,1.725-2.158C510.972,44.865,509.764,45.053,509.552,46.079Z" transform="translate(677.061 18.44)"/>
    <path id="Path_326" data-name="Path 326" class="cls-1" d="M64.711,45.33H62.14V43.891h2.571Z" transform="translate(82.715 18.471)"/>
    <path id="Path_327" data-name="Path 327" class="cls-1" d="M11.745,45.082c-.867-.467-.893-1.652-2.574-1.44.669-1.651,5.308-.7,4.292,1.44C12.7,44.636,11.929,44.211,11.745,45.082Z" transform="translate(12.208 18.001)"/>
    <path id="Path_328" data-name="Path 328" class="cls-1" d="M123.441,42.892c-.737,1.066-2.156,1.545-4.292,1.437Q120.236,42.728,123.441,42.892Z" transform="translate(158.6 18.032)"/>
    <path id="Path_329" data-name="Path 329" class="cls-1" d="M515.965,43.476c-1.753-.523-3.506-2.168-1.716-3.6.832.026.66.883.851,1.44.832-.02.662-.88.865-1.44a4.553,4.553,0,0,0,2.569.722C519.28,42.9,515.7,41.581,515.965,43.476Z" transform="translate(683.52 16.733)"/>
    <path id="Path_330" data-name="Path 330" class="cls-1" d="M61.4,40.925a3.076,3.076,0,0,1,5.142-.722C66.441,41.79,62.916,40.514,61.4,40.925Z" transform="translate(81.731 16.406)"/>
    <path id="Path_331" data-name="Path 331" class="cls-1" d="M407.883,38.474l-1-1.083-1.56.364c-.24-3.554,2.49-4.613,2.56-7.909,5.289.632,1.846,4.164,3.431,7.909C409.781,37.66,409.508,38.634,407.883,38.474Z" transform="translate(539.508 12.39)"/>
    <path id="Path_332" data-name="Path 332" class="cls-1" d="M163.816,40.678c-3.639.658-3.657-1.722-3.42-4.31A5.154,5.154,0,0,1,163.816,40.678Z" transform="translate(213.391 15.214)"/>
    <path id="Path_333" data-name="Path 333" class="cls-1" d="M124.062,39.575c-2.534-1.035,1.014-2.892,3.431-2.155C127.712,40.4,124.167,38.373,124.062,39.575Z" transform="translate(163.976 15.596)"/>
    <path id="Path_334" data-name="Path 334" class="cls-1" d="M546.739,39.275c-2.082-.449-.464-3.628,1.711-2.872C550.042,39.369,547.8,38.538,546.739,39.275Z" transform="translate(726.482 15.179)"/>
    <path id="Path_335" data-name="Path 335" class="cls-1" d="M269.336,36.368c.7.135.853.719,1.718.715-.163.582-.865.716-.855,1.437-.7-.136-.863-.721-1.713-.718C268.648,37.222,269.336,37.087,269.336,36.368Z" transform="translate(357.381 15.214)"/>
    <path id="Path_336" data-name="Path 336" class="cls-1" d="M139.6,37.583c-1.667.284-1.254-3.27.853-2.152v1.437C139.725,36.735,139.648,37.148,139.6,37.583Z" transform="translate(184.452 14.714)"/>
    <path id="Path_337" data-name="Path 337" class="cls-1" d="M160.462,36.614,160.9,35.3l-1.287-.843c1.7-3.369,5.933-1.4,10.292-1.437v4.315C166.756,35.146,162.782,39.909,160.462,36.614Z" transform="translate(212.456 13.531)"/>
    <path id="Path_338" data-name="Path 338" class="cls-1" d="M139.618,35.555c-.72,1.065-2.156,1.542-4.285,1.437C135.958,35.529,137.911,34.054,139.618,35.555Z" transform="translate(180.142 14.59)"/>
    <path id="Path_339" data-name="Path 339" class="cls-1" d="M273.76,33.532c-1.921.807-3.147,4.349-6.012,2.154C267.769,32.692,271.086,32.455,273.76,33.532Z" transform="translate(356.4 13.732)"/>
    <path id="Path_340" data-name="Path 340" class="cls-1" d="M219.038,35.23c-1.226-.062-2.436-.118-2.576.712-2-.182-.49-3.153,0-3.59C217.716,32.981,219.788,32.926,219.038,35.23Z" transform="translate(286.789 13.475)"/>
    <path id="Path_341" data-name="Path 341" class="cls-1" d="M43.748,33.859h2.569v1.432H43.748Z" transform="translate(58.233 14.127)"/>
    <path id="Path_342" data-name="Path 342" class="cls-1" d="M423.385,27.4c1.562,3.9-2.671,8.636-6.851,10.064C415.049,34.009,418.893,25.831,423.385,27.4Z" transform="translate(554.018 11.245)"/>
    <path id="Path_343" data-name="Path 343" class="cls-1" d="M217.726,33.615c1.2-2.088,4.226.209,5.147.722C221.722,36.384,219.057,33.782,217.726,33.615Z" transform="translate(289.816 13.649)"/>
    <path id="Path_344" data-name="Path 344" class="cls-1" d="M149.546,32.032c-1.487,2.135-5.683,4.925-9.432,2.877V32.032C142.9,31.053,145.357,31.449,149.546,32.032Z" transform="translate(186.506 13.079)"/>
    <path id="Path_345" data-name="Path 345" class="cls-1" d="M72.668,34.089c-.212,1.684-3.758.411-4.273,0C69.113,31.978,70.54,35.025,72.668,34.089Z" transform="translate(91.041 13.897)"/>
    <path id="Path_346" data-name="Path 346" class="cls-1" d="M502.8,35.163c-1.084-1.247-2.9-1.887-2.571-4.315C502.358,31.305,503.913,34.147,502.8,35.163Z" transform="translate(665.807 12.824)"/>
    <path id="Path_347" data-name="Path 347" class="cls-1" d="M267.012,33.789V32.353h1.716v1.436Z" transform="translate(355.421 13.475)"/>
    <path id="Path_348" data-name="Path 348" class="cls-1" d="M180.943,34.223c-.119-2.257,2.2-2.468,4.292-2.872C184.937,33.26,182.986,33.773,180.943,34.223Z" transform="translate(240.849 13.042)"/>
    <path id="Path_349" data-name="Path 349" class="cls-1" d="M503.522,32.068c.718.132.8-.281.844-.716,1.016.115.73,1.311.86,2.157C503.771,33.769,503.61,32.944,503.522,32.068Z" transform="translate(670.24 13.042)"/>
    <path id="Path_350" data-name="Path 350" class="cls-1" d="M410.06,31.4V33.56C407.561,34.614,407.561,30.341,410.06,31.4Z" transform="translate(543.338 12.99)"/>
    <path id="Path_351" data-name="Path 351" class="cls-1" d="M222.8,32.571c.24,1.142-4.639,1.009-2.571-.719C219.89,32.131,222.8,32.622,222.8,32.571Z" transform="translate(292.461 13.258)"/>
    <path id="Path_352" data-name="Path 352" class="cls-1" d="M149.043,31.995c-4.343,2.545-4.714-1.857,0,0Z" transform="translate(193.869 13.116)"/>
    <path id="Path_353" data-name="Path 353" class="cls-1" d="M185.029,32.321c-.69-2.731,4.051-.913,6-1.437C190.906,32.939,187.453,32.2,185.029,32.321Z" transform="translate(246.202 12.79)"/>
    <path id="Path_354" data-name="Path 354" class="cls-1" d="M504.068,28.34c-.086,2.687-.97,2.051,0,4.316C501.345,32.331,500.821,28.79,504.068,28.34Z" transform="translate(667.981 11.738)"/>
    <path id="Path_355" data-name="Path 355" class="cls-1" d="M73.3,30.009l.431-1.315-1.3-.838c4.035-1.376,12.525-2.667,15.439-.719C86.109,30.691,79.344,30.047,73.3,30.009Z" transform="translate(96.419 10.787)"/>
    <path id="Path_356" data-name="Path 356" class="cls-1" d="M496.889,29.926c-3.352.807-4.082,2.149-7.714.722q.465-3.923,5.135-4.315C494.313,28.253,497.024,27.9,496.889,29.926Z" transform="translate(651.143 10.869)"/>
    <path id="Path_357" data-name="Path 357" class="cls-1" d="M492.116,26.939V24.062a6.5,6.5,0,0,1,4.292-.715,3.524,3.524,0,0,1,.851,2.873l-1.284-.36-.431,1.079Z" transform="translate(655.057 9.545)"/>
    <path id="Path_358" data-name="Path 358" class="cls-1" d="M550.947,25.833c2.4-.106,2.464,1.761,2.569,3.594C551.579,28.947,549.208,27.272,550.947,25.833Z" transform="translate(732.563 10.651)"/>
    <path id="Path_359" data-name="Path 359" class="cls-1" d="M507.563,27.586c2.6-2.658,2.9,2.18,0,0Z" transform="translate(675.619 11.056)"/>
    <path id="Path_360" data-name="Path 360" class="cls-1" d="M509.052,25.857c2.242-.2,4.294-.241,3.431,2.158C510.241,28.216,508.793,27.753,509.052,25.857Z" transform="translate(677.561 10.627)"/>
    <path id="Path_361" data-name="Path 361" class="cls-1" d="M96.715,26.614,98,26.256l-.431-1.076c1.993-.768,8.175-1.727,9.429-.724l-1.284.724L107,25.9C104.7,27.847,98.61,30.307,96.715,26.614Z" transform="translate(128.738 9.87)"/>
    <path id="Path_362" data-name="Path 362" class="cls-1" d="M50.245,27.6a2.031,2.031,0,0,1-1.713-2.158c2.636-.5,1.648-.5,4.292,0C52.718,26.8,49.979,25.943,50.245,27.6Z" transform="translate(64.597 10.321)"/>
    <path id="Path_363" data-name="Path 363" class="cls-1" d="M279.384,23.331c.413,2.263-1.217,2.81-1.7,4.312-1.9.4-1.226-1.37-2.576-1.439C275.265,24.185,276.6,23.145,279.384,23.331Z" transform="translate(366.192 9.56)"/>
    <path id="Path_364" data-name="Path 364" class="cls-1" d="M193.815,26.079c2.6-2.654,2.9,2.182,0,0Z" transform="translate(257.988 10.405)"/>
    <path id="Path_365" data-name="Path 365" class="cls-1" d="M286.137,24.685c.73-2.561,2.117-.087,5.156-.719C289.8,25.988,289.042,24.641,286.137,24.685Z" transform="translate(380.878 9.641)"/>
    <path id="Path_366" data-name="Path 366" class="cls-1" d="M222.5,25.2c-2.1-1.5-1.832-1.026-5.145-.719.86-1.669,2.949-2.314,6.007-2.155C223.468,23.617,222.31,23.847,222.5,25.2Z" transform="translate(289.323 9.124)"/>
    <path id="Path_367" data-name="Path 367" class="cls-1" d="M183.747,24.787c-3.518-.784,3.056-3,1.723,0C184.7,24.349,183.931,23.926,183.747,24.787Z" transform="translate(243.19 9.539)"/>
    <path id="Path_368" data-name="Path 368" class="cls-1" d="M417.084,22.4c.816-1.476,1.065-3.422,3.434-3.591l.424,1.069,1.282.364c.366,1.37,1.851,1.808,1.716,3.592C421.637,25.559,419.373,22.878,417.084,22.4Z" transform="translate(555.182 7.613)"/>
    <path id="Path_369" data-name="Path 369" class="cls-1" d="M417.451,18.893c.5-1.5,1.8-2.327,2.576-3.594a4.5,4.5,0,0,0,2.56.721c.124,1.773.142,3.466-.853,4.316l-.862-.365-.842-.358C418.638,19.817,418.544,18.934,417.451,18.893Z" transform="translate(555.671 6.092)"/>
    <path id="Path_370" data-name="Path 370" class="cls-1" d="M414.436,23.488c-.583-1.426-5.107.449-4.282-2.155C412.6,21.191,414.833,21.24,414.436,23.488Z" transform="translate(545.824 8.684)"/>
    <path id="Path_371" data-name="Path 371" class="cls-1" d="M445.4,19.813c1.266.374,2.154,1.068,3.424,1.434-2.168.573-3.254,2.069-5.991,2.158C443.6,22.137,444.9,21.31,445.4,19.813Z" transform="translate(589.457 8.046)"/>
    <path id="Path_372" data-name="Path 372" class="cls-1" d="M344.254,20.316c3.161-.019,5.9.322,6,2.872C347.091,23.208,344.352,22.868,344.254,20.316Z" transform="translate(458.238 8.264)"/>
    <path id="Path_373" data-name="Path 373" class="cls-1" d="M403.842,22.477c.741-1.058,1.287-2.281,3.436-2.158C407.525,22.209,406.089,22.679,403.842,22.477Z" transform="translate(537.556 8.261)"/>
    <path id="Path_374" data-name="Path 374" class="cls-1" d="M490.647,20.316h3.424v1.437h-3.424Z" transform="translate(653.102 8.264)"/>
    <path id="Path_375" data-name="Path 375" class="cls-1" d="M298.632,16.3c-.534,3.145-4.387,3.508-5.145,6.467-2.625-1.154-4.676-2.787-5.138-5.748C291.965,15.813,293.659,16.851,298.632,16.3Z" transform="translate(383.822 6.526)"/>
    <path id="Path_376" data-name="Path 376" class="cls-1" d="M325.126,17.305c2.667-.067,4.767.328,6.012,1.442C330.975,21.82,324.984,19.1,325.126,17.305Z" transform="translate(432.774 6.957)"/>
    <path id="Path_377" data-name="Path 377" class="cls-1" d="M537.481,17.3H539.2v2.165a4.516,4.516,0,0,0-2.576-.724C536.782,18.161,537.481,18.03,537.481,17.3Z" transform="translate(714.298 6.959)"/>
    <path id="Path_378" data-name="Path 378" class="cls-1" d="M464.664,17.807a5.469,5.469,0,0,0,3.427.719C468.364,19.8,463.3,19.812,464.664,17.807Z" transform="translate(618.204 7.177)"/>
    <path id="Path_379" data-name="Path 379" class="cls-1" d="M437.06,22.289c-1.054-1.277-1.669-2.918-3.424-3.6-.019-3.839,1.284-6.583,4.285-7.9C442.435,13.116,440.258,20.313,437.06,22.289Z" transform="translate(577.213 4.137)"/>
    <path id="Path_380" data-name="Path 380" class="cls-1" d="M433.02,19.517a1.09,1.09,0,0,0-.86-1.443c.86-2.019,3.965-.075,4.294.719C436.186,19.771,434.309,19.393,433.02,19.517Z" transform="translate(575.25 6.909)"/>
    <path id="Path_381" data-name="Path 381" class="cls-1" d="M371.231,16.194l-.431-.718-.434-.724c1.858-.6,2.933-1.859,6.01-1.434C377.681,16.416,371.709,21.354,371.231,16.194Z" transform="translate(492.996 5.197)"/>
    <path id="Path_382" data-name="Path 382" class="cls-1" d="M342.27,17.945c-3.888,2.4-5.655-1.781,0,0Z" transform="translate(450.793 7.04)"/>
    <path id="Path_383" data-name="Path 383" class="cls-1" d="M467.107,18.716V15.843c2.963-.57,3.611.8,5.135,1.436C471.462,18.534,469.557,18.859,467.107,18.716Z" transform="translate(621.768 6.268)"/>
    <path id="Path_384" data-name="Path 384" class="cls-1" d="M415.117,19.328c-2.809.192-1.821-2.787-4.285-2.873.3-.944,1.494-1.132,1.716-2.162.977.261,2.163,1.268.851,1.442C414.483,16.809,416.9,17.9,415.117,19.328Z" transform="translate(546.86 5.656)"/>
    <path id="Path_385" data-name="Path 385" class="cls-1" d="M334.322,17.249c.212-2.956,7.485-.936,6.86,1.437C338.185,18.808,335.693,18.493,334.322,17.249Z" transform="translate(445.017 6.298)"/>
    <path id="Path_386" data-name="Path 386" class="cls-1" d="M299.619,15.845V18a3.643,3.643,0,0,1-4.285,0C295.849,16.514,296.663,15.274,299.619,15.845Z" transform="translate(393.12 6.267)"/>
    <path id="Path_387" data-name="Path 387" class="cls-1" d="M417.572,17.787c-1-1.072-3.555-.847-3.434-2.875,2.648-.507,1.65-.507,4.294,0C418.54,16.2,417.39,16.428,417.572,17.787Z" transform="translate(551.255 5.76)"/>
    <path id="Path_388" data-name="Path 388" class="cls-1" d="M458.265,18.409h-2.573c-3.275-4.7.473-7.418,3.434-8.629C460.757,13.026,459.853,15.9,458.265,18.409Z" transform="translate(604.881 3.702)"/>
    <path id="Path_389" data-name="Path 389" class="cls-1" d="M390.633,15.454c-3.769,2.641-3.252-1.99,0,0Z" transform="translate(516.463 5.937)"/>
    <path id="Path_390" data-name="Path 390" class="cls-1" d="M254.329,16.855c.625-2.2-1.485-2.114-.86-4.313,1.765-1.113,7.676-1.113,9.429,0C261.553,16.25,258.707,15.1,254.329,16.855Z" transform="translate(337.237 4.536)"/>
    <path id="Path_391" data-name="Path 391" class="cls-1" d="M427.369,14.471l-.422-1.076-1.284.357c.622-2.2-.872-2.618-.853-4.312,2.012-.225,1.578-2.495,4.273-2.155,1.681,1,3.606,3.961,1.716,5.746l-1.284-.354.434,1.075C430.541,16.143,428.173,14.909,427.369,14.471Z" transform="translate(565.465 2.607)"/>
    <path id="Path_392" data-name="Path 392" class="cls-1" d="M368.533,13.944V11.787c1.124.262,1.333,1.267,2.564,1.434C370.969,14.07,369.531,13.833,368.533,13.944Z" transform="translate(490.556 4.571)"/>
    <path id="Path_393" data-name="Path 393" class="cls-1" d="M432.139,4.816V6.974C429.626,8.03,429.626,3.759,432.139,4.816Z" transform="translate(572.713 1.479)"/>
    <path id="Path_394" data-name="Path 394" class="cls-1" d="M461.019,1.266c-.813,1.467-1.755,2.843-2.573,4.315C456.161,4.3,458.443.838,461.019,1.266Z" transform="translate(608.988 0)"/>
    <path id="Path_395" data-name="Path 395" class="cls-1" d="M11.1,42.393c2.168,3.613-.48,7.156-.863,10.779-5.212.424-5.644,4.852-7.716,7.911,2.054,4.267,7.007,6.107,10.294,9.344l-1.3-.361-.422,1.075c-4.2,1.479-8.539-3.352-9.432,0L.368,70.785c1.618,2.549.853,5.144,1.294,7.907l.853.358A3.073,3.073,0,0,1,4.24,81.93c.825-.026.653-.881.842-1.44,2.657.8,2.31,4.094,6.01,2.154,1.121,3.376,2.03,6.923,5.145,8.625,5.55.347,4.121-5.164,9.429-5.025,1.009-.123.72-1.311.853-2.162,2.07-.3,1.87,1.314,4.3.721l.429,1.076,1.287-.36c.977,2.823.173,2.675.851,5.75,3.392-2.654,7.3-1.7,12-2.158,1.9-.559-.163-4.444,3.431-3.592.511,2.45,2.368,3.777,2.576,6.471,2.34.526,1.725-1.424,3.431-1.436C53.821,84.7,53.065,78.5,59.1,76.9V73.306c1.872-.133,2.732.586,2.571,2.152,2.56-1.7,5.289-3.241,6.863-5.752,1.511,1.853,5.975,1.224,8.574,2.155-1,1.069-1,1.817,0,2.877,1.245.388,4.427-.835,4.285.719,2.846-.257,1.352-4.147,1.716-6.471,1.359.06,3.275-.344,3.429.719l-.431,1.08,1.3.355c.152.615-.34.681-.865.719-.49,4.329,2.993,4.666,5.147,5.037,2.963-.635.767-5.591,5.147-5.037-3.478-5.64,3.6-10.3.853-15.089l.431-1.078-1.284-.365c-.021-1.691,1.476-2.116.853-4.312a35.723,35.723,0,0,0,8.578,4.312c-.233,1.482-3.8.175-3.424,2.159,3.317,3.016,12.094-.53,12-5.033,1.986-1.93,5.886-2.255,6.853-5.028,4.063-.291,5.9,1.28,10.3.718l-.441,1.317,1.3.835c-1.056,1.027-3.278,1.636-4.294.719-1.016,3.247,2,3.114,4.294,3.6l-.431,1.082,4.282-1.442-.431-1.08c2.382-1.7,4.016,1.133,6.007.722,1.235,3.2-.289,4.454.853,7.189-3.1-3.359-7.581.845-12,2.154,4.686,2.234,10.4,1.687,12.861,4.312,3.459.113,7.112-2.139,7.718,1.439l-.434,1.08,2.576.238-.431-1.318h.851c1.086-2.932,1.793-6.173,6-6.468,2.079,4.62,2.117,12.579,5.147,17.253,3.159.249,2.595-2.619,3.429-4.315,2.9.212,2.49,3.185,5.156,3.594,3.086.2,2.322-2.843,5.135-2.877l.434,1.078c.317-.959.441-1.914.853-2.877l-1.287-.355c1.657-5.478-3.1-10.7.853-13.655,5.9,1.046,2.981,9.475,6.007,12.941l-1.532-.264,1.1,2.056,1.3.36h.855l-.434,1.076,1.294.364c-.326,1.221.662,1.356,1.7,1.434l-.422,1.075,1.284-.355c.727-.133.807.281.855.721,2.739.615,2.653-1.132,4.28-1.44,9.21,2.311,16.332-1.8,10.292-10.783,4.257-.949,7.383.939,10.294,0,1.448,2.49-1.59,6.613,4.282,6.471-1.991,2.26-1.091,3.223-1.711,5.753-1.706,1.2-1.086-.069-3.424,0,.289,1.442-.182,2.248-1.725,2.158l-1.282.355a4.131,4.131,0,0,1,.86,2.877l1.287.355.422,1.085,2.455.919-.305-1.283c1.392-.209,1.478.676,2.578.714,2.692-.13,1.093-3.872,4.285-3.591-3.385-4.455,1.408-7.158-.851-12.223a6.468,6.468,0,0,0,4.282-.714c-.527-.643-1.035-1.285,0-1.442a6.394,6.394,0,0,0-2.569-1.439l.422-1.078-1.284-.361c-1.312-1.688,7.3-6.11,1.713-9.339V56.05h-.851c-.163-.613.324-.685.851-.724-.611-1.576-4.026-2.384-1.713-4.312h-3.434c-.478,3.193-3.133,4.557-5.135,6.471.354-9.225-13.52-1.3-16.3-5.753l.434-1.076-.434-1.079c.1-2.066,3.66-1.245,3.431-3.6,10.091.545,21.616-3.668,27.444,1.446,2.291-.285,4.2-2.535,5.989-2.877.844-.163,1.6,1.338,2.576,1.432,1.977.2,2.83-2.139,3.434-2.154,1.245-.02,2.012,1.953,3.429,2.154,3.347.493,5.965-2.893,10.294-1.432a12.885,12.885,0,0,0,3.429-4.315l.434-1.076-.434-1.079c2.963,1.337,4.564-.34,7.718-.722.191-1.27-.863-3.592,1.716-2.873v1.44h1.713v1.433c4.329,3.794,11.021-2.485,15.427.722,2.886-4.25,17.565,1.877,22.292-3.6l1.3-.719-1.3-.719c3.352-2.147,6.154,1.6,10.294,0-.364,2.569-2.159,3.946-4.287,5.034V38.8l-1.294.36.431,1.076c-2.252,3.141-10.415,1.33-12.861,4.315-.832-.019-.669-.881-.851-1.437-3.9.89,1.473,2.1-.865,3.6l-1.284-.364-.431,1.083c-6.832.57-11.311.517-16.292,3.59-1.282-.833-2.1-2.079-4.28-2.157-2.9-.274-1.352,3.18-5.147,2.157l.431-1.076-1.284-.361c-1.263-1.364-5.618-.086-3.431,1.437l-1.3.363.434,1.076a2.382,2.382,0,0,1-2.571,1.439c.231,1.821,3.681,4.071,0,5.031.767,1.272,3.48.92,2.571,3.594-1.891,1.945-2.846.2-5.147,1.44l-.988-1.085a3.6,3.6,0,0,1-2.865,2.4l1.287.831c-2.371.9-2.716,3.478-4.285,5.033,10.772.062,23.439-3.014,31.717-1.436.844,2.617-4.175.332-2.569,3.6-4.11.231-7.352-1.995-8.576,1.433-7.881-3.86-10.763,1.721-17.145,3.594v4.312c-1.284.84-3.506.9-4.294,2.158l-1.284-.36a26.976,26.976,0,0,0,1.716,2.161l-.434-1.085c3.807-.073,6.422.858,6.863,3.592,3.476-.917,8.693-.378,12.005-1.434-.145.835.182,1.278.853,1.434-2.4,2.337-4.7,2.419-7.723,2.879,1.091,1.046,4.273,2.1,6.87,2.154,4.075.09,9.73-2.992,12,0l-.434,1.079a6.408,6.408,0,0,1,3.009,1.079l1.839.027,6.3.095-1.282-.837c.266-1.7,2.977-1.34,2.574-3.6,2.732-.615,2.657,1.133,4.285,1.44,2.385-.4,2.406-2.781,3.434-4.319l.429-1.073-.429-1.08a4.531,4.531,0,0,1,2.569-.714c-2.6-2.862-1.585-8.839,1.713-10.784,1.87,1.53,3.191,2.675.863,4.315,1.119-.259,1.35-1.271,2.569-1.44-.317-1.222.671-1.354,1.713-1.434-1.352-2.337.056-2.66-.851-4.318-.69-1.251-5.138-2.665-5.145-3.594,0,.447,5.56-4.68,10.28-5.75,4.282-.966,10.2-.837,12.863.722,1.159-.709,1.711-1.923,2.576-2.876-2.681-2.84-1.226-6.711-.853-10.784,4.478,2.072,8.686,2.654,12.008-.718,8.282,1.97,12.576.139,19.714,1.437,2.574.236,1.007,3.951,3.431,4.312.793-.764,3.161-.222,2.567-2.157,8.212,3.346,12.334.3,15.441-5.027,4.665.138,5.089,3.551,4.282,6.467,4.35-1.977,4.793.8,7.718-1.44l1.291.364,1.284-.364c3.156,1.2,5.52,4.663,6.851,0l.431-.716-.431-.721c1.746-1.179,3.422-2.4,3.431-5.027,4.257.927,4.217-1.741,7.725-1.439.1,1.287-1.056,1.512-.862,2.876,6.879.724,9.676.483,14.574-1.437l-.431,1.076c1.331-1.333,3.364-1.4,5.205-1.7l2.518-.815a15.8,15.8,0,0,1,.2-1.638,6.065,6.065,0,0,1,4.658-1.6,2.533,2.533,0,0,1,1.065-.927,27.074,27.074,0,0,0,4.359.208l-1.287-.355c8.261-.608,16.341-3.216,24.868-1.44.988,1.065.988,1.811,0,2.876h4.287l-.434,1.315c3.348-.7,6.681-.449,10.082-.595a7.81,7.81,0,0,1,.641,1.8l.853.361c2.28.007,5.049-.4,5.142,1.439l-1.28.837.431,1.315c-3.424-.619-6.669.794-4.294,2.875l-.434,1.082.434,1.078c-6.942.619-11.483,4.422-17.145,1.434-3.105.519-2.455,4.176-6.007,4.318.786,1.966,3.009-1.283,4.294.718.145,1.986-1.322,2.466-2.578,1.434l-.422-.715a5.035,5.035,0,0,1-.431,2.154h.851c6.851-1.893,15.182.562,21.439-.718.709-2.032-1.21-1.861-.853-3.594,6.345-.268,11.012-.6,17.143.721,1.935-1.5,2.452-4.177,4.3-5.752l1.282.358-.434-1.08c1.541.093,1.811-.878,3.431-.716-.911-7.179,13.562-9.767,19.724-9.343l-.436,1.078,1.289-.363c11.707,1.291,14.278.312,22.3-1.436.842-2.867-2.569-2.167-1.713-5.034.965-1.583,3.762-1.625,6-2.154a3.539,3.539,0,0,1,.853,2.876c11.53-2.453,14.182,8.487,23.153,3.592,1.62,2.5,8.914,3.259,10.292,0,.226-2.346-1.014-3.459-3.431-3.592,5.438-2.869,6.191-9.313,2.571-14.377,1.455.267,1.618-.557,1.713-1.437,5.415.494,4.254,6.5,10.294,6.47.019,3.852-6.4,2.3-6.01,6.47.364,1.615,4.553.017,5.145,1.436-.641,2.822-5.825,1.818-6,5.033.643,1.624,4.811.279,6.863.719-1.669,3.829,4.86,4.508,6.86,2.877l1.284.355.422-1.075c2.021.226,3.219,1.136,6.007.719.259,1.894-1.189,2.359-3.431,2.158,2.751,1.288,8,.474,6.86,5.028,6-1.148,9.056-.05,14.579.716.17-3.021-3.259-3.016-3.434-5.745,2.8-1.447,5.683-1.718,9.439-.719l1.275.357,1.294-.357c1.1,1.374,4.084.236,4.285,0l1.287-.844a20.262,20.262,0,0,0-2.436-.949l-1.849-.725.422,1.791h-1.706l-1.294-.357-1.275.357a3.019,3.019,0,0,1,1.706-2.869c-.564-.969-1.83-1.343-3.429-1.44l.429-1.079-1.282-.358c-.147-2.038-1.573-2.993-1.718-5.031,3.853,1.8,9.3,2.266,12,5.031l-1.284.835a13.413,13.413,0,0,0,2.664.267,15,15,0,0,1,3.333.335l-.422-.716c.7-.135.851-.725,1.706-.721l.431,1.076,1.3.361c2.061.3,1.858-1.313,4.282-.716a4.117,4.117,0,0,0,.853,3.594l-.424,1.075,1.287.357c-3,.6-3.634,3.194-5.147,5.035,3.135,1.059-.832,3.9,3.431,4.312-1.119,2.579.9,5.485-2.569,3.6C664.738,62.02,669.2,58.2,667,53.9a54.053,54.053,0,0,1,11.147,4.312l-.422,1.079,2.569.721-.434-1.08c2.243-.759,1.8-3.769,4.294-4.313,5.117.936,2.989-4.2,3.431-7.185l1.284.357.422-1.076c2.035.215,1.6,2.49,4.294,2.152-3.66,3-1.023,10.332,0,13.658-.042-.113-1.552.09-1.713,0,1.054,2.184,2.953-.781,5.147,0a38.5,38.5,0,0,0,6.86-14.373c.063-2.459-5.224-.418-5.147-2.876,1.217-3.313,10.693-3.468,7.716-7.911.814-.82,6.888-.695,9.427-2.154l1.287.357a4.545,4.545,0,0,1,.546-2.373c2.1-.857,6.189-1.129,6.315,1.658l1.294.358c1.629.307,1.543,2.053,4.285,1.436-4.016-1.808-.03-4.511,1.716-5.752,2.508.986,2.9,1.952,5.135,0l1.3.36-1.718-1.794.424.715c-2.723,1.394-7.867-.284-10.282-1.434,1.522-3.631-1.035-5.589,0-7.911-1.373-1.847-5.359-1.095-7.716-3.59-12.812,2.843-33.216-.277-42.876-2.88,3.8-6.574,22.083-2.417,28.3,0,2.5.191,2.634-1.622,5.133-1.434,12.124,2.744,26.038,3.75,36.866,5.753l-1.282.837c1.7.55,4.2.3,5.194,1.793a2.236,2.236,0,0,1-.1.6l11.2,5.28-.422-1.327c5.348.661,8.655-.413,10.292-2.867,15.124,2.725,30.209,7.781,43.729,7.9l.986,1.079,1.585-.355c7.963,2.581,15.789,6.468,24.868,5.028.734,1.305,2.2,1.985,2.576,3.6,2.243-4.906-8.816-10.868.851-14.378-2.089-4.788,2.089-9.744,1.706-13.656l1.294.364-.434-1.078c.268-.979,2.149-.6,3.434-.721,1.876,5.862-1.263,12.925,4.282,16.535.375,1.5-.58,1.894-.851,2.869,3.056,1.635,4.35.53,7.716,2.158a19.789,19.789,0,0,0,1.713,9.344c2.578-1.006,6.229-1.048,6.863,1.44l-1.289.834,10.026-.285,3.077-.09,3.182,4.931.441-1.076c1.494-.662,2.967-1.343,2.557-3.6,1.214-.059,2.443-.113,2.576.722l-1.152.719,1.152.712c-.546,2.615,1.774,2.829,4.285,2.879l-.431,1.324a9.345,9.345,0,0,0,1.534-.371,12.318,12.318,0,0,1,4.476-1.07l-.424-1.315c1.611-.086.592-2.377,2.569-2.158l.431,1.075,1.275-.363c1.284.318-.333.926,0,2.164,3.7.934,2.711-2.038,4.3-2.876l1.284.712,1.284-.712c1.839,1.075-.615,1.76.86,3.591,2.807-.042,3.275-2.045,6.851-1.433.305.939,1.513,1.126,1.713,2.152.776,2.323-2.788,1.01-3.429,2.155-.17,3.549,2.424,7.3-.844,9.347-2.643-1.321-3.86.646-6.007-.719-.681-2.482.795-3.163,2.569-3.592-1.485-1.285-3.837-3.218-5.145-.719l-1-1.079-1.573.355c.154-.609-.336-.682-.863-.716l.431-1.076-2.569,2.158,1.284-.365c-.438,3.942-3.956,5.3-4.28,9.346l-1.289-.358.424,1.078c-1.119,4.451,1.217,7.327-3.431,8.625.212,1.267,1.478,1.638,3.431,1.439.72,4.027-1.38,6.805,0,9.344,3.967-1.634,2.788-4.878,6-9.344,4.082,1.274,4.2-.708,7.723-1.439.107,1.288-1.056,1.52-.86,2.879.536-1,3.305-.115,3.443-1.44l1.27.361.3-1.444-1.569.364c.937-3.428-1.107-4.352-2.581-5.752l1.284-.837a18.688,18.688,0,0,1-2.145-1.321v1.446c-2.138.106-2.655-1.136-4.285-1.446.182-1.191,6.371-2.883,6,0,2.338.064,1.727-1.2,3.441,0,.958-.643-.054-1.6,1.7-2.87,2.916.573,5.208,1.668,3.434,4.316l-.429,1.075,1.282-.363v2.875c.594.963,2.291-.354,4.294.719,2.347-1.629,3.212-4.5,5.147-6.471-3.41-2.617-11.537-.668-12-7.185,2-.229,3.21-1.136,5.989-.719.606-2.66-3.66-1.237-4.285-2.877.107-2.157,4.86-2.3,6.01-1.434,3.937-3.259,3.879-7.287,6.853-10.065a10.925,10.925,0,0,0,6.858,3.6,11.118,11.118,0,0,1-7.723,6.467c.075,2.683.972,2.046,0,4.312,4.044-.757,9.793,1.768,15.437,0,.746,2.783-3.741,1.175-2.574,4.313.918,2.349,3.965,2.9,5.145,5.03,1-2.043,5.658-1.016,6.01-3.59,2.191.07,1.371,2.674,2.569,3.59,4.245.441,5.492-1.625,8.576-2.154-.392-1.826-3.7-1.208-4.294-2.876,1.669-1.485,5.236-1.371,7.725-2.155a4.093,4.093,0,0,0,.86,3.6c.923-.179.573-1.429,1.716-1.44l1.275.355.287-2.149-1.562.358V58.207l1.275.358c-.9-.464-1.657-.593-2.308-.917a1.713,1.713,0,0,1-.259-1.953l-1.284.358c-1.284-3.006,4.417-6.742,5.135-1.44,1.133-.866,1.352-.278,2.578,0-.634-2.1-2.072-3.534-3.434-5.033,1.429-2.3,2.636-.926,3.434-2.872,1-2.452-1.842-4.912-1.716-6.473.326-4.044,2.184-5.613,4.282-9.346.319-1.219-.66-1.354-1.711-1.434,1.1-1.232,1.781-2.827,4.294-2.875,1.634,1.26,3.072,2.69,3.42,5.033-1.117-.864-1.34-.281-2.56,0,.641,1.863,2.643,4.75.851,6.468,2.089-1.125,5.091-1.489,6.851-2.876-.037-2.356-2.434-2.753-1.713-5.75,2.681-2.509,13.693-6.418,16.29-.719,3.786-1.731,2.128-2.93,2.578-5.033,3.879-1.52,5.338,2.634,6,1.44.643,4.626-9.208,6.656-6.86,15.092,2.2-.546,2.981-2.293,2.571-5.031,2.128-1.189,3.923,2.227,4.292-2.158,4.037.269,4.315.91,5.991-1.434-.851-2.4-4.452-2.493-5.135-5.033,3.257,1.444,4.2-4.391,5.135-7.191,5.709-1.444,4.879-8.366,10.289-10.067,2.781-.881.653,2.333,3.434,1.443.4,4.889-3.807,5.915-6.851,7.909,1.734,4.872-4.525,14.408,7.709,14.373v2.879c1.876.454,2.741-2.039,2.576.715,2.567-.476-.825-1.533,0-2.875h2.578V35.2a9.986,9.986,0,0,1,2.124-.9,8.995,8.995,0,0,0,1.305-.543h-1.723c1.089-2.923,6.266-2.416,6-6.466-4.026-2.095-6.4,2.531-9.422,3.588-2.471-6.156,2.082-9.4,7.718-10.779-.709,2.031,1.208,1.864.853,3.594,1.543.09,1.811-.881,3.429-.714v3.591c4.075-.337.963.893,2.576,2.155.578-5.02,4.872-6.933,7.718-10.061,1.83-.338,1.629,1.026,1.706,2.151l-1.287.844.431,1.321c-1.138,4.194-1.839,11.362-7.714,9.339.077,2.334,5.117.507,4.285,3.6-1.641.3-3.693.258-3.42,2.155l-1.289-.363a6.3,6.3,0,0,1-.469,2.458c-.354.12-.72.242-1.254.418l1.291.363c.154.609-.34.676-.86.716l-1.065-.9a7.833,7.833,0,0,1-1.079,1.26l1.294.36v3.59c7.686-1.937,7.159-10.76,11.136-15.811,1.926.308,2.741,1.548,4.292,2.158,4.383-2.078,8.4-4.457,10.28-8.625,6.711.546,7.264,1.956,13.726,2.877-1.047,4.236,3.373,3.889,5.145,5.748h-.851v.719c-2.837,2.425-8.709,2.29-11.145,5.034,7.466,2.095,10.889-5.667,19.714-3.6l.431,1.076,1.287-.357a3.572,3.572,0,0,1,.86,2.876c-1.476,1.4-3.7,2.18-4.292,4.312l-1.277.838a25.471,25.471,0,0,1,2.562,1.678l-.422-1.08a.718.718,0,1,0,0-1.436c1.443-1.427,4.914-1.146,6-2.876-.075,1.265,2.287,2.852,4.292,4.312-3.219,2.015.557,3.511.853,6.47,7.072,2.171,6.842-2.5,12-5.028,2.021.221,1.6,2.495,4.294,2.158,5.28-.814,3.4-2.978,6.86-7.192,1.59.586,3.457.933,4.294,2.157-.385,2.078-1.823,3.276-4.294,3.59.937,1.847,4.6,1.414,7.714,1.446,1.611,1.27-1.023,2.094.851,3.59,4.7-.81,4.767,2.237,7.728,2.877.881,2.412-2.674,1.118-4.3,1.434,1.58,3.463,5.7,1.583,8.578,2.877-2.089,4.8-2.156,7.651-3.431,12.222a30.38,30.38,0,0,0-7.718,0c.727,2.508,5.762,4.554.855,5.746.737,2.111,2.758-.428,4.292,0a4.11,4.11,0,0,0-.86,3.6c-3.019-1.022-5.483,2.013-3.431,2.872-.862,1.754-3.457-2.945-5.147-.714-.469,2.5,5.76,3.064,6.01.714,1.877.107,1.837,1.811,1.713,3.6,2.762-.8,2.951-3.76,6.007-4.313-.884-3.739-.613-6.1,2.56-7.911l1.007,1.079.69-1.735,1.315-3.3-1.3.361c-.137-2.278,2.289-2.406,1.716-5.034-.259-.976-2.149-.6-3.434-.719,2.1-2.313,4.313-4.542,7.723-5.75-.977-6.566,4.235-7.956,3.422-14.374,2.627.029,2.693-1.356,6.01-2.158.564-2.629-1.86-2.757-1.718-5.034,3.8-.994,7.5-.858,10.287.722-1.825,5.653,2.73,3.753,5.145,6.47-1.863,1.787-5.5,2.1-6.851,4.31.086,1.846,3.191,1.159,4.282,2.157.606,3.181-2.184,5.041.853,6.471-1.967.7-3.233-.98-6.851-.716l-.434-1.078-.851,2.154,1.284-.36c.34,4.765-2.683,4.9-1.716,8.622-3.947-.668-3.538,2.3-5.147,3.6a12.531,12.531,0,0,1,9.432,0l1.294.361,1.275-.361c2.415.853.462,5.369,4.3,5.033-1.555,1.1-2.627,2.589-6.007,2.159-1.9.652-1.69,4.958-4.287,2.875-.135,1.785,1.352,2.227,1.727,3.594,3.944-3.39,11.054-4.148,14.574-7.909-.45-3.349-1.685-6.411.851-8.628l1.287.363c-1.5-2.373-.585-4.782,1.713-6.467l-1.285.358c-.8-2.809,4.448-6.172,6.849-8.628-.133-.843-1.55-.609-2.567-.721.746-1.05.688-2.781,3.431-2.155l-.433,1.079,1.282-.361c1.163,2.9,6.662.244,5.159,2.875,3.746-2.313,10.264,1.1,12.863-2.875,5.156,1.781,9.506,5.183,7.7,10.784l-1.285-.358.431,1.073c-7.56.592-7.229-5.447-12.861-6.47-1.312,4.671,4.534,6.756,1.716,13.658,3.469,2.194,9.861,3.8,12.858,1.442-1.9-1.467-2.2-4.325-.86-7.192l1.294.358-.433-1.076c3.173.027,4.977-1.1,6.863-2.155l.431,1.076a7.74,7.74,0,0,1,.433-2.876l-.863.361c-1.391.2-1.478-.681-2.569-.719,4.7-3.655-1.044-7.262-1.725-10.777,2.723-.123,2.865,1.906,6.007,1.433-.133-1.784.441-2.983,1.706-3.591,2.508-.089,3.539,4.2.862,4.31a4.058,4.058,0,0,1-.862,3.592c6.229-1.718,12.036,1.46,17.152-1.437,6.373.208,6.87,3.935,11.147,4.318,2.212,1.861-4.469,2.969,0,5.031-2.3,2.936-8.961,3.326-8.578,6.466-2.795.046-3.266,2.043-6.863,1.439.534.642,1.044,1.284,0,1.442-4.007-.09.939-1.052,0-2.88-.2-1.85-1.464.986-3.422,0l.424-1.315a41.332,41.332,0,0,1-7.714,1.917l1.285.837c.825,1.791-3.052,4.339.86,4.319-4.571,1.672-8.231,4.12-10.282,7.906l-1.294.357,3.431.718-.422-1.075c3.352.292,5.443-1.866,6.849.719.928-.183.588-1.433,1.716-1.44-.233-1.483-3.8-.173-3.431-2.158-.7-2.744,1.83-2.78,3.431-3.594l.431,1.08,1.287-.361c3.823.473,1.553,4.465,2.574,5.753,1.471-2.525,3.415-3.552,3.436-8.629,1.513-1.364,4.257-1.7,5.991-2.875,3.725,1.672,2.252,7.7,5.145,10.065-2.851,1.922-5.762,3.793-6,7.9.308.946,1.506,1.129,1.716,2.158,1.879-.106,1.841-1.808,1.716-3.591,5.194.987,5.175-2.374,5.147-5.753,3.091-.993,7.8-2.01,6-5.033,2.874-.357,5.149-1.211,7.786-1.76v63.188H0V48.875C6.32,51.568,4.9,42.115,11.1,42.393Z" transform="translate(0 3.437)"/>
    <path id="Path_396" data-name="Path 396" class="cls-1" d="M14.988,58.448c2.464-.152,4.352.179,5.135,1.439l-1.284.357.431,1.076c-.73,1.07-2.76,1.043-4.282,1.437l-.434-1.075-1.282.36C12.629,59.831,15.62,60.659,14.988,58.448Z" transform="translate(17.545 24.759)"/>
    <path id="Path_397" data-name="Path 397" class="cls-1" d="M44.109,43.984l-.424,1.078,1.287.365c-.737.575-.508,1.967-1.713,2.154L42.4,46.327l-.853,1.254c-1.009-1.078-2.476-1.761-2.578-3.6l1.294.365c-1.867-3.032.881-6.977,3.644-8.959a5.368,5.368,0,0,1,1.515.067c.275.089.552.176.842.264l-5.3,7.609C42.4,43.233,44.225,42.792,44.109,43.984Z" transform="translate(51.865 14.781)"/>
    <path id="Path_398" data-name="Path 398" class="cls-1" d="M43.37,48.242c-2.62.519-2.522-1.24-5.138-.718V43.93c2.415-.595,2.212,1.013,4.285.721l-.434,1.079,1.287.358Z" transform="translate(50.891 18.43)"/>
    <path id="Path_399" data-name="Path 399" class="cls-1" d="M112.848,40.55c-9.047.328-16.052,6.182-25.712,3.594-5.709,2.506-19.213,6.014-23.162,0C66.9,43.48,69,42.132,73.413,42.709v-.722l-.422-.341c-1.119-.5-3.669.186-3.007-1.814,1.263.375,2.163,1.062,3.429,1.439l-.434.361a1.218,1.218,0,0,1,.865.719l.434-.364h.842c2.613-3.438,6.59-3.021,13.733-3.592,3.739-.787,7.972-4.809,12.861-2.872a10.271,10.271,0,0,1,.856,1.437c1.541.047,2.375-1.582,3.429-1.437.394.053.881,1.255,1.706,1.437,1.944.408,5.693-.926,6.01,1.434l-1.289.844Z" transform="translate(85.156 14.622)"/>
    <path id="Path_400" data-name="Path 400" class="cls-1" d="M116.819,37.87l.434,1.082,1.284.355v1.437c-1.392.2-1.48-.678-2.569-.716l.422-1.076-1.287-.363C115.122,37.893,116.157,38.035,116.819,37.87Z" transform="translate(153.214 15.864)"/>
    <path id="Path_401" data-name="Path 401" class="cls-1" d="M132.509,64.612l.431.721.434.714c-1.245,1.06-5.616,1.06-6.87,0,2-.954,1.657-3.889,5.156-3.592l-.434,1.085,1.284.354C132.509,64.135,132.509,64.372,132.509,64.612Z" transform="translate(168.39 26.499)"/>
    <path id="Path_402" data-name="Path 402" class="cls-1" d="M172.938,38.044c1.965-1.429.937.183,2.569.719l-.434.718.434.721Q172.157,40.847,172.938,38.044Z" transform="translate(230.003 15.69)"/>
    <path id="Path_403" data-name="Path 403" class="cls-1" d="M220.422,40.028c-1.618,1.523-3.888,2.495-6.007,3.6-1.247-.628-2.711-1.079-2.571-2.88l.436-1.076-.436-1.079c3.914,1.116,3.627-.565,7.718-.719l-.424,1.318Z" transform="translate(281.973 15.864)"/>
    <path id="Path_404" data-name="Path 404" class="cls-1" d="M230.035,30.563c4.243-.522,5.49-.3,8.567-.716-.818,1.469-1.744,2.844-2.569,4.313h-6l.42-1.08-1.282.36C228.809,31.932,229.767,31.532,230.035,30.563Z" transform="translate(304.944 12.39)"/>
    <path id="Path_405" data-name="Path 405" class="cls-1" d="M270.56,32.206c-.862,1.672-2.951,2.32-5.986,2.155l-.434-1.079-.441-1.076C266.169,31.157,268.754,30.2,270.56,32.206Z" transform="translate(351.012 12.904)"/>
    <path id="Path_406" data-name="Path 406" class="cls-1" d="M271.053,27.841c-.212,2.452-1.83,3.733-5.147,3.591V29.274l.863-.718.853-.715Z" transform="translate(353.948 11.522)"/>
    <path id="Path_407" data-name="Path 407" class="cls-1" d="M288.679,30.849c1.359,1.495,6.814-.436,6.007,2.877l-.429.715.429.722c-2.569.471.818,1.535,0,2.877-3.1-1.347-2.154-2.333-6.86-1.446l.434-1.073-1.294-.358C286.285,32.673,287.926,32.123,288.679,30.849Z" transform="translate(381.765 12.824)"/>
    <path id="Path_408" data-name="Path 408" class="cls-1" d="M293.977,41.631V38.8l-4.711-1.125c1.8-.583,3.634.38,5.49.394.154.292.3.595.51,1.045l.429-1.082a5.514,5.514,0,0,0,3.434.719,3.533,3.533,0,0,0-.863,2.877C296.637,42.98,296.117,41.709,293.977,41.631Z" transform="translate(385.043 15.7)"/>
    <path id="Path_409" data-name="Path 409" class="cls-1" d="M393.641,21.43c.019,3.132-2.744,3.936-3.434,6.467l-1.284-.358-.434,1.078C386.643,25.081,387.737,19.587,393.641,21.43Z" transform="translate(516.03 8.587)"/>
    <path id="Path_410" data-name="Path 410" class="cls-1" d="M391.009,30.349c1.534-.089,1.8.88,3.429.719.345,1.735-1.571,1.566-.86,3.592L392,34.3l-.993,1.08C388.452,34.279,390.121,32.189,391.009,30.349Z" transform="translate(518.662 12.605)"/>
    <path id="Path_411" data-name="Path 411" class="cls-1" d="M467.708,18.325c-.5,1.977-2.126,3-2.571,5.034h-4.282c-.375-1.374-2.455-1.3-1.713-3.591l-.436-1.078-.429-1.088C462.045,16.427,465.8,15.892,467.708,18.325Z" transform="translate(610.013 6.659)"/>
    <path id="Path_412" data-name="Path 412" class="cls-1" d="M478.642,23.325c1,1.079,2.473,1.76,2.571,3.592-1.79.416-2.445,1.783-5.145,1.439l.431-1.076-1.282-.363C474.856,24.457,477.782,24.759,478.642,23.325Z" transform="translate(632.523 9.567)"/>
    <path id="Path_413" data-name="Path 413" class="cls-1" d="M558.567,54.245c-3.189,3.283-7.7.711-11.152,2.158-1-3.151,1.571-7.81,4.282-10.061a2.357,2.357,0,0,0-2.569-1.437c.891-1.894,3.4-2.419,4.292-4.316l.855.364.86-.364c1.667-.361,1.553-2.221,3.492-2.359V53.421c-.163-.085-.333-.156-.49-.252Z" transform="translate(728.373 16.02)"/>
    <path id="Path_414" data-name="Path 414" class="cls-1" d="M267.748,25.955c3.163-1.791,4.709,3.082,0,0Z" transform="translate(356.4 10.529)"/>
    <path id="Path_415" data-name="Path 415" class="cls-1" d="M396.493,35.38c-1.7-.494-2.3-1.92-2.585-3.594,1.14-.257,1.364-1.267,2.585-1.44,1.315.378.049.752-.872.719.023,1.426,2.35.914,1.713,2.877C396.5,33.96,396.677,34.824,396.493,35.38Z" transform="translate(524.332 12.606)"/>
    <path id="Path_416" data-name="Path 416" class="cls-1" d="M163.273,35.309c-2.415-1.674-3.373-.838-7.723-1.44-1.716-1.463.382-1.407.862-2.873-2.273-1.217-8.124.583-8.569-2.159l.853-.715.853-.721c6.611-.752,10.637.575,15.437,2.876l-.431,1.315,1.284.84C166.1,34.322,162.515,33,163.273,35.309Z" transform="translate(196.794 11.24)"/>
    <path id="Path_417" data-name="Path 417" class="cls-1" d="M407.837,24.578l.434,1.079c1.7.97,1.828,4.263.849,6.468l-1.566-.363-1,1.082c-1.387-1.479-1.3-4.183-3.438-5.034-.305-2.916,4.093-7,6-3.6l1.289-.357C410.291,24.942,409.149,24.895,407.837,24.578Z" transform="translate(536.563 9.392)"/>
    <path id="Path_418" data-name="Path 418" class="cls-1" d="M164.819,27.29c-1.112,2.218-1.119-2.066.86-1.439C167.311,26.472,164.761,26.283,164.819,27.29Z" transform="translate(218.391 10.633)"/>
    <path id="Path_419" data-name="Path 419" class="cls-1" d="M482.3,21.465c-2.48-.394,1.312-1.119.863-2.154C486,20.016,482.2,20.734,482.3,21.465Z" transform="translate(640.863 7.829)"/>
    <path id="Path_420" data-name="Path 420" class="cls-1" d="M428,22.271V21.55l.851-.719c-1.567-.006-2.187-1.482-2.574-2.515l1.758,1.715a14.379,14.379,0,0,0,1.678-4.23c3.208.059,2.445.8,5.147,0C434.744,19.776,431.079,20.786,428,22.271Z" transform="translate(567.416 6.309)"/>
    <path id="Path_421" data-name="Path 421" class="cls-1" d="M229.441,31.422a26.508,26.508,0,0,1-12.863,0c-.191-2.635-1.177-2.761,0-5.034a56.9,56.9,0,0,1,14.576.719C228.8,28.858,227.063,28.984,229.441,31.422Z" transform="translate(287.531 10.816)"/>
    <path id="Path_422" data-name="Path 422" class="cls-1" d="M412.677,35.07c1.571,1.208.844,3.075,1.562,4.573l-2.856-5.034A11.482,11.482,0,0,0,412.677,35.07Z" transform="translate(547.593 14.452)"/>
    <path id="Path_423" data-name="Path 423" class="cls-1" d="M406.655,35.111l-1.138,4.315A6.372,6.372,0,0,1,406.655,35.111Z" transform="translate(539.736 14.669)"/>
    <path id="Path_424" data-name="Path 424" class="cls-1" d="M134.837,35.867a18.618,18.618,0,0,1-3,.118Z" transform="translate(175.491 14.997)"/>
    <path id="Path_425" data-name="Path 425" class="cls-1" d="M168.554,31.352l-.851,1.793A3.494,3.494,0,0,1,168.554,31.352Z" transform="translate(223.23 13.042)"/>
    <path id="Path_426" data-name="Path 426" class="cls-1" d="M180.817,31.969l-3-.361A8.532,8.532,0,0,1,180.817,31.969Z" transform="translate(236.693 13.141)"/>
    <path id="Path_427" data-name="Path 427" class="cls-1" d="M84.745,27.923l-20.586,2.4C70.791,28.055,77.873,28.632,84.745,27.923Z" transform="translate(85.402 11.557)"/>
    <path id="Path_428" data-name="Path 428" class="cls-1" d="M61.456,29.345l-4.285.719A35.832,35.832,0,0,1,61.456,29.345Z" transform="translate(76.101 12.173)"/>
    <path id="Path_429" data-name="Path 429" class="cls-1" d="M301.475,29.006a16.755,16.755,0,0,1-2.1-1.165Z" transform="translate(398.505 11.522)"/>
    <path id="Path_430" data-name="Path 430" class="cls-1" d="M497.222,28.941c-1.713-.294-2.107-1.644-2.818-2.819Z" transform="translate(658.103 10.778)"/>
    <path id="Path_431" data-name="Path 431" class="cls-1" d="M495.247,26.574l-1.476-1.495A3.4,3.4,0,0,1,495.247,26.574Z" transform="translate(657.26 10.326)"/>
    <path id="Path_432" data-name="Path 432" class="cls-1" d="M110.486,25.716l-23.153.721C95.145,25.905,102.8,24.587,110.486,25.716Z" transform="translate(116.249 10.41)"/>
    <path id="Path_433" data-name="Path 433" class="cls-1" d="M114.72,25.675l-14.145-.715C105.272,23.751,110.053,25.473,114.72,25.675Z" transform="translate(133.876 10.09)"/>
    <path id="Path_434" data-name="Path 434" class="cls-1" d="M80.345,26.551l8.143-.719C86.017,26.905,83.093,26.534,80.345,26.551Z" transform="translate(106.948 10.652)"/>
    <path id="Path_435" data-name="Path 435" class="cls-1" d="M205.035,24.433l6-.355C209.233,25.024,207.028,24.274,205.035,24.433Z" transform="translate(272.923 9.893)"/>
    <path id="Path_436" data-name="Path 436" class="cls-1" d="M191.431,23.824l-2.581,1.443A16.588,16.588,0,0,1,191.431,23.824Z" transform="translate(251.379 9.783)"/>
    <path id="Path_437" data-name="Path 437" class="cls-1" d="M200.13,22.321,198.412,23.4C198.976,22.862,199.142,22.276,200.13,22.321Z" transform="translate(264.107 9.131)"/>
    <path id="Path_438" data-name="Path 438" class="cls-1" d="M418.738,19.993l.42-1.434A3.717,3.717,0,0,1,418.738,19.993Z" transform="translate(557.384 7.503)"/>
    <path id="Path_439" data-name="Path 439" class="cls-1" d="M372.752,14.8l-3.851,3.59C369.675,16.93,371.44,15.874,372.752,14.8Z" transform="translate(491.045 5.875)"/>
    <path id="Path_440" data-name="Path 440" class="cls-1" d="M424.99,13.7l1.716-2.158A3.077,3.077,0,0,1,424.99,13.7Z" transform="translate(565.706 4.463)"/>
    <path id="Path_441" data-name="Path 441" class="cls-1" d="M426.828,11.037l4.655,1.669C429.884,12.245,428.122,12.023,426.828,11.037Z" transform="translate(568.152 4.246)"/>
    <path id="Path_442" data-name="Path 442" class="cls-1" d="M6.656,55.973,4.94,51.666A5.773,5.773,0,0,1,6.656,55.973Z" transform="translate(6.576 21.837)"/>
    <path id="Path_443" data-name="Path 443" class="cls-1" d="M19.392,61.042l-3.41-1.149C17.642,60.091,20.458,59.393,19.392,61.042Z" transform="translate(21.274 25.399)"/>
    <path id="Path_444" data-name="Path 444" class="cls-1" d="M13.4,63.567l.853-2.872C13.945,61.655,13.819,62.609,13.4,63.567Z" transform="translate(17.842 25.746)"/>
    <path id="Path_445" data-name="Path 445" class="cls-1" d="M40.371,52.257H36.94A4.984,4.984,0,0,1,40.371,52.257Z" transform="translate(49.171 21.965)"/>
    <path id="Path_446" data-name="Path 446" class="cls-1" d="M39.884,46.069l1.287-3.054A3.988,3.988,0,0,1,39.884,46.069Z" transform="translate(53.09 18.092)"/>
    <path id="Path_447" data-name="Path 447" class="cls-1" d="M65.875,38.551l-9.441-1.2C59.714,36.631,62.847,37.828,65.875,38.551Z" transform="translate(75.12 15.544)"/>
    <path id="Path_448" data-name="Path 448" class="cls-1" d="M80.345,57.916l4.28-5.748C83.909,54.279,83.767,57.858,80.345,57.916Z" transform="translate(106.948 22.055)"/>
    <path id="Path_449" data-name="Path 449" class="cls-1" d="M81.45,58.617a9.334,9.334,0,0,1,1.7-1.433Z" transform="translate(108.418 24.226)"/>
    <path id="Path_450" data-name="Path 450" class="cls-1" d="M98.855,49.156a13.828,13.828,0,0,1-3.431,2.879Z" transform="translate(127.019 20.75)"/>
    <path id="Path_451" data-name="Path 451" class="cls-1" d="M114.309,30.1l-4.723.357A17.214,17.214,0,0,1,114.309,30.1Z" transform="translate(145.87 12.492)"/>
    <path id="Path_452" data-name="Path 452" class="cls-1" d="M117.619,25.35c3.1.579,5.483-1.48,8.569-1l-10.714,5.037C116.343,28.134,116.171,26.277,117.619,25.35Z" transform="translate(153.708 9.978)"/>
    <path id="Path_453" data-name="Path 453" class="cls-1" d="M144.7,26.7l-20.586-1.078A103.187,103.187,0,0,1,144.7,26.7Z" transform="translate(165.209 10.5)"/>
    <path id="Path_454" data-name="Path 454" class="cls-1" d="M114.182,38.625h3.434A6.393,6.393,0,0,1,114.182,38.625Z" transform="translate(151.988 16.191)"/>
    <path id="Path_455" data-name="Path 455" class="cls-1" d="M128.529,63.64a8.494,8.494,0,0,1,1.713-1.44Z" transform="translate(171.085 26.398)"/>
    <path id="Path_456" data-name="Path 456" class="cls-1" d="M213.489,29.851c2.5-1,5.229.682,7.711-.224l-11.565,4.13C211.321,32.827,212.079,31.077,213.489,29.851Z" transform="translate(279.047 12.249)"/>
    <path id="Path_457" data-name="Path 457" class="cls-1" d="M217.508,38.463l-2.541.47A4.517,4.517,0,0,1,217.508,38.463Z" transform="translate(286.143 16.119)"/>
    <path id="Path_458" data-name="Path 458" class="cls-1" d="M216.057,38.609l2.6-.487A4.35,4.35,0,0,1,216.057,38.609Z" transform="translate(287.594 15.973)"/>
    <path id="Path_459" data-name="Path 459" class="cls-1" d="M215.03,39.239l-5.264.628C211.549,39.509,213.141,38.234,215.03,39.239Z" transform="translate(279.22 16.293)"/>
    <path id="Path_460" data-name="Path 460" class="cls-1" d="M219.991,40.846l-1.713-.716A5.326,5.326,0,0,1,219.991,40.846Z" transform="translate(290.551 16.843)"/>
    <path id="Path_461" data-name="Path 461" class="cls-1" d="M228.573,34.26a10.1,10.1,0,0,1,2.571-2.158Z" transform="translate(304.254 13.367)"/>
    <path id="Path_462" data-name="Path 462" class="cls-1" d="M264.381,32.6l-.862,2.876A5.633,5.633,0,0,1,264.381,32.6Z" transform="translate(350.771 13.584)"/>
    <path id="Path_463" data-name="Path 463" class="cls-1" d="M275.174,31.5a6.184,6.184,0,0,1,2.807-.4l-3.429,2.876C274.757,33.5,274.6,32.355,275.174,31.5Z" transform="translate(365.457 12.928)"/>
    <path id="Path_464" data-name="Path 464" class="cls-1" d="M311.966,27.532l-1.284-.358a2.894,2.894,0,0,1,0,3.592V27.9c-6.94-5.551-15.973.112-22.724-3.961-2.366,2.1-4.145,1.424-6.86,2.158,1.716.8,3.182.321,6,1.434.89,3.386-1.977,3.618-3.431,5.033-3.965-2.051-10.054-2.587-13.716,0l-1.284-.358-.431,1.078a5.535,5.535,0,0,0-3.431-.719c5.693-5.048-.737-20.261,8.578-22.281.469,10.41,15.087,8.389,24.859,7.909l-.42,1.075,1.28-.358c3.086,2.485,7.275.138,12.863,1.434.93,2.254-.988,5.124,3.434,3.6C315.761,26.4,312.828,26.1,311.966,27.532Z" transform="translate(352.48 3.92)"/>
    <path id="Path_465" data-name="Path 465" class="cls-1" d="M266.354,27.82l.249-2.238A5.63,5.63,0,0,1,266.354,27.82Z" transform="translate(354.545 10.544)"/>
    <path id="Path_466" data-name="Path 466" class="cls-1" d="M267.988,28.344l-3,.364A6.47,6.47,0,0,1,267.988,28.344Z" transform="translate(352.729 11.734)"/>
    <path id="Path_467" data-name="Path 467" class="cls-1" d="M278.969,17.095c1.357-.867,2.154-1.367,3-1.8Z" transform="translate(371.337 6.092)"/>
    <path id="Path_468" data-name="Path 468" class="cls-1" d="M284.484,24.793l1.713-.715A5.228,5.228,0,0,1,284.484,24.793Z" transform="translate(378.678 9.893)"/>
    <path id="Path_469" data-name="Path 469" class="cls-1" d="M286.563,24.577l-3.641,8.552C283.614,30.068,281.61,26.308,286.563,24.577Z" transform="translate(376.598 10.109)"/>
    <path id="Path_470" data-name="Path 470" class="cls-1" d="M285.22,34.711a6.4,6.4,0,0,1,2.445-.337Z" transform="translate(379.657 14.35)"/>
    <path id="Path_471" data-name="Path 471" class="cls-1" d="M286.269,34.489l2.7-.38A6.714,6.714,0,0,1,286.269,34.489Z" transform="translate(381.054 14.236)"/>
    <path id="Path_472" data-name="Path 472" class="cls-1" d="M290,33.571l6.429-.715A15.491,15.491,0,0,1,290,33.571Z" transform="translate(386.023 13.693)"/>
    <path id="Path_473" data-name="Path 473" class="cls-1" d="M294.846,34.109l1.487,2.485C295.681,35.774,294.338,35.354,294.846,34.109Z" transform="translate(392.321 14.236)"/>
    <path id="Path_474" data-name="Path 474" class="cls-1" d="M351.084,23.373c1.872-.456,3.711.771,5.485.679l-6.742,1.811C350.2,24.963,350.392,23.906,351.084,23.373Z" transform="translate(465.657 9.543)"/>
    <path id="Path_475" data-name="Path 475" class="cls-1" d="M364.911,11.755l-1.711-.718A5.245,5.245,0,0,1,364.911,11.755Z" transform="translate(483.457 4.246)"/>
    <path id="Path_476" data-name="Path 476" class="cls-1" d="M378.75,33.642l.613-1.539A1.937,1.937,0,0,1,378.75,33.642Z" transform="translate(504.155 13.367)"/>
    <path id="Path_477" data-name="Path 477" class="cls-1" d="M387.843,39.237l.853-13.655C388.456,30.049,389.041,34.819,387.843,39.237Z" transform="translate(516.259 10.544)"/>
    <path id="Path_478" data-name="Path 478" class="cls-1" d="M390.949,35.617l-.291-2.512A12.347,12.347,0,0,1,390.949,35.617Z" transform="translate(520.006 13.801)"/>
    <path id="Path_479" data-name="Path 479" class="cls-1" d="M385.635,47.653l3.578,1.255A8.658,8.658,0,0,1,385.635,47.653Z" transform="translate(513.32 20.1)"/>
    <path id="Path_480" data-name="Path 480" class="cls-1" d="M397.873,50.806c-.653.332-1.392.459-2.308.926l2.478-1.871A3.623,3.623,0,0,0,397.873,50.806Z" transform="translate(526.538 21.055)"/>
    <path id="Path_481" data-name="Path 481" class="cls-1" d="M398.439,48.9l-1.811,1.368A1.933,1.933,0,0,1,398.439,48.9Z" transform="translate(527.953 20.641)"/>
    <path id="Path_482" data-name="Path 482" class="cls-1" d="M456.62,17.892l4.292.244A21.7,21.7,0,0,1,456.62,17.892Z" transform="translate(607.809 7.214)"/>
    <path id="Path_483" data-name="Path 483" class="cls-1" d="M471.152,25.33l3.863.361A10.347,10.347,0,0,1,471.152,25.33Z" transform="translate(627.152 10.435)"/>
    <path id="Path_484" data-name="Path 484" class="cls-1" d="M475.013,28.237a9.563,9.563,0,0,1,1.716-2.152Z" transform="translate(632.292 10.762)"/>
    <path id="Path_485" data-name="Path 485" class="cls-1" d="M518.782,38.556l.863-1.437A3.868,3.868,0,0,1,518.782,38.556Z" transform="translate(690.553 15.539)"/>
    <path id="Path_486" data-name="Path 486" class="cls-1" d="M529.816,45.146a16.692,16.692,0,0,1,2.054,2.288Z" transform="translate(705.24 19.014)"/>
    <path id="Path_487" data-name="Path 487" class="cls-1" d="M537.175,56.116a16.442,16.442,0,0,1,.853-1.444Z" transform="translate(715.036 23.139)"/>
    <path id="Path_488" data-name="Path 488" class="cls-1" d="M550.26,40.951l.366-4.835C551.008,37.75,550.451,39.34,550.26,40.951Z" transform="translate(732.453 15.105)"/>
    <path id="Path_489" data-name="Path 489" class="cls-1" d="M546.736,26.585c3.452,1.609,4.844,4.785,3.434,7.907Z" transform="translate(727.762 10.978)"/>
    <path id="Path_490" data-name="Path 490" class="cls-1" d="M159.3,30.43l-4.282-.12A11.226,11.226,0,0,1,159.3,30.43Z" transform="translate(206.338 12.524)"/>
    <path id="Path_491" data-name="Path 491" class="cls-1" d="M145.941,29.422c-.277-.129-.338-.771-.518-1.525a5.941,5.941,0,0,0-.343-.989c2.317-.583,4.79-1.389,7.245-.937.534.567.4,1.793.047,2.737l-2.769.307A9.844,9.844,0,0,1,145.941,29.422Z" transform="translate(193.118 10.655)"/>
    <path id="Path_492" data-name="Path 492" class="cls-1" d="M140.849,31.216l10.728-2.876c-.086.327-.182.651-.268.973C148.278,31.306,144.234,30.583,140.849,31.216Z" transform="translate(187.485 11.738)"/>
    <path id="Path_493" data-name="Path 493" class="cls-1" d="M149.487,26.813l-7.716-.716C144.328,26.291,147.214,25.561,149.487,26.813Z" transform="translate(188.712 10.75)"/>
  </g>
</svg>
