<svg xmlns="http://www.w3.org/2000/svg" viewBox="-1558.846 7430 20 20">
  <defs>
    <style>
      .cls-1 {
        fill: #fff;
      }
    </style>
  </defs>
  <g id="_1488170399_Instagram_Solid" data-name="1488170399_Instagram_Solid" transform="translate(-1558.846 7430)">
    <path id="XMLID_142_" class="cls-1" d="M146.175,206.547a5.1,5.1,0,0,0-2.921-2.921,7.3,7.3,0,0,0-2.427-.464c-1.066-.046-1.406-.062-4.127-.062s-3.06.008-4.127.062a7.255,7.255,0,0,0-2.427.464,5.1,5.1,0,0,0-2.921,2.921,7.3,7.3,0,0,0-.464,2.427c-.046,1.066-.062,1.406-.062,4.127s.008,3.06.062,4.127a7.256,7.256,0,0,0,.464,2.427,5.1,5.1,0,0,0,2.921,2.921,7.3,7.3,0,0,0,2.427.464c1.066.046,1.406.062,4.127.062s3.06-.008,4.127-.062a7.256,7.256,0,0,0,2.427-.464,5.1,5.1,0,0,0,2.921-2.921,7.3,7.3,0,0,0,.464-2.427c.046-1.066.062-1.406.062-4.127s-.008-3.06-.062-4.127A7.256,7.256,0,0,0,146.175,206.547Zm-1.337,10.6A5.466,5.466,0,0,1,144.49,219a3.1,3.1,0,0,1-.75,1.151,3.131,3.131,0,0,1-1.151.75,5.512,5.512,0,0,1-1.855.348c-1.059.046-1.368.062-4.042.062s-2.991-.008-4.042-.062a5.466,5.466,0,0,1-1.855-.348,3.1,3.1,0,0,1-1.151-.75,3.131,3.131,0,0,1-.75-1.151,5.511,5.511,0,0,1-.348-1.855c-.046-1.059-.062-1.376-.062-4.042s.008-2.991.062-4.042a5.466,5.466,0,0,1,.348-1.855,3.1,3.1,0,0,1,.75-1.151,3.13,3.13,0,0,1,1.151-.75,5.512,5.512,0,0,1,1.855-.348c1.059-.046,1.376-.062,4.042-.062s2.991.008,4.042.062a5.466,5.466,0,0,1,1.855.348,3.1,3.1,0,0,1,1.151.75,3.131,3.131,0,0,1,.75,1.151,5.512,5.512,0,0,1,.348,1.855c.046,1.059.062,1.376.062,4.042S144.884,216.091,144.838,217.142Z" transform="translate(-126.7 -203.1)"/>
    <path id="XMLID_145_" class="cls-1" d="M194.639,266a5.139,5.139,0,1,0,5.139,5.139A5.142,5.142,0,0,0,194.639,266Zm0,8.478a3.338,3.338,0,1,1,3.338-3.338A3.339,3.339,0,0,1,194.639,274.478Z" transform="translate(-184.647 -261.139)"/>
    <path id="XMLID_143_" class="cls-1" d="M1.2,0A1.2,1.2,0,1,1,0,1.2,1.2,1.2,0,0,1,1.2,0Z" transform="translate(14.134 3.462)"/>
  </g>
</svg>
