<svg xmlns="http://www.w3.org/2000/svg" viewBox="-2309 8219.3 90 90">
  <defs>
    <style>
      .cls-1, .cls-2 {
        fill: none;
      }

      .cls-2 {
        stroke: #858484;
        stroke-linecap: round;
        stroke-linejoin: round;
        stroke-miterlimit: 10;
        stroke-width: 2px;
      }
    </style>
  </defs>
  <g id="_1498032663_trekking" data-name="1498032663_trekking" transform="translate(-2309 8219.3)">
    <rect id="Rectangle_20" data-name="Rectangle 20" class="cls-1" width="90" height="90"/>
    <path id="Path_1" data-name="Path 1" class="cls-2" d="M24,9.1A8.1,8.1,0,1,0,32.1,1,8.1,8.1,0,0,0,24,9.1Z" transform="translate(19.2 0.8)"/>
    <path id="Path_2" data-name="Path 2" class="cls-2" d="M24.062,29.584,20.48,41.939s-3.9,9.455-6.388,14.513c-1.886,3.832-1.9,6.521.013,7.555,2.351,1.269,4.237.1,7.034-4.261,4.693-7.319,6.313-13.505,7.216-15.282l3.357-8.284" transform="translate(10.138 23.667)"/>
    <path id="Path_3" data-name="Path 3" class="cls-2" d="M42.268,50.231,31.5,39.535s4.428-19.98,4.849-21.9-.04-2.813-2.027-3.559L27.46,12.137c-1.84-.562-3.391.641-3.685,2.641L18.813,32.562c-.864,4.174-.934,9.065,2.812,12.492a2,2,0,0,0,.155.191L35.74,57l-1.6,15.714c-.36,4.383.455,5.645,2.819,5.821,3.181.241,3.852-4.388,4.082-5.551,0,0,1.843-14.747,2.189-16.783S43.775,51.77,42.268,50.231Z" transform="translate(14.66 9.599)"/>
    <path id="Path_4" data-name="Path 4" class="cls-2" d="M27.916,23.259l8.152,5.7a4.261,4.261,0,0,0,3.872.646s7.72-4.689,9.79-6.039c2.171-1.422,4.439-3.29,3.6-4.858-1.192-2.252-3.357-1.208-5.465-.187l-8.275,3.892L28.053,13.49" transform="translate(22.333 10.792)"/>
    <line id="Line_1" data-name="Line 1" class="cls-2" y2="52.177" transform="translate(70.2 36.023)"/>
    <line id="Line_2" data-name="Line 2" class="cls-2" y2="6.347" transform="translate(70.2 22.138)"/>
    <path id="Path_5" data-name="Path 5" class="cls-2" d="M24.649,33.535S23.24,36.2,18.2,36.2A7.041,7.041,0,0,1,11,29c0-12.6,12.3-18.088,14.4-18a4.5,4.5,0,0,1,4.259,4.441" transform="translate(8.8 8.8)"/>
  </g>
</svg>
