<svg xmlns="http://www.w3.org/2000/svg" viewBox="4885 8615 36.78 30">
  <defs>
    <style>
      .cls-1 {
        fill: #bec4c6;
      }
    </style>
  </defs>
  <path id="_1493835336_icon_266" data-name="1493835336_icon_266" class="cls-1" d="M37.2,51.551a15.056,15.056,0,0,1-4.334,1.192,7.588,7.588,0,0,0,3.318-4.19,15.056,15.056,0,0,1-4.792,1.837,7.544,7.544,0,0,0-13.054,5.182,7.633,7.633,0,0,0,.2,1.726A21.4,21.4,0,0,1,2.977,49.386,7.6,7.6,0,0,0,5.312,59.5a7.491,7.491,0,0,1-3.418-.947c0,.032,0,.063,0,.095a7.572,7.572,0,0,0,6.053,7.427,7.542,7.542,0,0,1-3.408.13,7.557,7.557,0,0,0,7.049,5.26A15.106,15.106,0,0,1,2.216,74.7a15.245,15.245,0,0,1-1.8-.106A21.3,21.3,0,0,0,11.983,78c13.88,0,21.47-11.54,21.47-21.549q0-.492-.022-.98A15.369,15.369,0,0,0,37.2,51.551Z" transform="translate(4884.584 8567)"/>
</svg>
