<svg xmlns="http://www.w3.org/2000/svg" viewBox="7511.07 7849.999 60.139 25.733">
  <defs>
    <style>
      .cls-1 {
        fill: #fff;
      }
    </style>
  </defs>
  <g id="_1498043697_arrow_pencil_left-small" data-name="1498043697_arrow_pencil_left-small" transform="translate(7571.209 7875.732) rotate(180)">
    <path id="Path_496" data-name="Path 496" class="cls-1" d="M5.965,10.826a1.114,1.114,0,0,1-1.114-1.07,1.041,1.041,0,0,1,.013-.218L1.108,9.516A1.112,1.112,0,0,1,.921,7.308L7.43,6.164a.951.951,0,0,1,.239-.016l.192.008L5.936,1.539A1.113,1.113,0,0,1,7.131.011L49.023,6.225l9.334-.514a1.088,1.088,0,0,1,1.175,1.049,1.112,1.112,0,0,1-1.051,1.171l-1.941.107a1.177,1.177,0,0,1,.028.186,1.112,1.112,0,0,1-.794,1.145l-2.541.755a.984.984,0,0,1-.363.046l-5.42-.215-41.463.87Zm4.351-4.573,22.2.882,5.452-.3L8.753,2.5Z" transform="translate(0 5.628)"/>
    <path id="Path_497" data-name="Path 497" class="cls-1" d="M4.6,25.374A1.112,1.112,0,0,1,4,23.323L20.249,13.029C10.394,8.542,3.885,5.61,2.866,5.2A1.179,1.179,0,0,1,2.3,4.892a1.115,1.115,0,0,1-.27-.43C1.831,4.15.969,2.87.195,1.74A1.113,1.113,0,0,1,1.6.112l22.669,11a1.113,1.113,0,0,1,.486,1.544,1.111,1.111,0,0,1-.076,1.905L5.131,25.237A1.107,1.107,0,0,1,4.6,25.374Z" transform="translate(34.88)"/>
    <path id="Path_498" data-name="Path 498" class="cls-1" d="M1.117,24.325a1.112,1.112,0,0,1-.519-2.1L21.276,11.406,1.419,2.12A1.113,1.113,0,1,1,2.366.106L24.258,10.343a1.111,1.111,0,0,1,.045,1.992L1.634,24.2A1.122,1.122,0,0,1,1.117,24.325Z" transform="translate(35.06 1.408)"/>
  </g>
</svg>
