<svg xmlns="http://www.w3.org/2000/svg" viewBox="-2566 10920.716 1287 226.284">
  <defs>
    <style>
      .cls-1 {
        fill: #fff;
      }
    </style>
  </defs>
  <g id="borde" transform="translate(-2566 10919.486)">
    <path id="Path_312" data-name="Path 312" class="cls-1" d="M119.422,65.454c3.061.366,4.49,2.273,4.3-3.506,2,.378.832,5.1,2.567,5.849-.007,5.052-6.205,1.664-6.86,5.844-1.5-.284-1.951-2-1.711-4.683C120.869,71.732,117.354,67.505,119.422,65.454Z" transform="translate(156.607 80.823)"/>
    <path id="Path_313" data-name="Path 313" class="cls-1" d="M124.734,62.491c2.326-.832-.615,5.522,1.713,4.683C125.135,70.848,122.746,63.733,124.734,62.491Z" transform="translate(165.022 81.445)"/>
    <path id="Path_314" data-name="Path 314" class="cls-1" d="M119.19,60.444a8.316,8.316,0,0,1-5.147,4.672c-1.935-2.522.711-3.986,0-8.185C116.6,56.954,116.969,59.975,119.19,60.444Z" transform="translate(150.842 74.144)"/>
    <path id="Path_315" data-name="Path 315" class="cls-1" d="M20.2,62.618c.354-2.254,3.326-.923,2.581-4.683C26.953,59.355,21.836,65.693,20.2,62.618Z" transform="translate(26.894 75.481)"/>
    <path id="Path_316" data-name="Path 316" class="cls-1" d="M13.5,58.879c-2.636-.87-1.648,3.217-4.282,2.34C6.232,56.911,13.479,52.032,13.5,58.879Z" transform="translate(11.31 72.199)"/>
    <path id="Path_317" data-name="Path 317" class="cls-1" d="M129.877,50.468c2.961-.825,3.065,4.089,1.713,5.835C129.85,55.454,128.087,52.794,129.877,50.468Z" transform="translate(171.884 65.418)"/>
    <path id="Path_318" data-name="Path 318" class="cls-1" d="M129.321,50.976c-.249,2.387-2.308,2.291-2.569,4.676-1.065-.513-1.765-1.49-1.716-3.506A4.468,4.468,0,0,1,129.321,50.976Z" transform="translate(166.433 66.068)"/>
    <path id="Path_319" data-name="Path 319" class="cls-1" d="M75.391,54.383c-1.387.331-1.485-1.1-2.574-1.17C72.468,50.945,76.715,51.516,75.391,54.383Z" transform="translate(96.901 67.338)"/>
    <path id="Path_320" data-name="Path 320" class="cls-1" d="M72.507,46.4c2.326,1.9,4.984,3.333,6.849,5.842C77.638,61.012,69.183,54.331,72.507,46.4Z" transform="translate(95.493 60.124)"/>
    <path id="Path_321" data-name="Path 321" class="cls-1" d="M82.371,47.9c-.373,1.832-2.7,1-1.716,4.674-1.168-.364-.72-2.923-.863-4.674Z" transform="translate(106.213 62.127)"/>
    <path id="Path_322" data-name="Path 322" class="cls-1" d="M18.737,46.4c2.4.226,3.648,2.037,3.42,5.842C19.886,51.846,19.273,49.177,18.737,46.4Z" transform="translate(24.941 60.124)"/>
    <path id="Path_323" data-name="Path 323" class="cls-1" d="M92.178,45.416c.825,4.639-2.48,3.627-4.294,4.679C88.047,46.8,89.381,45.113,92.178,45.416Z" transform="translate(116.983 58.77)"/>
    <path id="Path_324" data-name="Path 324" class="cls-1" d="M418.306,42.1c5.2,6.32-3.944,19.633-8.567,12.865-.317-3.546,2.795-2.429,4.294-3.511,1.023-3.275.937-8.066.851-12.865l1.571.587,1-1.755C419.485,36.465,421.555,43.062,418.306,42.1Z" transform="translate(545.375 48.051)"/>
    <path id="Path_325" data-name="Path 325" class="cls-1" d="M509.552,47.5c-2.138-.478-.049-4.536,1.725-3.511C510.972,45.521,509.764,45.826,509.552,47.5Z" transform="translate(677.061 56.691)"/>
    <path id="Path_326" data-name="Path 326" class="cls-1" d="M64.711,46.231H62.14v-2.34h2.571Z" transform="translate(82.715 56.787)"/>
    <path id="Path_327" data-name="Path 327" class="cls-1" d="M11.745,46.509c-.867-.76-.893-2.688-2.574-2.343.669-2.685,5.308-1.133,4.292,2.343C12.7,45.784,11.929,45.092,11.745,46.509Z" transform="translate(12.208 55.341)"/>
    <path id="Path_328" data-name="Path 328" class="cls-1" d="M123.441,42.9c-.737,1.734-2.156,2.513-4.292,2.338Q120.236,42.635,123.441,42.9Z" transform="translate(158.6 55.438)"/>
    <path id="Path_329" data-name="Path 329" class="cls-1" d="M515.965,45.732c-1.753-.851-3.506-3.527-1.716-5.856.832.042.66,1.436.851,2.343.832-.033.662-1.431.865-2.343a3.426,3.426,0,0,0,2.569,1.175C519.28,44.8,515.7,42.65,515.965,45.732Z" transform="translate(683.52 51.442)"/>
    <path id="Path_330" data-name="Path 330" class="cls-1" d="M61.4,42.055c1.18-3.438,3.536-3.886,5.142-1.175C66.441,43.463,62.916,41.386,61.4,42.055Z" transform="translate(81.731 50.438)"/>
    <path id="Path_331" data-name="Path 331" class="cls-1" d="M407.883,43.882l-1-1.762-1.56.592c-.24-5.781,2.49-7.5,2.56-12.865,5.289,1.028,1.846,6.774,3.431,12.865C409.781,42.558,409.508,44.143,407.883,43.882Z" transform="translate(539.508 38.091)"/>
    <path id="Path_332" data-name="Path 332" class="cls-1" d="M163.816,43.38c-3.639,1.07-3.657-2.8-3.42-7.012C162.334,37.613,163.5,39.914,163.816,43.38Z" transform="translate(213.391 46.773)"/>
    <path id="Path_333" data-name="Path 333" class="cls-1" d="M124.062,41.031c-2.534-1.683,1.014-4.7,3.431-3.506C127.712,42.369,124.167,39.076,124.062,41.031Z" transform="translate(163.976 47.949)"/>
    <path id="Path_334" data-name="Path 334" class="cls-1" d="M546.739,41.147c-2.082-.73-.464-5.9,1.711-4.672C550.042,41.3,547.8,39.949,546.739,41.147Z" transform="translate(726.482 46.665)"/>
    <path id="Path_335" data-name="Path 335" class="cls-1" d="M269.336,36.368c.7.219.853,1.17,1.718,1.163-.163.946-.865,1.166-.855,2.338-.7-.221-.863-1.173-1.713-1.168C268.648,37.757,269.336,37.538,269.336,36.368Z" transform="translate(357.381 46.773)"/>
    <path id="Path_336" data-name="Path 336" class="cls-1" d="M139.6,39.069c-1.667.462-1.254-5.32.853-3.5v2.338C139.725,37.689,139.648,38.36,139.6,39.069Z" transform="translate(184.452 45.235)"/>
    <path id="Path_337" data-name="Path 337" class="cls-1" d="M160.462,39.2l.434-2.14-1.287-1.371c1.7-5.48,5.933-2.273,10.292-2.338v7.019C166.756,36.817,162.782,44.565,160.462,39.2Z" transform="translate(212.456 41.599)"/>
    <path id="Path_338" data-name="Path 338" class="cls-1" d="M139.618,35.948c-.72,1.732-2.156,2.508-4.285,2.338C135.958,35.906,137.911,33.508,139.618,35.948Z" transform="translate(180.142 44.855)"/>
    <path id="Path_339" data-name="Path 339" class="cls-1" d="M273.76,33.9c-1.921,1.312-3.147,7.075-6.012,3.5C267.769,32.534,271.086,32.147,273.76,33.9Z" transform="translate(356.4 42.218)"/>
    <path id="Path_340" data-name="Path 340" class="cls-1" d="M219.038,37.034c-1.226-.1-2.436-.191-2.576,1.159-2-.3-.49-5.128,0-5.839C217.716,33.374,219.788,33.285,219.038,37.034Z" transform="translate(286.789 41.429)"/>
    <path id="Path_341" data-name="Path 341" class="cls-1" d="M43.748,33.859h2.569v2.329H43.748Z" transform="translate(58.233 43.433)"/>
    <path id="Path_342" data-name="Path 342" class="cls-1" d="M423.385,27.521c1.562,6.343-2.671,14.05-6.851,16.371C415.049,38.277,418.893,24.973,423.385,27.521Z" transform="translate(554.018 34.57)"/>
    <path id="Path_343" data-name="Path 343" class="cls-1" d="M217.726,34.155c1.2-3.4,4.226.34,5.147,1.175C221.722,38.659,219.057,34.426,217.726,34.155Z" transform="translate(289.816 41.962)"/>
    <path id="Path_344" data-name="Path 344" class="cls-1" d="M149.546,32.4c-1.487,3.473-5.683,8.012-9.432,4.681V32.4C142.9,30.812,145.357,31.456,149.546,32.4Z" transform="translate(186.506 40.209)"/>
    <path id="Path_345" data-name="Path 345" class="cls-1" d="M72.668,34.567c-.212,2.739-3.758.669-4.273,0C69.113,31.133,70.54,36.089,72.668,34.567Z" transform="translate(91.041 42.726)"/>
    <path id="Path_346" data-name="Path 346" class="cls-1" d="M502.8,37.867c-1.084-2.028-2.9-3.07-2.571-7.019C502.358,31.592,503.913,36.214,502.8,37.867Z" transform="translate(665.807 39.425)"/>
    <path id="Path_347" data-name="Path 347" class="cls-1" d="M267.012,34.689V32.353h1.716v2.336Z" transform="translate(355.421 41.429)"/>
    <path id="Path_348" data-name="Path 348" class="cls-1" d="M180.943,36.023c-.119-3.671,2.2-4.014,4.292-4.672C184.937,34.456,182.986,35.291,180.943,36.023Z" transform="translate(240.849 40.095)"/>
    <path id="Path_349" data-name="Path 349" class="cls-1" d="M503.522,32.518c.718.214.8-.457.844-1.166,1.016.186.73,2.133.86,3.508C503.771,35.285,503.61,33.942,503.522,32.518Z" transform="translate(670.24 40.096)"/>
    <path id="Path_350" data-name="Path 350" class="cls-1" d="M410.06,31.511V35.02C407.561,36.733,407.561,29.782,410.06,31.511Z" transform="translate(543.338 39.937)"/>
    <path id="Path_351" data-name="Path 351" class="cls-1" d="M222.8,33.022c.24,1.858-4.639,1.641-2.571-1.17C219.89,32.307,222.8,33.1,222.8,33.022Z" transform="translate(292.461 40.762)"/>
    <path id="Path_352" data-name="Path 352" class="cls-1" d="M149.043,32.29c-4.343,4.14-4.714-3.021,0,0Z" transform="translate(193.869 40.324)"/>
    <path id="Path_353" data-name="Path 353" class="cls-1" d="M185.029,33.294c-.69-4.443,4.051-1.485,6-2.338C190.906,34.3,187.453,33.093,185.029,33.294Z" transform="translate(246.202 39.32)"/>
    <path id="Path_354" data-name="Path 354" class="cls-1" d="M504.068,28.34c-.086,4.371-.97,3.336,0,7.021C501.345,34.832,500.821,29.072,504.068,28.34Z" transform="translate(667.981 36.087)"/>
    <path id="Path_355" data-name="Path 355" class="cls-1" d="M73.3,32.431l.431-2.14-1.3-1.364c4.035-2.238,12.525-4.338,15.439-1.17C86.109,33.54,79.344,32.494,73.3,32.431Z" transform="translate(96.419 33.164)"/>
    <path id="Path_356" data-name="Path 356" class="cls-1" d="M496.889,32.178c-3.352,1.312-4.082,3.5-7.714,1.175q.465-6.381,5.135-7.019C494.313,29.455,497.024,28.877,496.889,32.178Z" transform="translate(651.143 33.417)"/>
    <path id="Path_357" data-name="Path 357" class="cls-1" d="M492.116,29.235V24.554a4.482,4.482,0,0,1,4.292-1.163,8.32,8.32,0,0,1,.851,4.674l-1.284-.585-.431,1.755Z" transform="translate(655.057 29.345)"/>
    <path id="Path_358" data-name="Path 358" class="cls-1" d="M550.947,25.836c2.4-.173,2.464,2.865,2.569,5.846C551.579,30.9,549.208,28.176,550.947,25.836Z" transform="translate(732.563 32.744)"/>
    <path id="Path_359" data-name="Path 359" class="cls-1" d="M507.563,28.1c2.6-4.324,2.9,3.546,0,0Z" transform="translate(675.619 33.99)"/>
    <path id="Path_360" data-name="Path 360" class="cls-1" d="M509.052,25.91c2.242-.322,4.294-.392,3.431,3.511C510.241,29.747,508.793,28.994,509.052,25.91Z" transform="translate(677.561 32.67)"/>
    <path id="Path_361" data-name="Path 361" class="cls-1" d="M96.715,28.237,98,27.655,97.566,25.9c1.993-1.249,8.175-2.809,9.429-1.177L105.711,25.9,107,27.067C104.7,30.242,98.61,34.245,96.715,28.237Z" transform="translate(128.738 30.343)"/>
    <path id="Path_362" data-name="Path 362" class="cls-1" d="M50.245,29.189c-1.051-.511-1.762-1.5-1.713-3.511,2.636-.814,1.648-.814,4.292,0C52.718,27.891,49.979,26.492,50.245,29.189Z" transform="translate(64.597 31.732)"/>
    <path id="Path_363" data-name="Path 363" class="cls-1" d="M279.384,23.345c.413,3.681-1.217,4.571-1.7,7.014-1.9.643-1.226-2.229-2.576-2.34C275.265,24.734,276.6,23.042,279.384,23.345Z" transform="translate(366.192 29.392)"/>
    <path id="Path_364" data-name="Path 364" class="cls-1" d="M193.815,26.593c2.6-4.317,2.9,3.55,0,0Z" transform="translate(257.988 31.988)"/>
    <path id="Path_365" data-name="Path 365" class="cls-1" d="M286.137,25.43c.73-4.166,2.117-.142,5.156-1.17C289.8,27.549,289.042,25.357,286.137,25.43Z" transform="translate(380.878 29.64)"/>
    <path id="Path_366" data-name="Path 366" class="cls-1" d="M222.5,27.018c-2.1-2.445-1.832-1.669-5.145-1.17.86-2.716,2.949-3.765,6.007-3.506C223.468,24.44,222.31,24.815,222.5,27.018Z" transform="translate(289.323 28.052)"/>
    <path id="Path_367" data-name="Path 367" class="cls-1" d="M183.747,25.744c-3.518-1.275,3.056-4.886,1.723,0C184.7,25.031,183.931,24.343,183.747,25.744Z" transform="translate(243.19 29.326)"/>
    <path id="Path_368" data-name="Path 368" class="cls-1" d="M417.084,24.655c.816-2.4,1.065-5.567,3.434-5.842l.424,1.739,1.282.592c.366,2.229,1.851,2.942,1.716,5.844C421.637,29.788,419.373,25.426,417.084,24.655Z" transform="translate(555.182 23.405)"/>
    <path id="Path_369" data-name="Path 369" class="cls-1" d="M417.451,21.145c.5-2.434,1.8-3.786,2.576-5.846a3.388,3.388,0,0,0,2.56,1.173c.124,2.884.142,5.639-.853,7.021l-.862-.594-.842-.583C418.638,22.649,418.544,21.213,417.451,21.145Z" transform="translate(555.671 18.728)"/>
    <path id="Path_370" data-name="Path 370" class="cls-1" d="M414.436,24.868c-.583-2.319-5.107.73-4.282-3.506C412.6,21.131,414.833,21.211,414.436,24.868Z" transform="translate(545.824 26.698)"/>
    <path id="Path_371" data-name="Path 371" class="cls-1" d="M445.4,19.813c1.266.608,2.154,1.737,3.424,2.333-2.168.932-3.254,3.366-5.991,3.511C443.6,23.594,444.9,22.249,445.4,19.813Z" transform="translate(589.457 24.737)"/>
    <path id="Path_372" data-name="Path 372" class="cls-1" d="M344.254,20.317c3.161-.03,5.9.524,6,4.672C347.091,25.021,344.352,24.468,344.254,20.317Z" transform="translate(458.238 25.405)"/>
    <path id="Path_373" data-name="Path 373" class="cls-1" d="M403.842,23.835c.741-1.72,1.287-3.711,3.436-3.511C407.525,23.4,406.089,24.163,403.842,23.835Z" transform="translate(537.556 25.398)"/>
    <path id="Path_374" data-name="Path 374" class="cls-1" d="M490.647,20.316h3.424v2.338h-3.424Z" transform="translate(653.102 25.406)"/>
    <path id="Path_375" data-name="Path 375" class="cls-1" d="M298.632,16.3c-.534,5.117-4.387,5.707-5.145,10.52-2.625-1.877-4.676-4.534-5.138-9.35C291.965,15.507,293.659,17.195,298.632,16.3Z" transform="translate(383.822 20.063)"/>
    <path id="Path_376" data-name="Path 376" class="cls-1" d="M325.126,17.31c2.667-.11,4.767.534,6.012,2.345C330.975,24.655,324.984,20.231,325.126,17.31Z" transform="translate(432.774 21.389)"/>
    <path id="Path_377" data-name="Path 377" class="cls-1" d="M537.481,17.3H539.2v3.522a3.4,3.4,0,0,0-2.576-1.177C536.782,18.7,537.481,18.485,537.481,17.3Z" transform="translate(714.298 21.395)"/>
    <path id="Path_378" data-name="Path 378" class="cls-1" d="M464.664,17.807a3.881,3.881,0,0,0,3.427,1.17C468.364,21.045,463.3,21.068,464.664,17.807Z" transform="translate(618.204 22.066)"/>
    <path id="Path_379" data-name="Path 379" class="cls-1" d="M437.06,29.5c-1.054-2.077-1.669-4.746-3.424-5.856-.019-6.245,1.284-10.709,4.285-12.858C442.435,14.578,440.258,26.285,437.06,29.5Z" transform="translate(577.213 12.719)"/>
    <path id="Path_380" data-name="Path 380" class="cls-1" d="M433.02,20.979c.147-1.368-.191-2.086-.86-2.347.86-3.285,3.965-.121,4.294,1.17C436.186,21.391,434.309,20.776,433.02,20.979Z" transform="translate(575.25 21.24)"/>
    <path id="Path_381" data-name="Path 381" class="cls-1" d="M371.231,18.05l-.431-1.168-.434-1.177c1.858-.972,2.933-3.023,6.01-2.333C377.681,18.411,371.709,26.444,371.231,18.05Z" transform="translate(492.996 15.977)"/>
    <path id="Path_382" data-name="Path 382" class="cls-1" d="M342.27,18.231c-3.888,3.9-5.655-2.9,0,0Z" transform="translate(450.793 21.643)"/>
    <path id="Path_383" data-name="Path 383" class="cls-1" d="M467.107,20.6V15.928c2.963-.928,3.611,1.3,5.135,2.336C471.462,20.306,469.557,20.835,467.107,20.6Z" transform="translate(621.768 19.271)"/>
    <path id="Path_384" data-name="Path 384" class="cls-1" d="M415.117,22.484c-2.809.312-1.821-4.534-4.285-4.674.3-1.536,1.494-1.842,1.716-3.518.977.424,2.163,2.063.851,2.345C414.483,18.386,416.9,20.16,415.117,22.484Z" transform="translate(546.86 17.389)"/>
    <path id="Path_385" data-name="Path 385" class="cls-1" d="M334.322,18.173c.212-4.809,7.485-1.522,6.86,2.338C338.185,20.709,335.693,20.2,334.322,18.173Z" transform="translate(445.017 19.362)"/>
    <path id="Path_386" data-name="Path 386" class="cls-1" d="M299.619,15.934v3.5a2.592,2.592,0,0,1-4.285,0C295.849,17.022,296.663,15.006,299.619,15.934Z" transform="translate(393.12 19.266)"/>
    <path id="Path_387" data-name="Path 387" class="cls-1" d="M417.572,19.828c-1-1.744-3.555-1.378-3.434-4.676,2.648-.825,1.65-.825,4.294,0C418.54,17.247,417.39,17.615,417.572,19.828Z" transform="translate(551.255 17.708)"/>
    <path id="Path_388" data-name="Path 388" class="cls-1" d="M458.265,23.818h-2.573c-3.275-7.646.473-12.068,3.434-14.038A20.623,20.623,0,0,1,458.265,23.818Z" transform="translate(604.881 11.382)"/>
    <path id="Path_389" data-name="Path 389" class="cls-1" d="M390.633,15.775c-3.769,4.3-3.252-3.238,0,0Z" transform="translate(516.463 18.252)"/>
    <path id="Path_390" data-name="Path 390" class="cls-1" d="M254.329,20.081c.625-3.571-1.485-3.438-.86-7.017,1.765-1.811,7.676-1.811,9.429,0C261.553,19.1,258.707,17.226,254.329,20.081Z" transform="translate(337.237 13.946)"/>
    <path id="Path_391" data-name="Path 391" class="cls-1" d="M427.369,19l-.422-1.751-1.284.58c.622-3.574-.872-4.259-.853-7.014,2.012-.366,1.578-4.058,4.273-3.506,1.681,1.632,3.606,6.443,1.716,9.348l-1.284-.576.434,1.748C430.541,21.717,428.173,19.71,427.369,19Z" transform="translate(565.465 8.014)"/>
    <path id="Path_392" data-name="Path 392" class="cls-1" d="M368.533,15.3V11.787c1.124.427,1.333,2.061,2.564,2.333C370.969,15.5,369.531,15.116,368.533,15.3Z" transform="translate(490.556 14.053)"/>
    <path id="Path_393" data-name="Path 393" class="cls-1" d="M432.139,4.923V8.433C429.626,10.151,429.626,3.2,432.139,4.923Z" transform="translate(572.713 4.548)"/>
    <path id="Path_394" data-name="Path 394" class="cls-1" d="M461.019,1.289c-.813,2.387-1.755,4.625-2.573,7.019C456.161,6.224,458.443.592,461.019,1.289Z" transform="translate(608.988 0)"/>
    <path id="Path_395" data-name="Path 395" class="cls-1" d="M11.1,63.217c2.168,5.877-.48,11.642-.863,17.535-5.212.69-5.644,7.893-7.716,12.87,2.054,6.942,7.007,9.935,10.294,15.2l-1.3-.587-.422,1.748c-4.2,2.406-8.539-5.452-9.432,0l-1.294-.578c1.618,4.147.853,8.369,1.294,12.863l.853.583c1.149.772,1.6,2.5,1.725,4.683.825-.042.653-1.434.842-2.343,2.657,1.3,2.31,6.66,6.01,3.5,1.121,5.492,2.03,11.262,5.145,14.031,5.55.564,4.121-8.4,9.429-8.175,1.009-.2.72-2.133.853-3.518,2.07-.483,1.87,2.138,4.3,1.173l.429,1.751,1.287-.585c.977,4.592.173,4.352.851,9.355,3.392-4.317,7.3-2.769,12-3.511,1.9-.909-.163-7.229,3.431-5.844.511,3.986,2.368,6.145,2.576,10.527,2.34.856,1.725-2.317,3.431-2.336-1-9.516-1.753-19.6,4.285-22.213v-5.844q2.808-.325,2.571,3.5c2.56-2.76,5.289-5.273,6.863-9.357,1.511,3.014,5.975,1.991,8.574,3.506a4.034,4.034,0,0,0,0,4.681c1.245.632,4.427-1.359,4.285,1.17,2.846-.417,1.352-6.746,1.716-10.527,1.359.1,3.275-.559,3.429,1.17l-.431,1.758,1.3.578c.152,1-.34,1.107-.865,1.17-.49,7.042,2.993,7.59,5.147,8.194,2.963-1.033.767-9.1,5.147-8.194-3.478-9.175,3.6-16.754.853-24.547l.431-1.753-1.284-.594c-.021-2.751,1.476-3.443.853-7.014a33.863,33.863,0,0,0,8.578,7.014c-.233,2.41-3.8.284-3.424,3.513,3.317,4.907,12.094-.863,12-8.187,1.986-3.14,5.886-3.669,6.853-8.18,4.063-.473,5.9,2.082,10.3,1.168l-.441,2.142,1.3,1.359c-1.056,1.671-3.278,2.662-4.294,1.17-1.016,5.282,2,5.065,4.294,5.849l-.431,1.76,4.282-2.345-.431-1.758c2.382-2.762,4.016,1.844,6.007,1.175,1.235,5.2-.289,7.245.853,11.7-3.1-5.464-7.581,1.375-12,3.5,4.686,3.634,10.4,2.744,12.861,7.014,3.459.184,7.112-3.48,7.718,2.34l-.434,1.758,2.576.387-.431-2.145h.851c1.086-4.769,1.793-10.042,6-10.523,2.079,7.515,2.117,20.462,5.147,28.066,3.159.406,2.595-4.261,3.429-7.019,2.9.345,2.49,5.182,5.156,5.846,3.086.322,2.322-4.625,5.135-4.681l.434,1.753c.317-1.56.441-3.114.853-4.681l-1.287-.578c1.657-8.912-3.1-17.4.853-22.213,5.9,1.7,2.981,15.413,6.007,21.052l-1.532-.429,1.1,3.345,1.3.585h.855l-.434,1.751,1.294.592c-.326,1.986.662,2.205,1.7,2.333l-.422,1.748,1.284-.578c.727-.217.807.457.855,1.173,2.739,1,2.653-1.842,4.28-2.343,9.21,3.76,16.332-2.926,10.292-17.542,4.257-1.543,7.383,1.527,10.294,0,1.448,4.051-1.59,10.758,4.282,10.527-1.991,3.676-1.091,5.243-1.711,9.359-1.706,1.949-1.086-.112-3.424,0,.289,2.345-.182,3.658-1.725,3.511l-1.282.578a9.889,9.889,0,0,1,.86,4.681l1.287.578.422,1.765,2.455,1.494-.305-2.086c1.392-.34,1.478,1.1,2.578,1.161,2.692-.212,1.093-6.3,4.285-5.842-3.385-7.247,1.408-11.644-.851-19.884a4.461,4.461,0,0,0,4.282-1.161c-.527-1.047-1.035-2.091,0-2.345a6.505,6.505,0,0,0-2.569-2.34l.422-1.753-1.284-.587c-1.312-2.746,7.3-9.94,1.713-15.192v-1.17h-.851c-.163-1,.324-1.114.851-1.177-.611-2.564-4.026-3.879-1.713-7.014h-3.434c-.478,5.194-3.133,7.413-5.135,10.527.354-15.008-13.52-2.117-16.3-9.359l.434-1.751L199.72,74.9c.1-3.361,3.66-2.026,3.431-5.853,10.091.886,21.616-5.968,27.444,2.352,2.291-.464,4.2-4.124,5.989-4.681.844-.266,1.6,2.177,2.576,2.329,1.977.324,2.83-3.48,3.434-3.5,1.245-.033,2.012,3.177,3.429,3.5,3.347.8,5.965-4.706,10.294-2.329a22.242,22.242,0,0,0,3.429-7.019l.434-1.751-.434-1.755c2.963,2.175,4.564-.552,7.718-1.175.191-2.065-.863-5.844,1.716-4.674v2.343h1.713v2.331c4.329,6.173,11.021-4.042,15.427,1.175,2.886-6.914,17.565,3.054,22.292-5.849l1.3-1.17-1.3-1.17c3.352-3.492,6.154,2.606,10.294,0A11.014,11.014,0,0,1,314.62,56.2v1.17l-1.294.585.431,1.751c-2.252,5.11-10.415,2.163-12.861,7.019-.832-.03-.669-1.434-.851-2.338-3.9,1.448,1.473,3.408-.865,5.849l-1.284-.592-.431,1.762c-6.832.928-11.311.842-16.292,5.839-1.282-1.354-2.1-3.382-4.28-3.508-2.9-.445-1.352,5.173-5.147,3.508l.431-1.751-1.284-.587c-1.263-2.219-5.618-.14-3.431,2.338l-1.3.59.434,1.751c-.375,1.434-1.093,2.4-2.571,2.34.231,2.963,3.681,6.623,0,8.185.767,2.07,3.48,1.5,2.571,5.846-1.891,3.163-2.846.322-5.147,2.343l-.988-1.765c-.382,1.935-1.417,3.483-2.865,3.912l1.287,1.352c-2.371,1.457-2.716,5.658-4.285,8.187,10.772.1,23.439-4.9,31.717-2.336.844,4.257-4.175.541-2.569,5.856-4.11.375-7.352-3.245-8.576,2.331-7.881-6.28-10.763,2.8-17.145,5.846V128.7c-1.284,1.366-3.506,1.457-4.294,3.511l-1.284-.585c.548,1.173,1.044,2.336,1.716,3.515l-.434-1.765c3.807-.119,6.422,1.4,6.863,5.844,3.476-1.492,8.693-.615,12.005-2.333-.145,1.359.182,2.079.853,2.333-2.4,3.8-4.7,3.935-7.723,4.683,1.091,1.7,4.273,3.42,6.87,3.5,4.075.147,9.73-4.867,12,0l-.434,1.755a5.2,5.2,0,0,1,3.009,1.755l1.839.044,6.3.154-1.282-1.361c.266-2.76,2.977-2.18,2.574-5.851,2.732-1,2.657,1.844,4.285,2.343,2.385-.646,2.406-4.525,3.434-7.026l.429-1.746-.429-1.758a3.4,3.4,0,0,1,2.569-1.161c-2.6-4.655-1.585-14.378,1.713-17.544,1.87,2.49,3.191,4.352.863,7.019,1.119-.422,1.35-2.068,2.569-2.343-.317-1.988.671-2.2,1.713-2.333-1.352-3.8.056-4.327-.851-7.024-.69-2.035-5.138-4.336-5.145-5.846,0,.727,5.56-7.613,10.28-9.355,4.282-1.571,10.2-1.361,12.863,1.175,1.159-1.154,1.711-3.128,2.576-4.679-2.681-4.62-1.226-10.917-.853-17.544,4.478,3.371,8.686,4.317,12.008-1.168,8.282,3.205,12.576.226,19.714,2.338,2.574.385,1.007,6.427,3.431,7.014.793-1.242,3.161-.361,2.567-3.508,8.212,5.443,12.334.49,15.441-8.178,4.665.224,5.089,5.776,4.282,10.52,4.35-3.217,4.793,1.3,7.718-2.343l1.291.592,1.284-.592c3.156,1.953,5.52,7.585,6.851,0l.431-1.166-.431-1.173c1.746-1.919,3.422-3.907,3.431-8.178,4.257,1.508,4.217-2.832,7.725-2.34.1,2.093-1.056,2.459-.862,4.679,6.879,1.177,9.676.786,14.574-2.338l-.431,1.751c1.331-2.168,3.364-2.27,5.205-2.765l2.518-1.326c.056-.967.1-1.937.2-2.664,1.191-1.688,2.865-2.972,4.658-2.6a3.443,3.443,0,0,1,1.065-1.508,16.781,16.781,0,0,0,4.359.338l-1.287-.578c8.261-.988,16.341-5.231,24.868-2.343a4.062,4.062,0,0,1,0,4.679h4.287l-.434,2.14c3.348-1.14,6.681-.73,10.082-.967a18.519,18.519,0,0,1,.641,2.921l.853.587c2.28.012,5.049-.655,5.142,2.34L492.52,71.6l.431,2.14c-3.424-1.007-6.669,1.291-4.294,4.676l-.434,1.76.434,1.753c-6.942,1.007-11.483,7.194-17.145,2.333-3.105.844-2.455,6.793-6.007,7.024.786,3.2,3.009-2.086,4.294,1.168.145,3.231-1.322,4.012-2.578,2.333l-.422-1.163a12.715,12.715,0,0,1-.431,3.5h.851c6.851-3.079,15.182.914,21.439-1.168.709-3.305-1.21-3.028-.853-5.846,6.345-.436,11.012-.981,17.143,1.173,1.935-2.443,2.452-6.8,4.3-9.357l1.282.583-.434-1.758c1.541.152,1.811-1.429,3.431-1.166-.911-11.679,13.562-15.889,19.724-15.2l-.436,1.753,1.289-.59c11.707,2.1,14.278.508,22.3-2.336.842-4.665-2.569-3.525-1.713-8.189.965-2.576,3.762-2.643,6-3.5a8.355,8.355,0,0,1,.853,4.679c11.53-3.991,14.182,13.807,23.153,5.844,1.62,4.063,8.914,5.3,10.292,0,.226-3.816-1.014-5.627-3.431-5.844,5.438-4.667,6.191-15.15,2.571-23.388,1.455.434,1.618-.907,1.713-2.338,5.415.8,4.254,10.581,10.294,10.525.019,6.266-6.4,3.744-6.01,10.525.364,2.627,4.553.028,5.145,2.336-.641,4.59-5.825,2.958-6,8.187.643,2.641,4.811.455,6.863,1.17-1.669,6.229,4.86,7.334,6.86,4.681l1.284.578.422-1.748c2.021.368,3.219,1.849,6.007,1.17.259,3.082-1.189,3.837-3.431,3.511,2.751,2.1,8,.772,6.86,8.18,6-1.867,9.056-.082,14.579,1.166.17-4.914-3.259-4.907-3.434-9.345,2.8-2.354,5.683-2.795,9.439-1.17l1.275.58,1.294-.58c1.1,2.236,4.084.385,4.285,0l1.287-1.373a16.723,16.723,0,0,0-2.436-1.543l-1.849-1.18.422,2.914h-1.706l-1.294-.58-1.275.58c.107-2.173.555-3.9,1.706-4.667a3.606,3.606,0,0,0-3.429-2.343l.429-1.755-1.282-.583c-.147-3.315-1.573-4.87-1.718-8.185,3.853,2.93,9.3,3.685,12,8.185l-1.284,1.359a8.481,8.481,0,0,0,2.664.434,9.5,9.5,0,0,1,3.333.545l-.422-1.166c.7-.219.851-1.18,1.706-1.173l.431,1.751,1.3.587c2.061.485,1.858-2.135,4.282-1.166a9.938,9.938,0,0,0,.853,5.846l-.424,1.748,1.287.58c-3,.981-3.634,5.2-5.147,8.191,3.135,1.723-.832,6.352,3.431,7.014-1.119,4.2.9,8.923-2.569,5.851,2.877,5.028,7.338-1.187,5.135-8.185a44.608,44.608,0,0,1,11.147,7.014l-.422,1.755,2.569,1.173-.434-1.758c2.243-1.235,1.8-6.131,4.294-7.017,5.117,1.522,2.989-6.828,3.431-11.688l1.284.58.422-1.751c2.035.35,1.6,4.051,4.294,3.5-3.66,4.877-1.023,16.807,0,22.218-.042-.184-1.552.147-1.713,0,1.054,3.553,2.953-1.27,5.147,0a84.082,84.082,0,0,0,6.86-23.381c.063-4-5.224-.681-5.147-4.679,1.217-5.39,10.693-5.641,7.716-12.87.814-1.333,6.888-1.131,9.427-3.5l1.287.58a11.283,11.283,0,0,1,.546-3.86c2.1-1.394,6.189-1.837,6.315,2.7l1.294.583c1.629.5,1.543,3.34,4.285,2.336-4.016-2.942-.03-7.338,1.716-9.357,2.508,1.6,2.9,3.175,5.135,0l1.3.585-1.718-2.919.424,1.163c-2.723,2.268-7.867-.462-10.282-2.333,1.522-5.907-1.035-9.091,0-12.87-1.373-3-5.359-1.781-7.716-5.839-12.812,4.625-33.216-.45-42.876-4.686,3.8-10.7,22.083-3.933,28.3,0,2.5.31,2.634-2.639,5.133-2.333,12.124,4.464,26.038,6.1,36.866,9.359L744.6,26c1.7.9,4.2.483,5.194,2.916a5.74,5.74,0,0,1-.1.977l11.2,8.59-.422-2.159c5.348,1.075,8.655-.671,10.292-4.665,15.124,4.434,30.209,12.658,43.729,12.851l.986,1.755,1.585-.578c7.963,4.2,15.789,10.523,24.868,8.18.734,2.124,2.2,3.229,2.576,5.849,2.243-7.982-8.816-17.679.851-23.39-2.089-7.788,2.089-15.852,1.706-22.215l1.294.592-.434-1.753c.268-1.592,2.149-.97,3.434-1.173,1.876,9.537-1.263,21.027,4.282,26.9.375,2.436-.58,3.082-.851,4.667,3.056,2.66,4.35.863,7.716,3.511a50.231,50.231,0,0,0,1.713,15.2c2.578-1.636,6.229-1.7,6.863,2.343l-1.289,1.357,10.026-.464,3.077-.147,3.182,8.021.441-1.751c1.494-1.077,2.967-2.184,2.557-5.856,1.214-.1,2.443-.184,2.576,1.175l-1.152,1.17,1.152,1.159c-.546,4.254,1.774,4.6,4.285,4.683L895.5,75.9a6.562,6.562,0,0,0,1.534-.6c1.476-.772,2.881-1.891,4.476-1.741l-.424-2.14c1.611-.14.592-3.867,2.569-3.511l.431,1.748,1.275-.59c1.284.518-.333,1.506,0,3.52,3.7,1.52,2.711-3.315,4.3-4.679l1.284,1.159,1.284-1.159c1.839,1.748-.615,2.863.86,5.842,2.807-.068,3.275-3.326,6.851-2.331.305,1.527,1.513,1.832,1.713,3.5.776,3.779-2.788,1.643-3.429,3.506-.17,5.774,2.424,11.879-.844,15.206-2.643-2.149-3.86,1.051-6.007-1.17-.681-4.037.795-5.145,2.569-5.844-1.485-2.091-3.837-5.236-5.145-1.17l-1-1.755-1.573.578c.154-.991-.336-1.11-.863-1.166l.431-1.751-2.569,3.511,1.284-.594c-.438,6.413-3.956,8.63-4.28,15.2l-1.289-.583.424,1.753c-1.119,7.24,1.217,11.919-3.431,14.031.212,2.061,1.478,2.664,3.431,2.34.72,6.55-1.38,11.07,0,15.2,3.967-2.657,2.788-7.935,6-15.2,4.082,2.072,4.2-1.152,7.723-2.34.107,2.1-1.056,2.473-.86,4.683.536-1.622,3.305-.187,3.443-2.343l1.27.587.3-2.35-1.569.592c.937-5.576-1.107-7.08-2.581-9.357l1.284-1.361a20.175,20.175,0,0,1-2.145-2.149v2.352c-2.138.173-2.655-1.849-4.285-2.352.182-1.937,6.371-4.69,6,0,2.338.1,1.727-1.946,3.441,0,.958-1.047-.054-2.611,1.7-4.669,2.916.932,5.208,2.713,3.434,7.021l-.429,1.748,1.282-.59v4.676c.594,1.567,2.291-.576,4.294,1.17,2.347-2.65,3.212-7.317,5.147-10.527-3.41-4.257-11.537-1.086-12-11.688,2-.373,3.21-1.849,5.989-1.17.606-4.327-3.66-2.012-4.285-4.681.107-3.508,4.86-3.741,6.01-2.333,3.937-5.3,3.879-11.854,6.853-16.374,1.7,2.739,3.59,5.236,6.858,5.856-1.408,5.1-3.814,8.826-7.723,10.52.075,4.364.972,3.329,0,7.014,4.044-1.231,9.793,2.877,15.437,0,.746,4.527-3.741,1.911-2.574,7.017.918,3.821,3.965,4.718,5.145,8.182,1-3.324,5.658-1.653,6.01-5.839,2.191.114,1.371,4.35,2.569,5.839,4.245.718,5.492-2.643,8.576-3.5-.392-2.97-3.7-1.965-4.294-4.679,1.669-2.415,5.236-2.231,7.725-3.506a9.87,9.87,0,0,0,.86,5.849c.923-.291.573-2.324,1.716-2.343l1.275.578.287-3.5-1.562.583V88.943l1.275.583c-.9-.755-1.657-.965-2.308-1.492a4.2,4.2,0,0,1-.259-3.177l-1.284.583c-1.284-4.891,4.417-10.968,5.135-2.343,1.133-1.408,1.352-.452,2.578,0-.634-3.42-2.072-5.748-3.434-8.187,1.429-3.734,2.636-1.506,3.434-4.672,1-3.989-1.842-7.991-1.716-10.53.326-6.578,2.184-9.131,4.282-15.2.319-1.984-.66-2.2-1.711-2.333,1.1-2,1.781-4.6,4.294-4.676a14.286,14.286,0,0,1,3.42,8.187c-1.117-1.406-1.34-.457-2.56,0,.641,3.03,2.643,7.728.851,10.523,2.089-1.83,5.091-2.422,6.851-4.679-.037-3.832-2.434-4.478-1.713-9.355,2.681-4.082,13.693-10.441,16.29-1.17,3.786-2.816,2.128-4.767,2.578-8.187,3.879-2.473,5.338,4.285,6,2.343.643,7.525-9.208,10.828-6.86,24.551,2.2-.888,2.981-3.73,2.571-8.185,2.128-1.935,3.923,3.623,4.292-3.511,4.037.438,4.315,1.48,5.991-2.333-.851-3.9-4.452-4.056-5.135-8.187,3.257,2.35,4.2-7.142,5.135-11.7,5.709-2.35,4.879-13.609,10.289-16.376,2.781-1.434.653,3.8,3.434,2.347.4,7.954-3.807,9.623-6.851,12.865,1.734,7.926-4.525,23.439,7.709,23.381V52.7c1.876.739,2.741-3.317,2.576,1.163,2.567-.774-.825-2.494,0-4.676h2.578v2.34a8.6,8.6,0,0,1,2.124-1.457,7.677,7.677,0,0,0,1.305-.883h-1.723c1.089-4.755,6.266-3.93,6-10.518-4.026-3.408-6.4,4.117-9.422,5.837-2.471-10.014,2.082-15.287,7.718-17.535-.709,3.3,1.208,3.033.853,5.846,1.543.147,1.811-1.434,3.429-1.161V37.5c4.075-.548.963,1.452,2.576,3.506.578-8.166,4.872-11.278,7.718-16.367,1.83-.55,1.629,1.669,1.706,3.5l-1.287,1.373.431,2.149c-1.138,6.823-1.839,18.483-7.714,15.192.077,3.8,5.117.825,4.285,5.853-1.641.492-3.693.42-3.42,3.506l-1.289-.59a16.04,16.04,0,0,1-.469,4c-.354.2-.72.394-1.254.681l1.291.59c.154.991-.34,1.1-.86,1.166l-1.065-1.464a13.133,13.133,0,0,1-1.079,2.049l1.294.585v5.839c7.686-3.152,7.159-17.5,11.136-25.721,1.926.5,2.741,2.518,4.292,3.511,4.383-3.38,8.4-7.25,10.28-14.031,6.711.888,7.264,3.182,13.726,4.681-1.047,6.891,3.373,6.327,5.145,9.35h-.851v1.17c-2.837,3.944-8.709,3.725-11.145,8.189,7.466,3.408,10.889-9.22,19.714-5.849l.431,1.751,1.287-.58a8.429,8.429,0,0,1,.86,4.679c-1.476,2.275-3.7,3.546-4.292,7.014l-1.277,1.364a28.556,28.556,0,0,1,2.562,2.73l-.422-1.758c1.07-.289.86-2.317,0-2.336,1.443-2.322,4.914-1.865,6-4.679-.075,2.058,2.287,4.639,4.292,7.014-3.219,3.278.557,5.711.853,10.525,7.072,3.532,6.842-4.07,12-8.18,2.021.359,1.6,4.058,4.294,3.511,5.28-1.324,3.4-4.844,6.86-11.7,1.59.953,3.457,1.518,4.294,3.508-.385,3.38-1.823,5.329-4.294,5.839.937,3,4.6,2.3,7.714,2.352,1.611,2.065-1.023,3.406.851,5.839,4.7-1.317,4.767,3.639,7.728,4.681.881,3.923-2.674,1.818-4.3,2.333,1.58,5.634,5.7,2.576,8.578,4.681-2.089,7.812-2.156,12.446-3.431,19.882-4.105-.534-3.613-.534-7.718,0,.727,4.079,5.762,7.408.855,9.348.737,3.434,2.758-.7,4.292,0a9.911,9.911,0,0,0-.86,5.853c-3.019-1.662-5.483,3.275-3.431,4.672-.862,2.853-3.457-4.79-5.147-1.161-.469,4.072,5.76,4.984,6.01,1.161,1.877.175,1.837,2.947,1.713,5.856,2.762-1.3,2.951-6.117,6.007-7.017-.884-6.082-.613-9.928,2.56-12.87l1.007,1.755.69-2.823,1.315-5.362-1.3.587c-.137-3.706,2.289-3.914,1.716-8.189-.259-1.587-2.149-.974-3.434-1.17,2.1-3.762,4.313-7.39,7.723-9.355-.977-10.681,4.235-12.942,3.422-23.383,2.627.047,2.693-2.205,6.01-3.511.564-4.278-1.86-4.485-1.718-8.189,3.8-1.618,7.5-1.4,10.287,1.175-1.825,9.2,2.73,6.105,5.145,10.525-1.863,2.907-5.5,3.41-6.851,7.012.086,3,3.191,1.886,4.282,3.508.606,5.175-2.184,8.2.853,10.527-1.967,1.14-3.233-1.594-6.851-1.166l-.434-1.753-.851,3.5,1.284-.585c.34,7.751-2.683,7.965-1.716,14.026-3.947-1.086-3.538,3.748-5.147,5.851a8.191,8.191,0,0,1,9.432,0l1.294.587,1.275-.587c2.415,1.387.462,8.735,4.3,8.187-1.555,1.788-2.627,4.212-6.007,3.513-1.9,1.061-1.69,8.066-4.287,4.676-.135,2.9,1.352,3.623,1.727,5.846,3.944-5.515,11.054-6.749,14.574-12.865-.45-5.448-1.685-10.429.851-14.036l1.287.59a10.373,10.373,0,0,1,1.713-10.52l-1.285.583c-.8-4.569,4.448-10.04,6.849-14.036-.133-1.371-1.55-.991-2.567-1.173.746-1.709.688-4.525,3.431-3.506l-.433,1.755,1.282-.587c1.163,4.723,6.662.4,5.159,4.676,3.746-3.762,10.264,1.788,12.863-4.676,5.156,2.9,9.506,8.432,7.7,17.544l-1.285-.583.431,1.746c-7.56.963-7.229-8.861-12.861-10.525-1.312,7.6,4.534,10.991,1.716,22.218,3.469,3.569,9.861,6.175,12.858,2.345-1.9-2.387-2.2-7.035-.86-11.7l1.294.583-.433-1.751c3.173.044,4.977-1.793,6.863-3.506l.431,1.751a19.921,19.921,0,0,1,.433-4.679l-.863.587c-1.391.333-1.478-1.107-2.569-1.17,4.7-5.947-1.044-11.814-1.725-17.532,2.723-.2,2.865,3.1,6.007,2.331-.133-2.9.441-4.853,1.706-5.842,2.508-.145,3.539,6.835.862,7.012a9.773,9.773,0,0,1-.862,5.844c6.229-2.795,12.036,2.375,17.152-2.338,6.373.338,6.87,6.4,11.147,7.024,2.212,3.028-4.469,4.83,0,8.185-2.3,4.776-8.961,5.41-8.578,10.518-2.795.075-3.266,3.324-6.863,2.34.534,1.044,1.044,2.089,0,2.345-4.007-.147.939-1.711,0-4.686-.2-3.009-1.464,1.6-3.422,0l.424-2.14c-2.571,1.226-4.916,2.657-7.714,3.119l1.285,1.361c.825,2.914-3.052,7.059.86,7.026a22.68,22.68,0,0,0-10.282,12.861l-1.294.58,3.431,1.168-.422-1.748c3.352.476,5.443-3.035,6.849,1.17.928-.3.588-2.331,1.716-2.343-.233-2.413-3.8-.282-3.431-3.511-.7-4.464,1.83-4.522,3.431-5.846l.431,1.758,1.287-.587c3.823.769,1.553,7.264,2.574,9.359,1.471-4.107,3.415-5.779,3.436-14.038,1.513-2.219,4.257-2.769,5.991-4.676,3.725,2.72,2.252,12.523,5.145,16.374-2.851,3.126-5.762,6.17-6,12.858.308,1.539,1.506,1.837,1.716,3.511,1.879-.172,1.841-2.942,1.716-5.842,5.194,1.606,5.175-3.863,5.147-9.359,3.091-1.615,7.8-3.271,6-8.187,2.874-.58,5.149-1.97,7.786-2.863V216.946H0V73.763C6.32,78.143,4.9,62.765,11.1,63.217Z" transform="translate(0 10.567)"/>
    <path id="Path_396" data-name="Path 396" class="cls-1" d="M14.988,58.47c2.464-.247,4.352.291,5.135,2.34l-1.284.58.431,1.751c-.73,1.741-2.76,1.7-4.282,2.338l-.434-1.748-1.282.585C12.629,60.719,15.62,62.067,14.988,58.47Z" transform="translate(17.545 76.119)"/>
    <path id="Path_397" data-name="Path 397" class="cls-1" d="M44.109,49.384l-.424,1.753,1.287.594c-.737.935-.508,3.2-1.713,3.5l-.863-2.04-.853,2.04c-1.009-1.753-2.476-2.865-2.578-5.851l1.294.594c-1.867-4.933.881-11.35,3.644-14.574a3.343,3.343,0,0,1,1.515.11c.275.145.552.287.842.429l-5.3,12.378C42.4,48.162,44.225,47.444,44.109,49.384Z" transform="translate(51.865 45.443)"/>
    <path id="Path_398" data-name="Path 398" class="cls-1" d="M43.37,51.028c-2.62.844-2.522-2.016-5.138-1.168V44.014c2.415-.967,2.212,1.648,4.285,1.173l-.434,1.755,1.287.583Z" transform="translate(50.891 56.662)"/>
    <path id="Path_399" data-name="Path 399" class="cls-1" d="M112.848,44.027c-9.047.534-16.052,10.056-25.712,5.846-5.709,4.077-19.213,9.784-23.162,0C66.9,48.794,69,46.6,73.413,47.54V46.365l-.422-.555c-1.119-.821-3.669.3-3.007-2.951,1.263.611,2.163,1.727,3.429,2.34l-.434.587c.473.133.674.643.865,1.17l.434-.592h.842c2.613-5.592,6.59-4.914,13.733-5.844,3.739-1.28,7.972-7.823,12.861-4.672a20.83,20.83,0,0,1,.856,2.338c1.541.077,2.375-2.574,3.429-2.338.394.086.881,2.042,1.706,2.338,1.944.664,5.693-1.506,6.01,2.333l-1.289,1.373Z" transform="translate(85.156 44.953)"/>
    <path id="Path_400" data-name="Path 400" class="cls-1" d="M116.819,37.87l.434,1.76,1.284.578v2.338c-1.392.333-1.48-1.1-2.569-1.166l.422-1.751-1.287-.59C115.122,37.907,116.157,38.138,116.819,37.87Z" transform="translate(153.214 48.772)"/>
    <path id="Path_401" data-name="Path 401" class="cls-1" d="M132.509,65.978l.431,1.173.434,1.161c-1.245,1.725-5.616,1.725-6.87,0,2-1.553,1.657-6.327,5.156-5.844l-.434,1.765,1.284.576C132.509,65.2,132.509,65.586,132.509,65.978Z" transform="translate(168.39 81.469)"/>
    <path id="Path_402" data-name="Path 402" class="cls-1" d="M172.938,38.405c1.965-2.324.937.3,2.569,1.17l-.434,1.168.434,1.173Q172.157,42.965,172.938,38.405Z" transform="translate(230.003 48.237)"/>
    <path id="Path_403" data-name="Path 403" class="cls-1" d="M220.422,41.381c-1.618,2.478-3.888,4.058-6.007,5.851-1.247-1.021-2.711-1.755-2.571-4.686l.436-1.751-.436-1.755c3.914,1.816,3.627-.918,7.718-1.17l-.424,2.145Z" transform="translate(281.973 48.772)"/>
    <path id="Path_404" data-name="Path 404" class="cls-1" d="M230.035,31.013c4.243-.849,5.49-.483,8.567-1.166-.818,2.389-1.744,4.627-2.569,7.017h-6l.42-1.758-1.282.585C228.809,33.239,229.767,32.588,230.035,31.013Z" transform="translate(304.944 38.093)"/>
    <path id="Path_405" data-name="Path 405" class="cls-1" d="M270.56,32.941c-.862,2.72-2.951,3.774-5.986,3.506l-.434-1.755-.441-1.751C266.169,31.235,268.754,29.678,270.56,32.941Z" transform="translate(351.012 39.672)"/>
    <path id="Path_406" data-name="Path 406" class="cls-1" d="M271.053,27.841c-.212,3.989-1.83,6.073-5.147,5.842V30.172L266.769,29l.853-1.163Z" transform="translate(353.948 35.423)"/>
    <path id="Path_407" data-name="Path 407" class="cls-1" d="M288.679,30.849c1.359,2.431,6.814-.709,6.007,4.681l-.429,1.163.429,1.175c-2.569.767.818,2.5,0,4.681-3.1-2.191-2.154-3.8-6.86-2.352l.434-1.746-1.294-.583C286.285,33.817,287.926,32.921,288.679,30.849Z" transform="translate(381.765 39.427)"/>
    <path id="Path_408" data-name="Path 408" class="cls-1" d="M293.977,44.227v-4.6l-4.711-1.83c1.8-.949,3.634.618,5.49.641.154.476.3.967.51,1.7l.429-1.76a3.911,3.911,0,0,0,3.434,1.17,8.329,8.329,0,0,0-.863,4.681C296.637,46.42,296.117,44.352,293.977,44.227Z" transform="translate(385.043 48.267)"/>
    <path id="Path_409" data-name="Path 409" class="cls-1" d="M393.641,21.661c.019,5.1-2.744,6.4-3.434,10.52l-1.284-.583-.434,1.753C386.643,27.6,387.737,18.663,393.641,21.661Z" transform="translate(516.03 26.399)"/>
    <path id="Path_410" data-name="Path 410" class="cls-1" d="M391.009,30.352c1.534-.145,1.8,1.431,3.429,1.17.345,2.823-1.571,2.548-.86,5.844L392,36.784l-.993,1.758C388.452,36.747,390.121,33.345,391.009,30.352Z" transform="translate(518.662 38.753)"/>
    <path id="Path_411" data-name="Path 411" class="cls-1" d="M467.708,19.4c-.5,3.217-2.126,4.881-2.571,8.189h-4.282c-.375-2.236-2.455-2.112-1.713-5.842L458.7,20l-.429-1.769C462.045,16.312,465.8,15.442,467.708,19.4Z" transform="translate(610.013 20.473)"/>
    <path id="Path_412" data-name="Path 412" class="cls-1" d="M478.642,23.325c1,1.755,2.473,2.863,2.571,5.844-1.79.676-2.445,2.9-5.145,2.34l.431-1.751-1.282-.59C474.856,25.167,477.782,25.658,478.642,23.325Z" transform="translate(632.523 29.411)"/>
    <path id="Path_413" data-name="Path 413" class="cls-1" d="M558.567,64.282c-3.189,5.341-7.7,1.156-11.152,3.511-1-5.126,1.571-12.7,4.282-16.367-.366-1.441-1.082-2.4-2.569-2.338.891-3.082,3.4-3.935,4.292-7.021l.855.592.86-.592c1.667-.587,1.553-3.613,3.492-3.837V62.942c-.163-.138-.333-.254-.49-.41Z" transform="translate(728.373 49.251)"/>
    <path id="Path_414" data-name="Path 414" class="cls-1" d="M267.748,26.211c3.163-2.914,4.709,5.014,0,0Z" transform="translate(356.4 32.369)"/>
    <path id="Path_415" data-name="Path 415" class="cls-1" d="M396.493,38.535c-1.7-.8-2.3-3.124-2.585-5.846,1.14-.417,1.364-2.061,2.585-2.343,1.315.615.049,1.224-.872,1.17.023,2.319,2.35,1.487,1.713,4.681C396.5,36.225,396.677,37.631,396.493,38.535Z" transform="translate(524.332 38.757)"/>
    <path id="Path_416" data-name="Path 416" class="cls-1" d="M163.273,40.4c-2.415-2.723-3.373-1.364-7.723-2.343-1.716-2.38.382-2.289.862-4.674-2.273-1.979-8.124.949-8.569-3.513l.853-1.163.853-1.173c6.611-1.224,10.637.935,15.437,4.679l-.431,2.14,1.284,1.366C166.1,38.792,162.515,36.636,163.273,40.4Z" transform="translate(196.794 34.556)"/>
    <path id="Path_417" data-name="Path 417" class="cls-1" d="M407.837,25.616l.434,1.755c1.7,1.578,1.828,6.935.849,10.523l-1.566-.59-1,1.76c-1.387-2.406-1.3-6.8-3.438-8.189-.305-4.744,4.093-11.394,6-5.851l1.289-.58C410.291,26.208,409.149,26.131,407.837,25.616Z" transform="translate(536.563 28.876)"/>
    <path id="Path_418" data-name="Path 418" class="cls-1" d="M164.819,28.231c-1.112,3.609-1.119-3.361.86-2.34C167.311,26.9,164.761,26.593,164.819,28.231Z" transform="translate(218.391 32.689)"/>
    <path id="Path_419" data-name="Path 419" class="cls-1" d="M482.3,22.815c-2.48-.641,1.312-1.821.863-3.5C486,20.458,482.2,21.626,482.3,22.815Z" transform="translate(640.863 24.068)"/>
    <path id="Path_420" data-name="Path 420" class="cls-1" d="M428,26.326V25.153l.851-1.17c-1.567-.009-2.187-2.41-2.574-4.091l1.758,2.79a33.166,33.166,0,0,0,1.678-6.881c3.208.1,2.445,1.308,5.147,0C434.744,22.267,431.079,23.911,428,26.326Z" transform="translate(567.416 19.396)"/>
    <path id="Path_421" data-name="Path 421" class="cls-1" d="M229.441,34.688c-3.233,1.718-9.641,1.718-12.863,0-.191-4.287-1.177-4.492,0-8.189,2.953-.548,10.562-.4,14.576,1.17C228.8,30.518,227.063,30.723,229.441,34.688Z" transform="translate(287.531 33.251)"/>
    <path id="Path_422" data-name="Path 422" class="cls-1" d="M412.677,35.36c1.571,1.965.844,5,1.562,7.439l-2.856-8.189A9.119,9.119,0,0,0,412.677,35.36Z" transform="translate(547.593 44.432)"/>
    <path id="Path_423" data-name="Path 423" class="cls-1" d="M406.655,35.111l-1.138,7.019A15.555,15.555,0,0,1,406.655,35.111Z" transform="translate(539.736 45.1)"/>
    <path id="Path_424" data-name="Path 424" class="cls-1" d="M134.837,35.867a11.524,11.524,0,0,1-3,.191Z" transform="translate(175.491 46.106)"/>
    <path id="Path_425" data-name="Path 425" class="cls-1" d="M168.554,31.352l-.851,2.916A7.638,7.638,0,0,1,168.554,31.352Z" transform="translate(223.23 40.096)"/>
    <path id="Path_426" data-name="Path 426" class="cls-1" d="M180.817,32.212l-3-.587A5.514,5.514,0,0,1,180.817,32.212Z" transform="translate(236.693 40.401)"/>
    <path id="Path_427" data-name="Path 427" class="cls-1" d="M84.745,27.923l-20.586,3.9C70.791,28.137,77.873,29.077,84.745,27.923Z" transform="translate(85.402 35.532)"/>
    <path id="Path_428" data-name="Path 428" class="cls-1" d="M61.456,29.345l-4.285,1.17A23.561,23.561,0,0,1,61.456,29.345Z" transform="translate(76.101 37.425)"/>
    <path id="Path_429" data-name="Path 429" class="cls-1" d="M301.475,29.736a16.818,16.818,0,0,1-2.1-1.9Z" transform="translate(398.505 35.423)"/>
    <path id="Path_430" data-name="Path 430" class="cls-1" d="M497.222,30.707c-1.713-.478-2.107-2.674-2.818-4.585Z" transform="translate(658.103 33.134)"/>
    <path id="Path_431" data-name="Path 431" class="cls-1" d="M495.247,27.51l-1.476-2.431A5.151,5.151,0,0,1,495.247,27.51Z" transform="translate(657.26 31.746)"/>
    <path id="Path_432" data-name="Path 432" class="cls-1" d="M110.486,25.994,87.333,27.167C95.145,26.3,102.8,24.157,110.486,25.994Z" transform="translate(116.249 32.003)"/>
    <path id="Path_433" data-name="Path 433" class="cls-1" d="M114.72,26.391l-14.145-1.163C105.272,23.26,110.053,26.062,114.72,26.391Z" transform="translate(133.876 31.019)"/>
    <path id="Path_434" data-name="Path 434" class="cls-1" d="M80.345,27l8.143-1.17C86.017,27.578,83.093,26.974,80.345,27Z" transform="translate(106.948 32.748)"/>
    <path id="Path_435" data-name="Path 435" class="cls-1" d="M205.035,24.656l6-.578C209.233,25.617,207.028,24.4,205.035,24.656Z" transform="translate(272.923 30.414)"/>
    <path id="Path_436" data-name="Path 436" class="cls-1" d="M191.431,23.824l-2.581,2.347A16.914,16.914,0,0,1,191.431,23.824Z" transform="translate(251.379 30.076)"/>
    <path id="Path_437" data-name="Path 437" class="cls-1" d="M200.13,22.322l-1.718,1.755C198.976,23.2,199.142,22.25,200.13,22.322Z" transform="translate(264.107 28.071)"/>
    <path id="Path_438" data-name="Path 438" class="cls-1" d="M418.738,20.892l.42-2.333A9.034,9.034,0,0,1,418.738,20.892Z" transform="translate(557.384 23.067)"/>
    <path id="Path_439" data-name="Path 439" class="cls-1" d="M372.752,14.8,368.9,20.637C369.675,18.267,371.44,16.549,372.752,14.8Z" transform="translate(491.045 18.061)"/>
    <path id="Path_440" data-name="Path 440" class="cls-1" d="M424.99,15.049l1.716-3.511A5.306,5.306,0,0,1,424.99,15.049Z" transform="translate(565.706 13.722)"/>
    <path id="Path_441" data-name="Path 441" class="cls-1" d="M426.828,11.037l4.655,2.716C429.884,13,428.122,12.641,426.828,11.037Z" transform="translate(568.152 13.055)"/>
    <path id="Path_442" data-name="Path 442" class="cls-1" d="M6.656,58.673,4.94,51.666C6.243,53.561,6.6,56.167,6.656,58.673Z" transform="translate(6.576 67.136)"/>
    <path id="Path_443" data-name="Path 443" class="cls-1" d="M19.392,61.763l-3.41-1.87C17.642,60.215,20.458,59.079,19.392,61.763Z" transform="translate(21.274 78.087)"/>
    <path id="Path_444" data-name="Path 444" class="cls-1" d="M13.4,65.367l.853-4.672C13.945,62.257,13.819,63.809,13.4,65.367Z" transform="translate(17.842 79.155)"/>
    <path id="Path_445" data-name="Path 445" class="cls-1" d="M40.371,52.443H36.94C38.516,51.762,39.6,51.841,40.371,52.443Z" transform="translate(49.171 67.53)"/>
    <path id="Path_446" data-name="Path 446" class="cls-1" d="M39.884,47.983l1.287-4.968A8.88,8.88,0,0,1,39.884,47.983Z" transform="translate(53.09 55.621)"/>
    <path id="Path_447" data-name="Path 447" class="cls-1" d="M65.875,39.442,56.434,37.5C59.714,36.318,62.847,38.265,65.875,39.442Z" transform="translate(75.12 47.788)"/>
    <path id="Path_448" data-name="Path 448" class="cls-1" d="M80.345,61.518l4.28-9.35C83.909,55.6,83.767,61.425,80.345,61.518Z" transform="translate(106.948 67.804)"/>
    <path id="Path_449" data-name="Path 449" class="cls-1" d="M81.45,59.515a12.442,12.442,0,0,1,1.7-2.331Z" transform="translate(108.418 74.481)"/>
    <path id="Path_450" data-name="Path 450" class="cls-1" d="M98.855,49.156a18.5,18.5,0,0,1-3.431,4.683Z" transform="translate(127.019 63.795)"/>
    <path id="Path_451" data-name="Path 451" class="cls-1" d="M114.309,30.119l-4.723.58A10.812,10.812,0,0,1,114.309,30.119Z" transform="translate(145.87 38.406)"/>
    <path id="Path_452" data-name="Path 452" class="cls-1" d="M117.619,26.023c3.1.942,5.483-2.408,8.569-1.629l-10.714,8.194C116.343,30.552,116.171,27.531,117.619,26.023Z" transform="translate(153.708 30.676)"/>
    <path id="Path_453" data-name="Path 453" class="cls-1" d="M144.7,27.469l-20.586-1.753A64.112,64.112,0,0,1,144.7,27.469Z" transform="translate(165.209 32.281)"/>
    <path id="Path_454" data-name="Path 454" class="cls-1" d="M114.182,38.625h3.434A4.049,4.049,0,0,1,114.182,38.625Z" transform="translate(151.988 49.777)"/>
    <path id="Path_455" data-name="Path 455" class="cls-1" d="M128.529,64.543a11.3,11.3,0,0,1,1.713-2.343Z" transform="translate(171.085 81.158)"/>
    <path id="Path_456" data-name="Path 456" class="cls-1" d="M213.489,30.057c2.5-1.627,5.229,1.11,7.711-.364l-11.565,6.718C211.321,34.9,212.079,32.053,213.489,30.057Z" transform="translate(279.047 37.659)"/>
    <path id="Path_457" data-name="Path 457" class="cls-1" d="M217.508,38.465l-2.541.765A3.089,3.089,0,0,1,217.508,38.465Z" transform="translate(286.143 49.557)"/>
    <path id="Path_458" data-name="Path 458" class="cls-1" d="M216.057,38.915l2.6-.793A2.994,2.994,0,0,1,216.057,38.915Z" transform="translate(287.594 49.108)"/>
    <path id="Path_459" data-name="Path 459" class="cls-1" d="M215.03,39.477,209.766,40.5C211.549,39.915,213.141,37.841,215.03,39.477Z" transform="translate(279.22 50.091)"/>
    <path id="Path_460" data-name="Path 460" class="cls-1" d="M219.991,41.3l-1.713-1.166A4.55,4.55,0,0,1,219.991,41.3Z" transform="translate(290.551 51.781)"/>
    <path id="Path_461" data-name="Path 461" class="cls-1" d="M228.573,35.613c.942-1.417,1.438-2.627,2.571-3.511Z" transform="translate(304.254 41.094)"/>
    <path id="Path_462" data-name="Path 462" class="cls-1" d="M264.381,32.6l-.862,4.679A13.7,13.7,0,0,1,264.381,32.6Z" transform="translate(350.771 41.761)"/>
    <path id="Path_463" data-name="Path 463" class="cls-1" d="M275.174,31.755a4.074,4.074,0,0,1,2.807-.643l-3.429,4.679C274.757,35.014,274.6,33.149,275.174,31.755Z" transform="translate(365.457 39.747)"/>
    <path id="Path_464" data-name="Path 464" class="cls-1" d="M311.966,38.342l-1.284-.583a7.143,7.143,0,0,1,0,5.844V38.942c-6.94-9.031-15.973.182-22.724-6.443-2.366,3.41-4.145,2.317-6.86,3.511,1.716,1.294,3.182.522,6,2.333.89,5.508-1.977,5.886-3.431,8.187-3.965-3.336-10.054-4.208-13.716,0l-1.284-.583-.431,1.753a3.924,3.924,0,0,0-3.431-1.17c5.693-8.212-.737-32.959,8.578-36.246.469,16.935,15.087,13.646,24.859,12.865l-.42,1.748,1.28-.583c3.086,4.042,7.275.224,12.863,2.333.93,3.667-.988,8.336,3.434,5.853C315.761,36.5,312.828,36.014,311.966,38.342Z" transform="translate(352.48 12.051)"/>
    <path id="Path_465" data-name="Path 465" class="cls-1" d="M266.354,29.223l.249-3.641A14.637,14.637,0,0,1,266.354,29.223Z" transform="translate(354.545 32.416)"/>
    <path id="Path_466" data-name="Path 466" class="cls-1" d="M267.988,28.353l-3,.592A4.243,4.243,0,0,1,267.988,28.353Z" transform="translate(352.729 36.074)"/>
    <path id="Path_467" data-name="Path 467" class="cls-1" d="M278.969,18.22a37.74,37.74,0,0,1,3-2.921Z" transform="translate(371.337 18.728)"/>
    <path id="Path_468" data-name="Path 468" class="cls-1" d="M284.484,25.241l1.713-1.163A4.464,4.464,0,0,1,284.484,25.241Z" transform="translate(378.678 30.414)"/>
    <path id="Path_469" data-name="Path 469" class="cls-1" d="M286.563,24.577l-3.641,13.912C283.614,33.51,281.61,27.393,286.563,24.577Z" transform="translate(376.598 31.078)"/>
    <path id="Path_470" data-name="Path 470" class="cls-1" d="M285.22,34.922a4.177,4.177,0,0,1,2.445-.548Z" transform="translate(379.657 44.119)"/>
    <path id="Path_471" data-name="Path 471" class="cls-1" d="M286.269,34.727l2.7-.618A4.392,4.392,0,0,1,286.269,34.727Z" transform="translate(381.054 43.766)"/>
    <path id="Path_472" data-name="Path 472" class="cls-1" d="M290,34.019l6.429-1.163C294.478,34.187,292.214,34.131,290,34.019Z" transform="translate(386.023 42.098)"/>
    <path id="Path_473" data-name="Path 473" class="cls-1" d="M294.846,34.109l1.487,4.042C295.681,36.818,294.338,36.135,294.846,34.109Z" transform="translate(392.321 43.766)"/>
    <path id="Path_474" data-name="Path 474" class="cls-1" d="M351.084,23.437c1.872-.741,3.711,1.254,5.485,1.1l-6.742,2.947C350.2,26.024,350.392,24.3,351.084,23.437Z" transform="translate(465.657 29.339)"/>
    <path id="Path_475" data-name="Path 475" class="cls-1" d="M364.911,12.2,363.2,11.037A4.489,4.489,0,0,1,364.911,12.2Z" transform="translate(483.457 13.055)"/>
    <path id="Path_476" data-name="Path 476" class="cls-1" d="M378.75,34.607l.613-2.5A4.344,4.344,0,0,1,378.75,34.607Z" transform="translate(504.155 41.096)"/>
    <path id="Path_477" data-name="Path 477" class="cls-1" d="M387.843,47.8l.853-22.213C388.456,32.848,389.041,40.608,387.843,47.8Z" transform="translate(516.259 32.416)"/>
    <path id="Path_478" data-name="Path 478" class="cls-1" d="M390.949,37.191l-.291-4.086A32.2,32.2,0,0,1,390.949,37.191Z" transform="translate(520.006 42.43)"/>
    <path id="Path_479" data-name="Path 479" class="cls-1" d="M385.635,47.653l3.578,2.042C387.954,49.192,386.635,48.975,385.635,47.653Z" transform="translate(513.32 61.794)"/>
    <path id="Path_480" data-name="Path 480" class="cls-1" d="M397.873,51.4c-.653.541-1.392.746-2.308,1.506l2.478-3.044A9.284,9.284,0,0,0,397.873,51.4Z" transform="translate(526.538 64.732)"/>
    <path id="Path_481" data-name="Path 481" class="cls-1" d="M398.439,48.9l-1.811,2.226C396.866,49.979,397.4,49.046,398.439,48.9Z" transform="translate(527.953 63.46)"/>
    <path id="Path_482" data-name="Path 482" class="cls-1" d="M456.62,17.892l4.292.4A13.5,13.5,0,0,1,456.62,17.892Z" transform="translate(607.809 22.179)"/>
    <path id="Path_483" data-name="Path 483" class="cls-1" d="M471.152,25.33l3.863.587C473.539,25.962,472.094,26,471.152,25.33Z" transform="translate(627.152 32.08)"/>
    <path id="Path_484" data-name="Path 484" class="cls-1" d="M475.013,29.586a16.6,16.6,0,0,1,1.716-3.5Z" transform="translate(632.292 33.085)"/>
    <path id="Path_485" data-name="Path 485" class="cls-1" d="M518.782,39.457l.863-2.338A7.8,7.8,0,0,1,518.782,39.457Z" transform="translate(690.553 47.773)"/>
    <path id="Path_486" data-name="Path 486" class="cls-1" d="M529.816,45.146a27.145,27.145,0,0,1,2.054,3.723Z" transform="translate(705.24 58.457)"/>
    <path id="Path_487" data-name="Path 487" class="cls-1" d="M537.175,57.022c.34-.9.573-1.793.853-2.35Z" transform="translate(715.036 71.137)"/>
    <path id="Path_488" data-name="Path 488" class="cls-1" d="M550.26,43.981l.366-7.865C551.008,38.773,550.451,41.361,550.26,43.981Z" transform="translate(732.453 46.437)"/>
    <path id="Path_489" data-name="Path 489" class="cls-1" d="M546.736,26.585c3.452,2.618,4.844,7.784,3.434,12.863Z" transform="translate(727.762 33.751)"/>
    <path id="Path_490" data-name="Path 490" class="cls-1" d="M159.3,30.6l-4.282-.2A7.018,7.018,0,0,1,159.3,30.6Z" transform="translate(206.338 38.504)"/>
    <path id="Path_491" data-name="Path 491" class="cls-1" d="M145.941,31.668c-.277-.21-.338-1.254-.518-2.48a14.163,14.163,0,0,0-.343-1.608c2.317-.949,4.79-2.259,7.245-1.525.534.923.4,2.916.047,4.452l-2.769.5A6.319,6.319,0,0,1,145.941,31.668Z" transform="translate(193.118 32.759)"/>
    <path id="Path_492" data-name="Path 492" class="cls-1" d="M140.849,33.019l10.728-4.679c-.086.531-.182,1.058-.268,1.583C148.278,33.165,144.234,31.988,140.849,33.019Z" transform="translate(187.485 36.087)"/>
    <path id="Path_493" data-name="Path 493" class="cls-1" d="M149.487,27.286l-7.716-1.166C144.328,26.438,147.214,25.249,149.487,27.286Z" transform="translate(188.712 33.05)"/>
  </g>
</svg>
