<svg xmlns="http://www.w3.org/2000/svg" viewBox="-2548.979 9367.301 1286.979 100.729">
  <defs>
    <style>
      .cls-1 {
        fill: #fafafa;
      }
    </style>
  </defs>
  <path id="Path_395" data-name="Path 395" class="cls-1" d="M11.1,35.37c2.168,2.849-.48,5.644-.863,8.5C5.021,44.206,4.59,47.7,2.518,50.11c2.054,3.365,7.007,4.816,10.294,7.369l-1.3-.285-.422.848c-4.2,1.166-8.539-2.643-9.432,0l-1.294-.28c1.618,2.01.853,4.057,1.294,6.236l.853.283a2.431,2.431,0,0,1,1.725,2.27c.825-.02.653-.7.842-1.136,2.657.631,2.31,3.229,6.01,1.7,1.121,2.663,2.03,5.46,5.145,6.8,5.55.273,4.121-4.073,9.429-3.963,1.009-.1.72-1.034.853-1.705,2.07-.234,1.87,1.036,4.3.568l.429.849,1.287-.284c.977,2.226.173,2.11.851,4.535,3.392-2.093,7.3-1.343,12-1.7,1.9-.441-.163-3.5,3.431-2.833.511,1.932,2.368,2.979,2.576,5.1,2.34.415,1.725-1.123,3.431-1.132-1-4.613-1.753-9.5,4.285-10.769V59.75c1.872-.105,2.732.462,2.571,1.7,2.56-1.338,5.289-2.556,6.863-4.536,1.511,1.461,5.975.965,8.574,1.7-1,.843-1,1.433,0,2.269,1.245.306,4.427-.659,4.285.567,2.846-.2,1.352-3.271,1.716-5.1,1.359.047,3.275-.271,3.429.567l-.431.852,1.3.28c.152.485-.34.537-.865.567-.49,3.414,2.993,3.68,5.147,3.972,2.963-.5.767-4.41,5.147-3.972-3.478-4.448,3.6-8.122.853-11.9l.431-.85-1.284-.288c-.021-1.334,1.476-1.669.853-3.4a40.136,40.136,0,0,0,8.578,3.4c-.233,1.169-3.8.138-3.424,1.7,3.317,2.379,12.094-.418,12-3.969,1.986-1.522,5.886-1.779,6.853-3.966,4.063-.229,5.9,1.009,10.3.566l-.441,1.039,1.3.659c-1.056.81-3.278,1.291-4.294.567-1.016,2.561,2,2.456,4.294,2.835l-.431.853,4.282-1.137-.431-.852c2.382-1.339,4.016.894,6.007.57,1.235,2.522-.289,3.512.853,5.67-3.1-2.649-7.581.667-12,1.7,4.686,1.762,10.4,1.33,12.861,3.4,3.459.089,7.112-1.687,7.718,1.135l-.434.852,2.576.188-.431-1.04h.851c1.086-2.312,1.793-4.868,6-5.1,2.079,3.643,2.117,9.92,5.147,13.606,3.159.2,2.595-2.066,3.429-3.4,2.9.167,2.49,2.512,5.156,2.834,3.086.156,2.322-2.242,5.135-2.269l.434.85a22.215,22.215,0,0,1,.853-2.269l-1.287-.28c1.657-4.32-3.1-8.436.853-10.769,5.9.825,2.981,7.472,6.007,10.206l-1.532-.208,1.1,1.622,1.3.284h.855l-.434.849,1.294.287c-.326.963.662,1.069,1.7,1.131l-.422.848,1.284-.28c.727-.105.807.221.855.568,2.739.485,2.653-.893,4.28-1.136,9.21,1.823,16.332-1.418,10.292-8.5,4.257-.748,7.383.74,10.294,0,1.448,1.964-1.59,5.215,4.282,5.1-1.991,1.782-1.091,2.542-1.711,4.537-1.706.945-1.086-.054-3.424,0,.289,1.137-.182,1.773-1.725,1.7l-1.282.28a2.807,2.807,0,0,1,.86,2.269l1.287.28.422.855,2.455.724-.305-1.011c1.392-.165,1.478.533,2.578.563,2.692-.1,1.093-3.054,4.285-2.832-3.385-3.513,1.408-5.645-.851-9.64a7.965,7.965,0,0,0,4.282-.563c-.527-.507-1.035-1.014,0-1.137a7,7,0,0,0-2.569-1.135l.422-.85-1.284-.285c-1.312-1.331,7.3-4.819,1.713-7.365v-.567h-.851c-.163-.484.324-.54.851-.571-.611-1.243-4.026-1.88-1.713-3.4h-3.434c-.478,2.518-3.133,3.594-5.135,5.1.354-7.276-13.52-1.026-16.3-4.537l.434-.849-.434-.851c.1-1.63,3.66-.982,3.431-2.838,10.091.429,21.616-2.893,27.444,1.14,2.291-.225,4.2-2,5.989-2.269.844-.129,1.6,1.056,2.576,1.129,1.977.157,2.83-1.687,3.434-1.7,1.245-.016,2.012,1.54,3.429,1.7,3.347.389,5.965-2.282,10.294-1.129a11.055,11.055,0,0,0,3.429-3.4l.434-.849-.434-.851c2.963,1.054,4.564-.268,7.718-.57.191-1-.863-2.833,1.716-2.266v1.136h1.713V31.4c4.329,2.992,11.021-1.96,15.427.57,2.886-3.352,17.565,1.48,22.292-2.835l1.3-.567-1.3-.567c3.352-1.693,6.154,1.263,10.294,0-.364,2.026-2.159,3.112-4.287,3.97v.567l-1.294.284.431.849c-2.252,2.477-10.415,1.049-12.861,3.4-.832-.015-.669-.7-.851-1.133-3.9.7,1.473,1.652-.865,2.835l-1.284-.287-.431.854c-6.832.45-11.311.408-16.292,2.831-1.282-.657-2.1-1.64-4.28-1.7-2.9-.216-1.352,2.508-5.147,1.7l.431-.849-1.284-.285c-1.263-1.076-5.618-.068-3.431,1.133l-1.3.286.434.849c-.375.7-1.093,1.164-2.571,1.135.231,1.436,3.681,3.211,0,3.968.767,1,3.48.726,2.571,2.834-1.891,1.534-2.846.156-5.147,1.136l-.988-.855a3.48,3.48,0,0,1-2.865,1.9l1.287.655c-2.371.706-2.716,2.743-4.285,3.969,10.772.049,23.439-2.377,31.717-1.132.844,2.064-4.175.262-2.569,2.839-4.11.182-7.352-1.573-8.576,1.13-7.881-3.044-10.763,1.357-17.145,2.834v3.4c-1.284.662-3.506.706-4.294,1.7l-1.284-.284a23.023,23.023,0,0,0,1.716,1.7l-.434-.855c3.807-.058,6.422.677,6.863,2.833,3.476-.723,8.693-.3,12.005-1.131-.145.659.182,1.008.853,1.131-2.4,1.843-4.7,1.908-7.723,2.27,1.091.825,4.273,1.658,6.87,1.7,4.075.071,9.73-2.36,12,0l-.434.851a7.546,7.546,0,0,1,3.009.851l1.839.021,6.3.075-1.282-.66c.266-1.338,2.977-1.057,2.574-2.837,2.732-.485,2.657.894,4.285,1.136,2.385-.313,2.406-2.194,3.434-3.406l.429-.846-.429-.852a5.455,5.455,0,0,1,2.569-.563c-2.6-2.257-1.585-6.97,1.713-8.505,1.87,1.207,3.191,2.11.863,3.4,1.119-.2,1.35-1,2.569-1.136-.317-.964.671-1.068,1.713-1.131-1.352-1.843.056-2.1-.851-3.4-.69-.987-5.138-2.1-5.145-2.834,0,.353,5.56-3.691,10.28-4.535,4.282-.762,10.2-.66,12.863.57,1.159-.559,1.711-1.517,2.576-2.268-2.681-2.24-1.226-5.292-.853-8.505,4.478,1.634,8.686,2.093,12.008-.566,8.282,1.554,12.576.11,19.714,1.133,2.574.186,1.007,3.116,3.431,3.4.793-.6,3.161-.175,2.567-1.7,8.212,2.639,12.334.237,15.441-3.964,4.665.108,5.089,2.8,4.282,5.1,4.35-1.56,4.793.629,7.718-1.136l1.291.287,1.284-.287c3.156.947,5.52,3.677,6.851,0l.431-.565-.431-.568c1.746-.93,3.422-1.894,3.431-3.964,4.257.731,4.217-1.373,7.725-1.135.1,1.015-1.056,1.192-.862,2.268,6.879.571,9.676.381,14.574-1.133l-.431.849c1.331-1.051,3.364-1.1,5.205-1.34l2.518-.643a9.965,9.965,0,0,1,.2-1.292,7.121,7.121,0,0,1,4.658-1.261,2.457,2.457,0,0,1,1.065-.731,34.264,34.264,0,0,0,4.359.164l-1.287-.28c8.261-.479,16.341-2.536,24.868-1.136.988.84.988,1.428,0,2.268h4.287l-.434,1.037c3.348-.553,6.681-.354,10.082-.469a5.366,5.366,0,0,1,.641,1.416l.853.285c2.28.006,5.049-.318,5.142,1.135l-1.28.66.431,1.037c-3.424-.488-6.669.626-4.294,2.267l-.434.853.434.85c-6.942.488-11.483,3.487-17.145,1.131-3.105.409-2.455,3.293-6.007,3.4.786,1.55,3.009-1.011,4.294.566.145,1.566-1.322,1.945-2.578,1.131l-.422-.564a3.272,3.272,0,0,1-.431,1.7h.851c6.851-1.493,15.182.443,21.439-.566.709-1.6-1.21-1.468-.853-2.834,6.345-.211,11.012-.476,17.143.568,1.935-1.184,2.452-3.294,4.3-4.536l1.282.283-.434-.852c1.541.073,1.811-.693,3.431-.565-.911-5.662,13.562-7.7,19.724-7.368l-.436.85L534.1,36.5c11.707,1.018,14.278.246,22.3-1.132.842-2.261-2.569-1.709-1.713-3.97.965-1.249,3.762-1.282,6-1.7a2.428,2.428,0,0,1,.853,2.268c11.53-1.935,14.182,6.694,23.153,2.833,1.62,1.97,8.914,2.57,10.292,0,.226-1.85-1.014-2.728-3.431-2.833,5.438-2.262,6.191-7.345,2.571-11.338,1.455.21,1.618-.44,1.713-1.133,5.415.39,4.254,5.13,10.294,5.1.019,3.038-6.4,1.815-6.01,5.1.364,1.274,4.553.014,5.145,1.132-.641,2.225-5.825,1.434-6,3.969.643,1.28,4.811.22,6.863.567-1.669,3.02,4.86,3.555,6.86,2.269l1.284.28.422-.848c2.021.179,3.219.9,6.007.567.259,1.494-1.189,1.86-3.431,1.7,2.751,1.016,8,.374,6.86,3.966,6-.905,9.056-.04,14.579.565.17-2.382-3.259-2.379-3.434-4.531a15.337,15.337,0,0,1,9.439-.567l1.275.281,1.294-.281c1.1,1.084,4.084.186,4.285,0l1.287-.666a23.793,23.793,0,0,0-2.436-.748l-1.849-.572.422,1.413h-1.706l-1.294-.281-1.275.281a2.384,2.384,0,0,1,1.706-2.262c-.564-.764-1.83-1.059-3.429-1.136l.429-.851-1.282-.283c-.147-1.607-1.573-2.361-1.718-3.968,3.853,1.421,9.3,1.787,12,3.968l-1.284.659a16.9,16.9,0,0,0,2.664.21,18.894,18.894,0,0,1,3.333.264l-.422-.565c.7-.106.851-.572,1.706-.568l.431.849,1.3.285c2.061.235,1.858-1.035,4.282-.565a2.773,2.773,0,0,0,.853,2.834l-.424.848,1.287.281c-3,.476-3.634,2.519-5.147,3.971,3.135.835-.832,3.08,3.431,3.4-1.119,2.034.9,4.326-2.569,2.837,2.877,2.438,7.338-.575,5.135-3.968a63.452,63.452,0,0,1,11.147,3.4l-.422.851,2.569.568-.434-.852c2.243-.6,1.8-2.972,4.294-3.4,5.117.738,2.989-3.31,3.431-5.666l1.284.281.422-.849c2.035.17,1.6,1.964,4.294,1.7-3.66,2.364-1.023,8.148,0,10.771-.042-.089-1.552.071-1.713,0,1.054,1.722,2.953-.616,5.147,0a28.215,28.215,0,0,0,6.86-11.335c.063-1.939-5.224-.33-5.147-2.268,1.217-2.613,10.693-2.735,7.716-6.239.814-.646,6.888-.548,9.427-1.7l1.287.281a3,3,0,0,1,.546-1.871c2.1-.676,6.189-.891,6.315,1.308l1.294.283c1.629.242,1.543,1.619,4.285,1.132-4.016-1.426-.03-3.558,1.716-4.536,2.508.778,2.9,1.539,5.135,0l1.3.284-1.718-1.415.424.564c-2.723,1.1-7.867-.224-10.282-1.131,1.522-2.864-1.035-4.407,0-6.239-1.373-1.457-5.359-.863-7.716-2.831-12.812,2.242-33.216-.218-42.876-2.271,3.8-5.185,22.083-1.906,28.3,0,2.5.15,2.634-1.279,5.133-1.131,12.124,2.164,26.038,2.957,36.866,4.537l-1.282.66c1.7.434,4.2.234,5.194,1.414a1.432,1.432,0,0,1-.1.474l11.2,4.164-.422-1.046c5.348.521,8.655-.325,10.292-2.261,15.124,2.149,30.209,6.136,43.729,6.23l.986.851,1.585-.28c7.963,2.035,15.789,5.1,24.868,3.966.734,1.03,2.2,1.565,2.576,2.835,2.243-3.869-8.816-8.571.851-11.339-2.089-3.776,2.089-7.685,1.706-10.77l1.294.287-.434-.85c.268-.772,2.149-.47,3.434-.568,1.876,4.623-1.263,10.193,4.282,13.04.375,1.181-.58,1.494-.851,2.262,3.056,1.289,4.35.418,7.716,1.7a12.8,12.8,0,0,0,1.713,7.369c2.578-.793,6.229-.826,6.863,1.136l-1.289.658,10.026-.225,3.077-.071,3.182,3.889.441-.849c1.494-.522,2.967-1.059,2.557-2.839,1.214-.046,2.443-.089,2.576.57l-1.152.567,1.152.562c-.546,2.062,1.774,2.231,4.285,2.27l-.431,1.044a11.472,11.472,0,0,0,1.534-.293,15.1,15.1,0,0,1,4.476-.844l-.424-1.037c1.611-.068.592-1.875,2.569-1.7l.431.848,1.275-.286c1.284.251-.333.73,0,1.706,3.7.737,2.711-1.607,4.3-2.268l1.284.562,1.284-.562c1.839.848-.615,1.388.86,2.832,2.807-.033,3.275-1.613,6.851-1.13.305.74,1.513.888,1.713,1.7.776,1.832-2.788.8-3.429,1.7-.17,2.8,2.424,5.759-.844,7.372-2.643-1.042-3.86.51-6.007-.567-.681-1.957.795-2.494,2.569-2.833-1.485-1.014-3.837-2.538-5.145-.567l-1-.851-1.573.28c.154-.48-.336-.538-.863-.565l.431-.849-2.569,1.7,1.284-.288c-.438,3.109-3.956,4.184-4.28,7.37l-1.289-.283.424.85c-1.119,3.51,1.217,5.778-3.431,6.8.212,1,1.478,1.292,3.431,1.135.72,3.176-1.38,5.367,0,7.369,3.967-1.288,2.788-3.847,6-7.369,4.082,1,4.2-.558,7.723-1.135.107,1.016-1.056,1.2-.86,2.27.536-.787,3.305-.09,3.443-1.136l1.27.285.3-1.139-1.569.287c.937-2.7-1.107-3.432-2.581-4.536l1.284-.66a20.07,20.07,0,0,1-2.145-1.042v1.14c-2.138.084-2.655-.9-4.285-1.14.182-.939,6.371-2.274,6,0,2.338.051,1.727-.944,3.441,0,.958-.507-.054-1.266,1.7-2.264,2.916.452,5.208,1.315,3.434,3.4l-.429.848,1.282-.286v2.267c.594.759,2.291-.279,4.294.567,2.347-1.285,3.212-3.547,5.147-5.1-3.41-2.064-11.537-.527-12-5.666,2-.181,3.21-.9,5.989-.567.606-2.1-3.66-.975-4.285-2.269.107-1.7,4.86-1.814,6.01-1.131,3.937-2.57,3.879-5.747,6.853-7.938a12.024,12.024,0,0,0,6.858,2.839c-1.408,2.473-3.814,4.279-7.723,5.1.075,2.116.972,1.614,0,3.4,4.044-.6,9.793,1.395,15.437,0,.746,2.195-3.741.927-2.574,3.4.918,1.852,3.965,2.287,5.145,3.967,1-1.612,5.658-.8,6.01-2.831,2.191.055,1.371,2.109,2.569,2.831,4.245.348,5.492-1.282,8.576-1.7-.392-1.44-3.7-.953-4.294-2.268,1.669-1.171,5.236-1.082,7.725-1.7a2.76,2.76,0,0,0,.86,2.835c.923-.141.573-1.127,1.716-1.136l1.275.28.287-1.7-1.562.283V47.842l1.275.283c-.9-.366-1.657-.468-2.308-.723a1.14,1.14,0,0,1-.259-1.54l-1.284.283c-1.284-2.371,4.417-5.317,5.135-1.136,1.133-.683,1.352-.219,2.578,0-.634-1.658-2.072-2.787-3.434-3.969,1.429-1.81,2.636-.73,3.434-2.265,1-1.934-1.842-3.874-1.716-5.1.326-3.189,2.184-4.427,4.282-7.37.319-.962-.66-1.068-1.711-1.131,1.1-.972,1.781-2.23,4.294-2.267,1.634.993,3.072,2.121,3.42,3.969-1.117-.681-1.34-.221-2.56,0,.641,1.469,2.643,3.746.851,5.1,2.089-.887,5.091-1.174,6.851-2.268-.037-1.858-2.434-2.171-1.713-4.535,2.681-1.979,13.693-5.062,16.29-.567,3.786-1.365,2.128-2.311,2.578-3.969,3.879-1.2,5.338,2.077,6,1.136.643,3.648-9.208,5.249-6.86,11.9,2.2-.431,2.981-1.808,2.571-3.968,2.128-.938,3.923,1.756,4.292-1.7,4.037.212,4.315.718,5.991-1.131-.851-1.892-4.452-1.966-5.135-3.969,3.257,1.139,4.2-3.463,5.135-5.671,5.709-1.139,4.879-6.6,10.289-7.939,2.781-.7.653,1.84,3.434,1.138.4,3.856-3.807,4.665-6.851,6.237,1.734,3.842-4.525,11.363,7.709,11.335v2.27c1.876.358,2.741-1.608,2.576.564,2.567-.375-.825-1.209,0-2.267h2.578V29.7a11.571,11.571,0,0,1,2.124-.706,10.456,10.456,0,0,0,1.305-.428h-1.723c1.089-2.305,6.266-1.905,6-5.1-4.026-1.652-6.4,2-9.422,2.83-2.471-4.855,2.082-7.411,7.718-8.5-.709,1.6,1.208,1.47.853,2.834,1.543.071,1.811-.7,3.429-.563V22.9c4.075-.266.963.7,2.576,1.7.578-3.959,4.872-5.467,7.718-7.934,1.83-.267,1.629.809,1.706,1.7l-1.287.666.431,1.042c-1.138,3.308-1.839,8.961-7.714,7.365.077,1.841,5.117.4,4.285,2.838-1.641.238-3.693.2-3.42,1.7l-1.289-.286a4.066,4.066,0,0,1-.469,1.938c-.354.095-.72.191-1.254.33l1.291.286c.154.48-.34.533-.86.565l-1.065-.71a6.854,6.854,0,0,1-1.079.993l1.294.284V38.2c7.686-1.528,7.159-8.486,11.136-12.469,1.926.243,2.741,1.221,4.292,1.7,4.383-1.639,8.4-3.515,10.28-6.8,6.711.431,7.264,1.543,13.726,2.269-1.047,3.341,3.373,3.067,5.145,4.533h-.851V28c-2.837,1.912-8.709,1.806-11.145,3.97,7.466,1.652,10.889-4.47,19.714-2.835l.431.849,1.287-.281a2.452,2.452,0,0,1,.86,2.268c-1.476,1.1-3.7,1.719-4.292,3.4l-1.277.661a26.967,26.967,0,0,1,2.562,1.323l-.422-.852c1.07-.14.86-1.123,0-1.132,1.443-1.126,4.914-.9,6-2.268-.075,1,2.287,2.249,4.292,3.4-3.219,1.589.557,2.769.853,5.1,7.072,1.712,6.842-1.973,12-3.966,2.021.174,1.6,1.967,4.294,1.7,5.28-.642,3.4-2.348,6.86-5.672,1.59.462,3.457.736,4.294,1.7-.385,1.639-1.823,2.583-4.294,2.831.937,1.457,4.6,1.115,7.714,1.14,1.611,1-1.023,1.651.851,2.831,4.7-.639,4.767,1.764,7.728,2.269.881,1.9-2.674.881-4.3,1.131,1.58,2.731,5.7,1.249,8.578,2.269-2.089,3.787-2.156,6.034-3.431,9.639a38.462,38.462,0,0,0-7.718,0c.727,1.978,5.762,3.591.855,4.532.737,1.665,2.758-.338,4.292,0a2.771,2.771,0,0,0-.86,2.838c-3.019-.806-5.483,1.588-3.431,2.265-.862,1.383-3.457-2.322-5.147-.563-.469,1.974,5.76,2.416,6.01.563,1.877.085,1.837,1.428,1.713,2.839,2.762-.629,2.951-2.965,6.007-3.4-.884-2.948-.613-4.813,2.56-6.239l1.007.851.69-1.369,1.315-2.6-1.3.285c-.137-1.8,2.289-1.9,1.716-3.97-.259-.77-2.149-.472-3.434-.567a19.087,19.087,0,0,1,7.723-4.535c-.977-5.178,4.235-6.274,3.422-11.336,2.627.023,2.693-1.069,6.01-1.7.564-2.074-1.86-2.174-1.718-3.97,3.8-.784,7.5-.677,10.287.57-1.825,4.458,2.73,2.96,5.145,5.1-1.863,1.409-5.5,1.653-6.851,3.4.086,1.456,3.191.914,4.282,1.7.606,2.509-2.184,3.976.853,5.1-1.967.553-3.233-.773-6.851-.565l-.434-.85-.851,1.7,1.284-.284c.34,3.758-2.683,3.862-1.716,6.8-3.947-.527-3.538,1.817-5.147,2.837a15.656,15.656,0,0,1,9.432,0l1.294.285,1.275-.285c2.415.672.462,4.234,4.3,3.969-1.555.867-2.627,2.042-6.007,1.7-1.9.514-1.69,3.91-4.287,2.267-.135,1.408,1.352,1.756,1.727,2.834,3.944-2.674,11.054-3.272,14.574-6.237-.45-2.641-1.685-5.056.851-6.8l1.287.286c-1.5-1.871-.585-3.771,1.713-5.1l-1.285.283c-.8-2.215,4.448-4.867,6.849-6.8-.133-.664-1.55-.48-2.567-.568.746-.828.688-2.194,3.431-1.7l-.433.851,1.282-.285c1.163,2.29,6.662.192,5.159,2.267,3.746-1.824,10.264.867,12.863-2.267,5.156,1.4,9.506,4.088,7.7,8.505l-1.285-.283.431.846c-7.56.467-7.229-4.3-12.861-5.1-1.312,3.684,4.534,5.328,1.716,10.771,3.469,1.73,9.861,2.994,12.858,1.137-1.9-1.157-2.2-3.411-.86-5.672l1.294.283-.433-.849a14.7,14.7,0,0,0,6.863-1.7l.431.849a4.943,4.943,0,0,1,.433-2.268l-.863.285c-1.391.162-1.478-.537-2.569-.567,4.7-2.883-1.044-5.727-1.725-8.5,2.723-.1,2.865,1.5,6.007,1.13a2.487,2.487,0,0,1,1.706-2.832c2.508-.07,3.539,3.313.862,3.4a2.738,2.738,0,0,1-.862,2.833c6.229-1.355,12.036,1.152,17.152-1.133,6.373.164,6.87,3.1,11.147,3.4,2.212,1.468-4.469,2.342,0,3.968-2.3,2.316-8.961,2.623-8.578,5.1-2.795.036-3.266,1.612-6.863,1.135.534.506,1.044,1.013,0,1.137-4.007-.071.939-.829,0-2.271-.2-1.459-1.464.778-3.422,0l.424-1.037a50.643,50.643,0,0,1-7.714,1.512l1.285.66c.825,1.413-3.052,3.422.86,3.406-4.571,1.319-8.231,3.249-10.282,6.235l-1.294.281,3.431.566-.422-.848c3.352.231,5.443-1.471,6.849.567.928-.145.588-1.13,1.716-1.136-.233-1.17-3.8-.137-3.431-1.7-.7-2.164,1.83-2.192,3.431-2.834l.431.852,1.287-.285c3.823.373,1.553,3.521,2.574,4.537,1.471-1.991,3.415-2.8,3.436-6.805,1.513-1.076,4.257-1.343,5.991-2.267,3.725,1.319,2.252,6.071,5.145,7.938-2.851,1.515-5.762,2.991-6,6.234.308.746,1.506.891,1.716,1.7,1.879-.084,1.841-1.426,1.716-2.832,5.194.779,5.175-1.873,5.147-4.537,3.091-.783,7.8-1.586,6-3.969,2.874-.281,5.149-.955,7.786-1.388V109.9H0V40.483C6.32,42.606,4.9,35.151,11.1,35.37Z" transform="translate(-1262 9477.197) rotate(180)"/>
</svg>
