<?xml version="1.0" encoding="utf-8"?>
<!-- Generator: Adobe Illustrator 21.0.0, SVG Export Plug-In . SVG Version: 6.00 Build 0)  -->
<svg version="1.1" id="Capa_1" xmlns="http://www.w3.org/2000/svg" xmlns:xlink="http://www.w3.org/1999/xlink" x="0px" y="0px"
	 viewBox="0 0 20 20" style="enable-background:new 0 0 20 20;" xml:space="preserve">
<style type="text/css">
	.st0{fill:#231F20;}
</style>
<g id="_1488170399_Instagram_Solid" transform="translate(-1558.846 7430)">
	<path id="XMLID_142_" class="st0" d="M1578.3-7426.6c-0.5-1.3-1.6-2.4-2.9-2.9c-0.8-0.3-1.6-0.4-2.4-0.5c-1.1,0-1.4-0.1-4.1-0.1
		s-3.1,0-4.1,0.1c-0.8,0-1.7,0.2-2.4,0.5c-1.3,0.5-2.4,1.6-2.9,2.9c-0.3,0.8-0.4,1.6-0.5,2.4c0,1.1-0.1,1.4-0.1,4.1s0,3.1,0.1,4.1
		c0,0.8,0.2,1.7,0.5,2.4c0.5,1.3,1.6,2.4,2.9,2.9c0.8,0.3,1.6,0.4,2.4,0.5c1.1,0,1.4,0.1,4.1,0.1s3.1,0,4.1-0.1
		c0.8,0,1.7-0.2,2.4-0.5c1.3-0.5,2.4-1.6,2.9-2.9c0.3-0.8,0.4-1.6,0.5-2.4c0-1.1,0.1-1.4,0.1-4.1s0-3.1-0.1-4.1
		C1578.8-7425,1578.6-7425.8,1578.3-7426.6z M1577-7416c0,0.6-0.1,1.3-0.3,1.9c-0.2,0.4-0.4,0.8-0.8,1.2c-0.3,0.3-0.7,0.6-1.2,0.8
		c-0.6,0.2-1.2,0.3-1.9,0.3c-1.1,0-1.4,0.1-4,0.1c-2.7,0-3,0-4-0.1c-0.6,0-1.3-0.1-1.9-0.3c-0.4-0.2-0.8-0.4-1.2-0.8
		c-0.3-0.3-0.6-0.7-0.8-1.2c-0.2-0.6-0.3-1.2-0.3-1.9c0-1.1-0.1-1.4-0.1-4s0-3,0.1-4c0-0.6,0.1-1.3,0.3-1.9c0.2-0.4,0.4-0.8,0.8-1.2
		c0.3-0.3,0.7-0.6,1.2-0.8c0.6-0.2,1.2-0.3,1.9-0.3c1.1,0,1.4-0.1,4-0.1c2.7,0,3,0,4,0.1c0.6,0,1.3,0.1,1.9,0.3
		c0.4,0.2,0.8,0.4,1.2,0.8c0.3,0.3,0.6,0.7,0.8,1.2c0.2,0.6,0.3,1.2,0.3,1.9c0,1.1,0.1,1.4,0.1,4S1577-7417,1577-7416L1577-7416z"/>
	<path id="XMLID_145_" class="st0" d="M1568.8-7425.1c-2.8,0-5.1,2.3-5.1,5.1s2.3,5.1,5.1,5.1c2.8,0,5.1-2.3,5.1-5.1
		C1574-7422.8,1571.7-7425.1,1568.8-7425.1z M1568.8-7416.7c-1.8,0-3.3-1.5-3.3-3.3s1.5-3.3,3.3-3.3c1.8,0,3.3,1.5,3.3,3.3
		C1572.2-7418.2,1570.7-7416.7,1568.8-7416.7z"/>
	<path id="XMLID_143_" class="st0" d="M1574.2-7426.5c0.7,0,1.2,0.5,1.2,1.2c0,0.7-0.5,1.2-1.2,1.2s-1.2-0.5-1.2-1.2
		C1573-7426,1573.5-7426.5,1574.2-7426.5C1574.2-7426.5,1574.2-7426.5,1574.2-7426.5z"/>
</g>
</svg>
