<svg xmlns="http://www.w3.org/2000/svg" viewBox="-1614 8224.001 77.838 90">
  <defs>
    <style>
      .cls-1 {
        fill: #858484;
      }
    </style>
  </defs>
  <path id="woman-stretching-and-flexing-legs-with-arms-up" class="cls-1" d="M108.774,87.262c-.689-.4-1.513-.826-2.385-1.273-1.559-.8-4.168-2.14-4.325-2.767-.422-1.687,1.015-5.884,1.787-8.139.211-.617.394-1.151.51-1.537,2.012-6.707,1.068-9.782.326-11.019-1.634-2.724-9.909-1.958-12.777-1.6,1.667-6.311,1.011-10.492.8-11.5a5.227,5.227,0,0,0,.362-3.75c-.579-2.082-2.4-3.893-5.408-5.383-.037-.018-.313-.138-.385-.171a2.852,2.852,0,0,1-1.64-2.04c1,.227,2.6.387,3.29-.654a7.768,7.768,0,0,0,.547-3.025,18.6,18.6,0,0,0-.516-4.824c-.723-2.9-2.132-4.983-4.076-6.03a7.016,7.016,0,0,0-1.565-.62,15.684,15.684,0,0,0-.712-2.5c-1.128-2.983-2.779-7.22-4.293-10.618l.021-.073c.853-2.891,1.659-5.622-.2-8.892A1.652,1.652,0,0,0,76.922.019a1.673,1.673,0,0,0-1.413.461,9.39,9.39,0,0,0-2.38,9.357l1.152,3.455c0,.013.009.026.014.038a52.488,52.488,0,0,1,2.992,11.576,7.841,7.841,0,0,0-1.642,2.581c-.007.016-.039.111-.049.142A5.98,5.98,0,0,0,73.966,27a2.984,2.984,0,0,0-3.185,1.415c-2.326,3.866,3.272,11.41,3.511,11.73a.576.576,0,0,0,.461.23h.008a.563.563,0,0,0,.542-.387.614.614,0,0,0,.013-.322c-.08-.69-.756-6.588-.756-8.888,0-1.116.419-1.532.871-1.657a17.234,17.234,0,0,0,1.84,4.965c-.448,1.367-2.28,7.841,1.248,13.053.106.39.23.811.361,1.255.845,2.861,2,6.78.593,10.384a10.16,10.16,0,0,1-3.173,4.2c-.321.266-.636.511-.941.748a6.367,6.367,0,0,0-2.218,2.345,9.152,9.152,0,0,0-.637,3.477,80.709,80.709,0,0,0-10.648,5.077c-2.112,1.307-4.305.942-6.371.455-.26-.061-.518-.124-.773-.187a11.978,11.978,0,0,0-4.136-.542,99,99,0,0,0-11.353,2.909,2.016,2.016,0,0,1-1.77-.292,2.328,2.328,0,0,0-2-.351A3.907,3.907,0,0,0,32.723,79.7l-1,5.973a2.557,2.557,0,0,0,0,.892,2.153,2.153,0,0,0,.145.475A3.554,3.554,0,0,0,35.4,89.158a6.527,6.527,0,0,0,.723-.042c1.426-.159,2.245-.593,2.5-1.328A1.715,1.715,0,0,0,38,85.834a7.947,7.947,0,0,0-1.273-.52l3.188-2.2a4.721,4.721,0,0,1,2.877-.826l19.727.881h.032a37.62,37.62,0,0,0,8.933-1.454c4.454-1.261,10.6-3.9,14.854-9.326,2,.6,6.362-.9,10.7-2.516l.676-.251a20.956,20.956,0,0,0-1.216,7.559,58.7,58.7,0,0,0,.21,6.14l-.807,3.5a1.883,1.883,0,0,0,.036,1.03,1.812,1.812,0,0,0,1.535,1.223l10.445.922a1.542,1.542,0,0,0,.165.009,1.432,1.432,0,0,0,1.387-1.038A1.489,1.489,0,0,0,108.774,87.262ZM73.409,30.776c0,1.561.289,4.613.513,6.749-1.583-2.6-3.384-6.476-2.155-8.518a1.832,1.832,0,0,1,1.964-.881,4.031,4.031,0,0,1,.693.216A3.028,3.028,0,0,0,73.409,30.776Zm3.145-2.119a4.716,4.716,0,0,1,.159-.738,6.066,6.066,0,0,1,.756-1.417,32.475,32.475,0,0,1,.081,5.52A10.01,10.01,0,0,1,76.554,28.658Zm1.884,5.573c0-.01,0-.02.007-.029a.556.556,0,0,0,.021-.08l0-.01h0c1.487-9.506-2.629-20.033-3.077-21.14-.017-.043-.033-.085-.047-.129L74.221,9.473a8.2,8.2,0,0,1,2.092-8.168.531.531,0,0,1,.448-.145.5.5,0,0,1,.375.251c1.62,2.844.916,5.231.1,8l-.082.278a.571.571,0,0,0,.026.4c1.526,3.4,3.21,7.724,4.354,10.75a14.5,14.5,0,0,1,.934,5.58L82.2,35.679a20.455,20.455,0,0,0,.515,5.2.576.576,0,0,0,.56.446.574.574,0,0,0,.557-.725,19.314,19.314,0,0,1-.482-4.889l.272-9.267a15.8,15.8,0,0,0-.1-2.253,6.18,6.18,0,0,1,.819.366c2.085,1.123,3.056,3.5,3.5,5.294.82,3.289.409,6.511.129,6.932-.352.528-1.868.293-2.782-.031a.576.576,0,0,0-.768.5,4.092,4.092,0,0,0,2.387,3.911c.18.826.584,3.526-1.4,5.085-2.108,1.656-5.274.479-5.973.186C75.948,41.2,78.412,34.3,78.438,34.231Zm2.107,24.963c1.554-3.972.332-8.109-.561-11.13l-.069-.233a9.366,9.366,0,0,0,2.722.44,5.524,5.524,0,0,0,3.486-1.118,5.4,5.4,0,0,0,2-4.2,8.051,8.051,0,0,0-.039-1.146c2.141,1.22,3.445,2.612,3.881,4.148A4,4,0,0,1,91.63,49a2.987,2.987,0,0,1-2.82,1.032.576.576,0,0,0-.2,1.134,4.344,4.344,0,0,0,.756.068,4.021,4.021,0,0,0,2.349-.762,27.783,27.783,0,0,1-1.144,10.975A31.21,31.21,0,0,1,88.519,66.7C81.2,68.753,78.166,64.829,77.4,63.55A10.968,10.968,0,0,0,80.545,59.195ZM39.258,82.167,35.151,85a.576.576,0,0,0-.206.692.61.61,0,0,0,.365.334l1.651.6a.9.9,0,0,1,.544.521.4.4,0,0,1,.028.262c-.067.188-.512.449-1.543.564-1.955.217-2.728-.658-3.027-1.273a.814.814,0,0,1-.034-.163,3.771,3.771,0,0,1,.015-1.171l.913-5.478a2.749,2.749,0,0,1,1.924-2.173,1.17,1.17,0,0,1,1,.183,3.2,3.2,0,0,0,2.774.458,98.545,98.545,0,0,1,11.153-2.867A11.231,11.231,0,0,1,54.436,76l.292.071-.566,5.568L42.84,81.138A5.869,5.869,0,0,0,39.258,82.167Zm23.291-.149-7.236-.323.545-5.356a8.517,8.517,0,0,0,6.6-.741,84.475,84.475,0,0,1,10.846-5.135.577.577,0,0,0,.364-.6,7.871,7.871,0,0,1,.538-3.371,5.752,5.752,0,0,1,1.855-1.863l.44-.343A8.9,8.9,0,0,0,78.986,66.8a9.9,9.9,0,0,0,5.638,1.621,14.956,14.956,0,0,0,3.175-.363q-.575,1.028-1.229,2.023c-.1.159-.68.992-.877,1.255C78.006,81.566,63.1,82.006,62.549,82.018ZM96.63,68.8c-2.347.874-7.492,2.79-9.548,2.587.04-.057.347-.5.452-.668a32.932,32.932,0,0,0,4.035-8.583,52.579,52.579,0,0,1,5.452-.418c3.669-.069,6.1.445,6.679,1.407,1.117,1.861.707,5.214.185,7.647a9.28,9.28,0,0,1-5.172-.573,4.456,4.456,0,0,1,.73-1.231.576.576,0,0,0-.526-.949A18.763,18.763,0,0,0,96.63,68.8Zm11.729,19.841a.3.3,0,0,1-.337.21l-10.445-.922a.656.656,0,0,1-.571-.8l.839-3.634a.576.576,0,0,0,.012-.187,57.051,57.051,0,0,1-.213-6.107,25.168,25.168,0,0,1,.7-5.905,9.942,9.942,0,0,0,3.9.762,11.351,11.351,0,0,0,1.361-.087c-.132.517-.255.947-.345,1.248-.11.366-.289.889-.5,1.5-.923,2.7-2.318,6.774-1.814,8.791.264,1.057,2.033,2.032,4.916,3.512.869.446,1.69.868,2.357,1.26A.292.292,0,0,1,108.358,88.637Z" transform="translate(-1645.687 8223.998)"/>
</svg>
