<svg xmlns="http://www.w3.org/2000/svg" viewBox="-1523.107 7431.539 20.823 16.923">
  <defs>
    <style>
      .cls-1 {
        fill: #fff;
      }
    </style>
  </defs>
  <path id="_1490225691_twitter" data-name="1490225691_twitter" class="cls-1" d="M20.824,5a8.479,8.479,0,0,1-2.454.672,4.288,4.288,0,0,0,1.879-2.363,8.555,8.555,0,0,1-2.713,1.036,4.277,4.277,0,0,0-7.281,3.9A12.131,12.131,0,0,1,1.45,3.782a4.279,4.279,0,0,0,1.322,5.7A4.259,4.259,0,0,1,.837,8.952c0,.018,0,.036,0,.053a4.275,4.275,0,0,0,3.427,4.19,4.292,4.292,0,0,1-1.929.074,4.277,4.277,0,0,0,3.99,2.967,8.569,8.569,0,0,1-5.3,1.83A8.634,8.634,0,0,1,0,18,12.1,12.1,0,0,0,6.55,19.923,12.073,12.073,0,0,0,18.7,7.768c0-.185-.005-.37-.013-.553A8.667,8.667,0,0,0,20.824,5Z" transform="translate(-1523.108 7428.538)"/>
</svg>
