<?xml version="1.0" encoding="utf-8"?>
<!-- Generator: Adobe Illustrator 21.0.0, SVG Export Plug-In . SVG Version: 6.00 Build 0)  -->
<svg version="1.1" id="Capa_1" xmlns="http://www.w3.org/2000/svg" xmlns:xlink="http://www.w3.org/1999/xlink" x="0px" y="0px"
	 viewBox="0 0 20.8 16.9" style="enable-background:new 0 0 20.8 16.9;" xml:space="preserve">
<style type="text/css">
	.st0{fill:#190A0B;}
</style>
<path id="_1490225691_twitter" class="st0" d="M20.8,2c-0.8,0.3-1.6,0.6-2.5,0.7c0.9-0.5,1.6-1.4,1.9-2.4c-0.8,0.5-1.8,0.8-2.7,1
	c-1.6-1.7-4.3-1.8-6-0.2c-1.1,1-1.6,2.6-1.2,4.1C6.8,5.1,3.6,3.4,1.4,0.8c-1.1,2-0.6,4.4,1.3,5.7C2.1,6.5,1.4,6.3,0.8,6
	c0,0,0,0,0,0.1c0,2,1.4,3.8,3.4,4.2c-0.6,0.2-1.3,0.2-1.9,0.1c0.6,1.7,2.2,2.9,4,3c-1.5,1.2-3.4,1.8-5.3,1.8c-0.3,0-0.7,0-1-0.1
	c2,1.3,4.2,1.9,6.6,1.9c6.7,0,12.1-5.3,12.2-12c0-0.1,0-0.1,0-0.2c0-0.2,0-0.4,0-0.6C19.5,3.6,20.2,2.9,20.8,2z"/>
</svg>
