<svg xmlns="http://www.w3.org/2000/svg" viewBox="4949 8615 29.768 30">
  <defs>
    <style>
      .cls-1 {
        fill: #bec4c6;
        fill-rule: evenodd;
      }
    </style>
  </defs>
  <path id="whatsup" class="cls-1" d="M15.768,0A14.616,14.616,0,0,0,3.251,22.161L.613,30,8.7,27.411A14.615,14.615,0,1,0,15.768,0Zm0,26.9a12.214,12.214,0,0,1-6.76-2.032L4.287,26.382l1.535-4.563A12.282,12.282,0,1,1,15.768,26.9ZM12.34,8.571c-.237-.571-.418-.59-.784-.607-.125-.006-.261-.012-.41-.012a1.78,1.78,0,0,0-1.254.44,3.921,3.921,0,0,0-1.254,2.987,6.969,6.969,0,0,0,1.463,3.7c.179.239,2.5,3.909,6.12,5.407,2.823,1.169,3.661,1.065,4.3.924a3.48,3.48,0,0,0,2.412-1.731,2.993,2.993,0,0,0,.209-1.7c-.09-.15-.328-.239-.687-.418s-2.12-1.046-2.448-1.165a.692.692,0,0,0-.885.266,14.748,14.748,0,0,1-.961,1.272.772.772,0,0,1-.87.135,9.107,9.107,0,0,1-2.881-1.778,10.79,10.79,0,0,1-1.993-2.481c-.209-.358-.018-.572.143-.767.184-.222.353-.382.532-.591a2.4,2.4,0,0,0,.4-.56.734.734,0,0,0-.051-.665C13.355,11.051,12.638,9.289,12.34,8.571Z" transform="translate(4948.387 8614.998)"/>
</svg>
